<?xml version="1.0" encoding="utf-8" standalone="no"?>
<!DOCTYPE svg PUBLIC "-//W3C//DTD SVG 1.1//EN"
  "http://www.w3.org/Graphics/SVG/1.1/DTD/svg11.dtd">
<svg xmlns:xlink="http://www.w3.org/1999/xlink" width="576pt" height="432pt" viewBox="0 0 576 432" xmlns="http://www.w3.org/2000/svg" version="1.1">
 <metadata>
  <rdf:RDF xmlns:dc="http://purl.org/dc/elements/1.1/" xmlns:cc="http://creativecommons.org/ns#" xmlns:rdf="http://www.w3.org/1999/02/22-rdf-syntax-ns#">
   <cc:Work>
    <dc:type rdf:resource="http://purl.org/dc/dcmitype/StillImage"/>
    <dc:date>2026-03-21T07:24:19.837538</dc:date>
    <dc:format>image/svg+xml</dc:format>
    <dc:creator>
     <cc:Agent>
      <dc:title>Matplotlib v3.10.8, https://matplotlib.org/</dc:title>
     </cc:Agent>
    </dc:creator>
   </cc:Work>
  </rdf:RDF>
 </metadata>
 <defs>
  <style type="text/css">*{stroke-linejoin: round; stroke-linecap: butt}</style>
 </defs>
 <g id="figure_1">
  <g id="patch_1">
   <path d="M 0 432 
L 576 432 
L 576 0 
L 0 0 
z
" style="fill: #ffffff"/>
  </g>
  <g id="axes_1">
   <g id="patch_2">
    <path d="M 80.64 371.52 
L 558.72 371.52 
L 558.72 12.96 
L 80.64 12.96 
z
" style="fill: #ffffff"/>
   </g>
   <g id="matplotlib.axis_1">
    <g id="xtick_1">
     <g id="line2d_1">
      <defs>
       <path id="m958fa0e17c" d="M 0 0 
L 0 7 
" style="stroke: #000000; stroke-width: 1.28"/>
      </defs>
      <g>
       <use xlink:href="#m958fa0e17c" x="102.370909" y="371.52" style="stroke: #000000; stroke-width: 1.28"/>
      </g>
     </g>
     <g id="text_1">
      <!-- 0 -->
      <g transform="translate(97.280909 394.1775) scale(0.16 -0.16)">
       <defs>
        <path id="DejaVuSans-30" d="M 2034 4250 
Q 1547 4250 1301 3770 
Q 1056 3291 1056 2328 
Q 1056 1369 1301 889 
Q 1547 409 2034 409 
Q 2525 409 2770 889 
Q 3016 1369 3016 2328 
Q 3016 3291 2770 3770 
Q 2525 4250 2034 4250 
z
M 2034 4750 
Q 2819 4750 3233 4129 
Q 3647 3509 3647 2328 
Q 3647 1150 3233 529 
Q 2819 -91 2034 -91 
Q 1250 -91 836 529 
Q 422 1150 422 2328 
Q 422 3509 836 4129 
Q 1250 4750 2034 4750 
z
" transform="scale(0.015625)"/>
       </defs>
       <use xlink:href="#DejaVuSans-30"/>
      </g>
     </g>
    </g>
    <g id="xtick_2">
     <g id="line2d_2">
      <g>
       <use xlink:href="#m958fa0e17c" x="174.807273" y="371.52" style="stroke: #000000; stroke-width: 1.28"/>
      </g>
     </g>
     <g id="text_2">
      <!-- 50 -->
      <g transform="translate(164.627273 394.1775) scale(0.16 -0.16)">
       <defs>
        <path id="DejaVuSans-35" d="M 691 4666 
L 3169 4666 
L 3169 4134 
L 1269 4134 
L 1269 2991 
Q 1406 3038 1543 3061 
Q 1681 3084 1819 3084 
Q 2600 3084 3056 2656 
Q 3513 2228 3513 1497 
Q 3513 744 3044 326 
Q 2575 -91 1722 -91 
Q 1428 -91 1123 -41 
Q 819 9 494 109 
L 494 744 
Q 775 591 1075 516 
Q 1375 441 1709 441 
Q 2250 441 2565 725 
Q 2881 1009 2881 1497 
Q 2881 1984 2565 2268 
Q 2250 2553 1709 2553 
Q 1456 2553 1204 2497 
Q 953 2441 691 2322 
L 691 4666 
z
" transform="scale(0.015625)"/>
       </defs>
       <use xlink:href="#DejaVuSans-35"/>
       <use xlink:href="#DejaVuSans-30" transform="translate(63.623047 0)"/>
      </g>
     </g>
    </g>
    <g id="xtick_3">
     <g id="line2d_3">
      <g>
       <use xlink:href="#m958fa0e17c" x="247.243636" y="371.52" style="stroke: #000000; stroke-width: 1.28"/>
      </g>
     </g>
     <g id="text_3">
      <!-- 100 -->
      <g transform="translate(231.973636 394.1775) scale(0.16 -0.16)">
       <defs>
        <path id="DejaVuSans-31" d="M 794 531 
L 1825 531 
L 1825 4091 
L 703 3866 
L 703 4441 
L 1819 4666 
L 2450 4666 
L 2450 531 
L 3481 531 
L 3481 0 
L 794 0 
L 794 531 
z
" transform="scale(0.015625)"/>
       </defs>
       <use xlink:href="#DejaVuSans-31"/>
       <use xlink:href="#DejaVuSans-30" transform="translate(63.623047 0)"/>
       <use xlink:href="#DejaVuSans-30" transform="translate(127.246094 0)"/>
      </g>
     </g>
    </g>
    <g id="xtick_4">
     <g id="line2d_4">
      <g>
       <use xlink:href="#m958fa0e17c" x="319.68" y="371.52" style="stroke: #000000; stroke-width: 1.28"/>
      </g>
     </g>
     <g id="text_4">
      <!-- 150 -->
      <g transform="translate(304.41 394.1775) scale(0.16 -0.16)">
       <use xlink:href="#DejaVuSans-31"/>
       <use xlink:href="#DejaVuSans-35" transform="translate(63.623047 0)"/>
       <use xlink:href="#DejaVuSans-30" transform="translate(127.246094 0)"/>
      </g>
     </g>
    </g>
    <g id="xtick_5">
     <g id="line2d_5">
      <g>
       <use xlink:href="#m958fa0e17c" x="392.116364" y="371.52" style="stroke: #000000; stroke-width: 1.28"/>
      </g>
     </g>
     <g id="text_5">
      <!-- 200 -->
      <g transform="translate(376.846364 394.1775) scale(0.16 -0.16)">
       <defs>
        <path id="DejaVuSans-32" d="M 1228 531 
L 3431 531 
L 3431 0 
L 469 0 
L 469 531 
Q 828 903 1448 1529 
Q 2069 2156 2228 2338 
Q 2531 2678 2651 2914 
Q 2772 3150 2772 3378 
Q 2772 3750 2511 3984 
Q 2250 4219 1831 4219 
Q 1534 4219 1204 4116 
Q 875 4013 500 3803 
L 500 4441 
Q 881 4594 1212 4672 
Q 1544 4750 1819 4750 
Q 2544 4750 2975 4387 
Q 3406 4025 3406 3419 
Q 3406 3131 3298 2873 
Q 3191 2616 2906 2266 
Q 2828 2175 2409 1742 
Q 1991 1309 1228 531 
z
" transform="scale(0.015625)"/>
       </defs>
       <use xlink:href="#DejaVuSans-32"/>
       <use xlink:href="#DejaVuSans-30" transform="translate(63.623047 0)"/>
       <use xlink:href="#DejaVuSans-30" transform="translate(127.246094 0)"/>
      </g>
     </g>
    </g>
    <g id="xtick_6">
     <g id="line2d_6">
      <g>
       <use xlink:href="#m958fa0e17c" x="464.552727" y="371.52" style="stroke: #000000; stroke-width: 1.28"/>
      </g>
     </g>
     <g id="text_6">
      <!-- 250 -->
      <g transform="translate(449.282727 394.1775) scale(0.16 -0.16)">
       <use xlink:href="#DejaVuSans-32"/>
       <use xlink:href="#DejaVuSans-35" transform="translate(63.623047 0)"/>
       <use xlink:href="#DejaVuSans-30" transform="translate(127.246094 0)"/>
      </g>
     </g>
    </g>
    <g id="xtick_7">
     <g id="line2d_7">
      <g>
       <use xlink:href="#m958fa0e17c" x="536.989091" y="371.52" style="stroke: #000000; stroke-width: 1.28"/>
      </g>
     </g>
     <g id="text_7">
      <!-- 300 -->
      <g transform="translate(521.719091 394.1775) scale(0.16 -0.16)">
       <defs>
        <path id="DejaVuSans-33" d="M 2597 2516 
Q 3050 2419 3304 2112 
Q 3559 1806 3559 1356 
Q 3559 666 3084 287 
Q 2609 -91 1734 -91 
Q 1441 -91 1130 -33 
Q 819 25 488 141 
L 488 750 
Q 750 597 1062 519 
Q 1375 441 1716 441 
Q 2309 441 2620 675 
Q 2931 909 2931 1356 
Q 2931 1769 2642 2001 
Q 2353 2234 1838 2234 
L 1294 2234 
L 1294 2753 
L 1863 2753 
Q 2328 2753 2575 2939 
Q 2822 3125 2822 3475 
Q 2822 3834 2567 4026 
Q 2313 4219 1838 4219 
Q 1578 4219 1281 4162 
Q 984 4106 628 3988 
L 628 4550 
Q 988 4650 1302 4700 
Q 1616 4750 1894 4750 
Q 2613 4750 3031 4423 
Q 3450 4097 3450 3541 
Q 3450 3153 3228 2886 
Q 3006 2619 2597 2516 
z
" transform="scale(0.015625)"/>
       </defs>
       <use xlink:href="#DejaVuSans-33"/>
       <use xlink:href="#DejaVuSans-30" transform="translate(63.623047 0)"/>
       <use xlink:href="#DejaVuSans-30" transform="translate(127.246094 0)"/>
      </g>
     </g>
    </g>
    <g id="text_8">
     <!-- Thickness of Fe MRL [Å] -->
     <g transform="translate(224.54375 415.14) scale(0.16 -0.16)">
      <defs>
       <path id="DejaVuSans-54" d="M -19 4666 
L 3928 4666 
L 3928 4134 
L 2272 4134 
L 2272 0 
L 1638 0 
L 1638 4134 
L -19 4134 
L -19 4666 
z
" transform="scale(0.015625)"/>
       <path id="DejaVuSans-68" d="M 3513 2113 
L 3513 0 
L 2938 0 
L 2938 2094 
Q 2938 2591 2744 2837 
Q 2550 3084 2163 3084 
Q 1697 3084 1428 2787 
Q 1159 2491 1159 1978 
L 1159 0 
L 581 0 
L 581 4863 
L 1159 4863 
L 1159 2956 
Q 1366 3272 1645 3428 
Q 1925 3584 2291 3584 
Q 2894 3584 3203 3211 
Q 3513 2838 3513 2113 
z
" transform="scale(0.015625)"/>
       <path id="DejaVuSans-69" d="M 603 3500 
L 1178 3500 
L 1178 0 
L 603 0 
L 603 3500 
z
M 603 4863 
L 1178 4863 
L 1178 4134 
L 603 4134 
L 603 4863 
z
" transform="scale(0.015625)"/>
       <path id="DejaVuSans-63" d="M 3122 3366 
L 3122 2828 
Q 2878 2963 2633 3030 
Q 2388 3097 2138 3097 
Q 1578 3097 1268 2742 
Q 959 2388 959 1747 
Q 959 1106 1268 751 
Q 1578 397 2138 397 
Q 2388 397 2633 464 
Q 2878 531 3122 666 
L 3122 134 
Q 2881 22 2623 -34 
Q 2366 -91 2075 -91 
Q 1284 -91 818 406 
Q 353 903 353 1747 
Q 353 2603 823 3093 
Q 1294 3584 2113 3584 
Q 2378 3584 2631 3529 
Q 2884 3475 3122 3366 
z
" transform="scale(0.015625)"/>
       <path id="DejaVuSans-6b" d="M 581 4863 
L 1159 4863 
L 1159 1991 
L 2875 3500 
L 3609 3500 
L 1753 1863 
L 3688 0 
L 2938 0 
L 1159 1709 
L 1159 0 
L 581 0 
L 581 4863 
z
" transform="scale(0.015625)"/>
       <path id="DejaVuSans-6e" d="M 3513 2113 
L 3513 0 
L 2938 0 
L 2938 2094 
Q 2938 2591 2744 2837 
Q 2550 3084 2163 3084 
Q 1697 3084 1428 2787 
Q 1159 2491 1159 1978 
L 1159 0 
L 581 0 
L 581 3500 
L 1159 3500 
L 1159 2956 
Q 1366 3272 1645 3428 
Q 1925 3584 2291 3584 
Q 2894 3584 3203 3211 
Q 3513 2838 3513 2113 
z
" transform="scale(0.015625)"/>
       <path id="DejaVuSans-65" d="M 3597 1894 
L 3597 1613 
L 953 1613 
Q 991 1019 1311 708 
Q 1631 397 2203 397 
Q 2534 397 2845 478 
Q 3156 559 3463 722 
L 3463 178 
Q 3153 47 2828 -22 
Q 2503 -91 2169 -91 
Q 1331 -91 842 396 
Q 353 884 353 1716 
Q 353 2575 817 3079 
Q 1281 3584 2069 3584 
Q 2775 3584 3186 3129 
Q 3597 2675 3597 1894 
z
M 3022 2063 
Q 3016 2534 2758 2815 
Q 2500 3097 2075 3097 
Q 1594 3097 1305 2825 
Q 1016 2553 972 2059 
L 3022 2063 
z
" transform="scale(0.015625)"/>
       <path id="DejaVuSans-73" d="M 2834 3397 
L 2834 2853 
Q 2591 2978 2328 3040 
Q 2066 3103 1784 3103 
Q 1356 3103 1142 2972 
Q 928 2841 928 2578 
Q 928 2378 1081 2264 
Q 1234 2150 1697 2047 
L 1894 2003 
Q 2506 1872 2764 1633 
Q 3022 1394 3022 966 
Q 3022 478 2636 193 
Q 2250 -91 1575 -91 
Q 1294 -91 989 -36 
Q 684 19 347 128 
L 347 722 
Q 666 556 975 473 
Q 1284 391 1588 391 
Q 1994 391 2212 530 
Q 2431 669 2431 922 
Q 2431 1156 2273 1281 
Q 2116 1406 1581 1522 
L 1381 1569 
Q 847 1681 609 1914 
Q 372 2147 372 2553 
Q 372 3047 722 3315 
Q 1072 3584 1716 3584 
Q 2034 3584 2315 3537 
Q 2597 3491 2834 3397 
z
" transform="scale(0.015625)"/>
       <path id="DejaVuSans-20" transform="scale(0.015625)"/>
       <path id="DejaVuSans-6f" d="M 1959 3097 
Q 1497 3097 1228 2736 
Q 959 2375 959 1747 
Q 959 1119 1226 758 
Q 1494 397 1959 397 
Q 2419 397 2687 759 
Q 2956 1122 2956 1747 
Q 2956 2369 2687 2733 
Q 2419 3097 1959 3097 
z
M 1959 3584 
Q 2709 3584 3137 3096 
Q 3566 2609 3566 1747 
Q 3566 888 3137 398 
Q 2709 -91 1959 -91 
Q 1206 -91 779 398 
Q 353 888 353 1747 
Q 353 2609 779 3096 
Q 1206 3584 1959 3584 
z
" transform="scale(0.015625)"/>
       <path id="DejaVuSans-66" d="M 2375 4863 
L 2375 4384 
L 1825 4384 
Q 1516 4384 1395 4259 
Q 1275 4134 1275 3809 
L 1275 3500 
L 2222 3500 
L 2222 3053 
L 1275 3053 
L 1275 0 
L 697 0 
L 697 3053 
L 147 3053 
L 147 3500 
L 697 3500 
L 697 3744 
Q 697 4328 969 4595 
Q 1241 4863 1831 4863 
L 2375 4863 
z
" transform="scale(0.015625)"/>
       <path id="DejaVuSans-46" d="M 628 4666 
L 3309 4666 
L 3309 4134 
L 1259 4134 
L 1259 2759 
L 3109 2759 
L 3109 2228 
L 1259 2228 
L 1259 0 
L 628 0 
L 628 4666 
z
" transform="scale(0.015625)"/>
       <path id="DejaVuSans-4d" d="M 628 4666 
L 1569 4666 
L 2759 1491 
L 3956 4666 
L 4897 4666 
L 4897 0 
L 4281 0 
L 4281 4097 
L 3078 897 
L 2444 897 
L 1241 4097 
L 1241 0 
L 628 0 
L 628 4666 
z
" transform="scale(0.015625)"/>
       <path id="DejaVuSans-52" d="M 2841 2188 
Q 3044 2119 3236 1894 
Q 3428 1669 3622 1275 
L 4263 0 
L 3584 0 
L 2988 1197 
Q 2756 1666 2539 1819 
Q 2322 1972 1947 1972 
L 1259 1972 
L 1259 0 
L 628 0 
L 628 4666 
L 2053 4666 
Q 2853 4666 3247 4331 
Q 3641 3997 3641 3322 
Q 3641 2881 3436 2590 
Q 3231 2300 2841 2188 
z
M 1259 4147 
L 1259 2491 
L 2053 2491 
Q 2509 2491 2742 2702 
Q 2975 2913 2975 3322 
Q 2975 3731 2742 3939 
Q 2509 4147 2053 4147 
L 1259 4147 
z
" transform="scale(0.015625)"/>
       <path id="DejaVuSans-4c" d="M 628 4666 
L 1259 4666 
L 1259 531 
L 3531 531 
L 3531 0 
L 628 0 
L 628 4666 
z
" transform="scale(0.015625)"/>
       <path id="DejaVuSans-5b" d="M 550 4863 
L 1875 4863 
L 1875 4416 
L 1125 4416 
L 1125 -397 
L 1875 -397 
L 1875 -844 
L 550 -844 
L 550 4863 
z
" transform="scale(0.015625)"/>
       <path id="DejaVuSans-c5" d="M 2663 5081 
Q 2663 5278 2523 5417 
Q 2384 5556 2188 5556 
Q 1988 5556 1852 5420 
Q 1716 5284 1716 5081 
Q 1716 4884 1853 4746 
Q 1991 4609 2188 4609 
Q 2384 4609 2523 4746 
Q 2663 4884 2663 5081 
z
M 2188 4044 
L 1338 1722 
L 3041 1722 
L 2188 4044 
z
M 1716 4366 
Q 1525 4494 1428 4673 
Q 1331 4853 1331 5081 
Q 1331 5441 1579 5691 
Q 1828 5941 2188 5941 
Q 2544 5941 2795 5689 
Q 3047 5438 3047 5081 
Q 3047 4863 2948 4678 
Q 2850 4494 2663 4366 
L 4325 0 
L 3669 0 
L 3244 1197 
L 1141 1197 
L 716 0 
L 50 0 
L 1716 4366 
z
" transform="scale(0.015625)"/>
       <path id="DejaVuSans-5d" d="M 1947 4863 
L 1947 -844 
L 622 -844 
L 622 -397 
L 1369 -397 
L 1369 4416 
L 622 4416 
L 622 4863 
L 1947 4863 
z
" transform="scale(0.015625)"/>
      </defs>
      <use xlink:href="#DejaVuSans-54"/>
      <use xlink:href="#DejaVuSans-68" transform="translate(61.083984 0)"/>
      <use xlink:href="#DejaVuSans-69" transform="translate(124.462891 0)"/>
      <use xlink:href="#DejaVuSans-63" transform="translate(152.246094 0)"/>
      <use xlink:href="#DejaVuSans-6b" transform="translate(207.226562 0)"/>
      <use xlink:href="#DejaVuSans-6e" transform="translate(265.136719 0)"/>
      <use xlink:href="#DejaVuSans-65" transform="translate(328.515625 0)"/>
      <use xlink:href="#DejaVuSans-73" transform="translate(390.039062 0)"/>
      <use xlink:href="#DejaVuSans-73" transform="translate(442.138672 0)"/>
      <use xlink:href="#DejaVuSans-20" transform="translate(494.238281 0)"/>
      <use xlink:href="#DejaVuSans-6f" transform="translate(526.025391 0)"/>
      <use xlink:href="#DejaVuSans-66" transform="translate(587.207031 0)"/>
      <use xlink:href="#DejaVuSans-20" transform="translate(622.412109 0)"/>
      <use xlink:href="#DejaVuSans-46" transform="translate(654.199219 0)"/>
      <use xlink:href="#DejaVuSans-65" transform="translate(706.21875 0)"/>
      <use xlink:href="#DejaVuSans-20" transform="translate(767.742188 0)"/>
      <use xlink:href="#DejaVuSans-4d" transform="translate(799.529297 0)"/>
      <use xlink:href="#DejaVuSans-52" transform="translate(885.808594 0)"/>
      <use xlink:href="#DejaVuSans-4c" transform="translate(955.291016 0)"/>
      <use xlink:href="#DejaVuSans-20" transform="translate(1011.003906 0)"/>
      <use xlink:href="#DejaVuSans-5b" transform="translate(1042.791016 0)"/>
      <use xlink:href="#DejaVuSans-c5" transform="translate(1081.804688 0)"/>
      <use xlink:href="#DejaVuSans-5d" transform="translate(1150.212891 0)"/>
     </g>
    </g>
   </g>
   <g id="matplotlib.axis_2">
    <g id="ytick_1">
     <g id="line2d_8">
      <defs>
       <path id="m626ba00c15" d="M 0 0 
L -7 0 
" style="stroke: #000000; stroke-width: 1.28"/>
      </defs>
      <g>
       <use xlink:href="#m626ba00c15" x="80.64" y="371.52" style="stroke: #000000; stroke-width: 1.28"/>
      </g>
     </g>
     <g id="text_9">
      <!-- $\mathdefault{0}$ -->
      <g transform="translate(59.9 377.59875) scale(0.16 -0.16)">
       <use xlink:href="#DejaVuSans-30" transform="translate(0 0.78125)"/>
      </g>
     </g>
    </g>
    <g id="ytick_2">
     <g id="line2d_9">
      <g>
       <use xlink:href="#m626ba00c15" x="80.64" y="314.327535" style="stroke: #000000; stroke-width: 1.28"/>
      </g>
     </g>
     <g id="text_10">
      <!-- $\mathdefault{2}$ -->
      <g transform="translate(59.9 320.406285) scale(0.16 -0.16)">
       <use xlink:href="#DejaVuSans-32" transform="translate(0 0.78125)"/>
      </g>
     </g>
    </g>
    <g id="ytick_3">
     <g id="line2d_10">
      <g>
       <use xlink:href="#m626ba00c15" x="80.64" y="257.135069" style="stroke: #000000; stroke-width: 1.28"/>
      </g>
     </g>
     <g id="text_11">
      <!-- $\mathdefault{4}$ -->
      <g transform="translate(59.9 263.213819) scale(0.16 -0.16)">
       <defs>
        <path id="DejaVuSans-34" d="M 2419 4116 
L 825 1625 
L 2419 1625 
L 2419 4116 
z
M 2253 4666 
L 3047 4666 
L 3047 1625 
L 3713 1625 
L 3713 1100 
L 3047 1100 
L 3047 0 
L 2419 0 
L 2419 1100 
L 313 1100 
L 313 1709 
L 2253 4666 
z
" transform="scale(0.015625)"/>
       </defs>
       <use xlink:href="#DejaVuSans-34" transform="translate(0 0.09375)"/>
      </g>
     </g>
    </g>
    <g id="ytick_4">
     <g id="line2d_11">
      <g>
       <use xlink:href="#m626ba00c15" x="80.64" y="199.942604" style="stroke: #000000; stroke-width: 1.28"/>
      </g>
     </g>
     <g id="text_12">
      <!-- $\mathdefault{6}$ -->
      <g transform="translate(59.9 206.021354) scale(0.16 -0.16)">
       <defs>
        <path id="DejaVuSans-36" d="M 2113 2584 
Q 1688 2584 1439 2293 
Q 1191 2003 1191 1497 
Q 1191 994 1439 701 
Q 1688 409 2113 409 
Q 2538 409 2786 701 
Q 3034 994 3034 1497 
Q 3034 2003 2786 2293 
Q 2538 2584 2113 2584 
z
M 3366 4563 
L 3366 3988 
Q 3128 4100 2886 4159 
Q 2644 4219 2406 4219 
Q 1781 4219 1451 3797 
Q 1122 3375 1075 2522 
Q 1259 2794 1537 2939 
Q 1816 3084 2150 3084 
Q 2853 3084 3261 2657 
Q 3669 2231 3669 1497 
Q 3669 778 3244 343 
Q 2819 -91 2113 -91 
Q 1303 -91 875 529 
Q 447 1150 447 2328 
Q 447 3434 972 4092 
Q 1497 4750 2381 4750 
Q 2619 4750 2861 4703 
Q 3103 4656 3366 4563 
z
" transform="scale(0.015625)"/>
       </defs>
       <use xlink:href="#DejaVuSans-36" transform="translate(0 0.78125)"/>
      </g>
     </g>
    </g>
    <g id="ytick_5">
     <g id="line2d_12">
      <g>
       <use xlink:href="#m626ba00c15" x="80.64" y="142.750138" style="stroke: #000000; stroke-width: 1.28"/>
      </g>
     </g>
     <g id="text_13">
      <!-- $\mathdefault{8}$ -->
      <g transform="translate(59.9 148.828888) scale(0.16 -0.16)">
       <defs>
        <path id="DejaVuSans-38" d="M 2034 2216 
Q 1584 2216 1326 1975 
Q 1069 1734 1069 1313 
Q 1069 891 1326 650 
Q 1584 409 2034 409 
Q 2484 409 2743 651 
Q 3003 894 3003 1313 
Q 3003 1734 2745 1975 
Q 2488 2216 2034 2216 
z
M 1403 2484 
Q 997 2584 770 2862 
Q 544 3141 544 3541 
Q 544 4100 942 4425 
Q 1341 4750 2034 4750 
Q 2731 4750 3128 4425 
Q 3525 4100 3525 3541 
Q 3525 3141 3298 2862 
Q 3072 2584 2669 2484 
Q 3125 2378 3379 2068 
Q 3634 1759 3634 1313 
Q 3634 634 3220 271 
Q 2806 -91 2034 -91 
Q 1263 -91 848 271 
Q 434 634 434 1313 
Q 434 1759 690 2068 
Q 947 2378 1403 2484 
z
M 1172 3481 
Q 1172 3119 1398 2916 
Q 1625 2713 2034 2713 
Q 2441 2713 2670 2916 
Q 2900 3119 2900 3481 
Q 2900 3844 2670 4047 
Q 2441 4250 2034 4250 
Q 1625 4250 1398 4047 
Q 1172 3844 1172 3481 
z
" transform="scale(0.015625)"/>
       </defs>
       <use xlink:href="#DejaVuSans-38" transform="translate(0 0.78125)"/>
      </g>
     </g>
    </g>
    <g id="ytick_6">
     <g id="line2d_13">
      <g>
       <use xlink:href="#m626ba00c15" x="80.64" y="85.557673" style="stroke: #000000; stroke-width: 1.28"/>
      </g>
     </g>
     <g id="text_14">
      <!-- $\mathdefault{10}$ -->
      <g transform="translate(49.66 91.636423) scale(0.16 -0.16)">
       <use xlink:href="#DejaVuSans-31" transform="translate(0 0.78125)"/>
       <use xlink:href="#DejaVuSans-30" transform="translate(63.623047 0.78125)"/>
      </g>
     </g>
    </g>
    <g id="ytick_7">
     <g id="line2d_14">
      <g>
       <use xlink:href="#m626ba00c15" x="80.64" y="28.365208" style="stroke: #000000; stroke-width: 1.28"/>
      </g>
     </g>
     <g id="text_15">
      <!-- $\mathdefault{12}$ -->
      <g transform="translate(49.66 34.443958) scale(0.16 -0.16)">
       <use xlink:href="#DejaVuSans-31" transform="translate(0 0.78125)"/>
       <use xlink:href="#DejaVuSans-32" transform="translate(63.623047 0.78125)"/>
      </g>
     </g>
    </g>
    <g id="text_16">
     <!-- Information metric [$\times\mathdefault{10^{−3}}\mathdefault{}$ arb. units] -->
     <g transform="translate(42.3325 341.84) rotate(-90) scale(0.16 -0.16)">
      <defs>
       <path id="DejaVuSans-49" d="M 628 4666 
L 1259 4666 
L 1259 0 
L 628 0 
L 628 4666 
z
" transform="scale(0.015625)"/>
       <path id="DejaVuSans-72" d="M 2631 2963 
Q 2534 3019 2420 3045 
Q 2306 3072 2169 3072 
Q 1681 3072 1420 2755 
Q 1159 2438 1159 1844 
L 1159 0 
L 581 0 
L 581 3500 
L 1159 3500 
L 1159 2956 
Q 1341 3275 1631 3429 
Q 1922 3584 2338 3584 
Q 2397 3584 2469 3576 
Q 2541 3569 2628 3553 
L 2631 2963 
z
" transform="scale(0.015625)"/>
       <path id="DejaVuSans-6d" d="M 3328 2828 
Q 3544 3216 3844 3400 
Q 4144 3584 4550 3584 
Q 5097 3584 5394 3201 
Q 5691 2819 5691 2113 
L 5691 0 
L 5113 0 
L 5113 2094 
Q 5113 2597 4934 2840 
Q 4756 3084 4391 3084 
Q 3944 3084 3684 2787 
Q 3425 2491 3425 1978 
L 3425 0 
L 2847 0 
L 2847 2094 
Q 2847 2600 2669 2842 
Q 2491 3084 2119 3084 
Q 1678 3084 1418 2786 
Q 1159 2488 1159 1978 
L 1159 0 
L 581 0 
L 581 3500 
L 1159 3500 
L 1159 2956 
Q 1356 3278 1631 3431 
Q 1906 3584 2284 3584 
Q 2666 3584 2933 3390 
Q 3200 3197 3328 2828 
z
" transform="scale(0.015625)"/>
       <path id="DejaVuSans-61" d="M 2194 1759 
Q 1497 1759 1228 1600 
Q 959 1441 959 1056 
Q 959 750 1161 570 
Q 1363 391 1709 391 
Q 2188 391 2477 730 
Q 2766 1069 2766 1631 
L 2766 1759 
L 2194 1759 
z
M 3341 1997 
L 3341 0 
L 2766 0 
L 2766 531 
Q 2569 213 2275 61 
Q 1981 -91 1556 -91 
Q 1019 -91 701 211 
Q 384 513 384 1019 
Q 384 1609 779 1909 
Q 1175 2209 1959 2209 
L 2766 2209 
L 2766 2266 
Q 2766 2663 2505 2880 
Q 2244 3097 1772 3097 
Q 1472 3097 1187 3025 
Q 903 2953 641 2809 
L 641 3341 
Q 956 3463 1253 3523 
Q 1550 3584 1831 3584 
Q 2591 3584 2966 3190 
Q 3341 2797 3341 1997 
z
" transform="scale(0.015625)"/>
       <path id="DejaVuSans-74" d="M 1172 4494 
L 1172 3500 
L 2356 3500 
L 2356 3053 
L 1172 3053 
L 1172 1153 
Q 1172 725 1289 603 
Q 1406 481 1766 481 
L 2356 481 
L 2356 0 
L 1766 0 
Q 1100 0 847 248 
Q 594 497 594 1153 
L 594 3053 
L 172 3053 
L 172 3500 
L 594 3500 
L 594 4494 
L 1172 4494 
z
" transform="scale(0.015625)"/>
       <path id="DejaVuSans-d7" d="M 4488 3438 
L 3059 2003 
L 4488 575 
L 4116 197 
L 2681 1631 
L 1247 197 
L 878 575 
L 2303 2003 
L 878 3438 
L 1247 3816 
L 2681 2381 
L 4116 3816 
L 4488 3438 
z
" transform="scale(0.015625)"/>
       <path id="DejaVuSans-2212" d="M 678 2272 
L 4684 2272 
L 4684 1741 
L 678 1741 
L 678 2272 
z
" transform="scale(0.015625)"/>
       <path id="DejaVuSans-62" d="M 3116 1747 
Q 3116 2381 2855 2742 
Q 2594 3103 2138 3103 
Q 1681 3103 1420 2742 
Q 1159 2381 1159 1747 
Q 1159 1113 1420 752 
Q 1681 391 2138 391 
Q 2594 391 2855 752 
Q 3116 1113 3116 1747 
z
M 1159 2969 
Q 1341 3281 1617 3432 
Q 1894 3584 2278 3584 
Q 2916 3584 3314 3078 
Q 3713 2572 3713 1747 
Q 3713 922 3314 415 
Q 2916 -91 2278 -91 
Q 1894 -91 1617 61 
Q 1341 213 1159 525 
L 1159 0 
L 581 0 
L 581 4863 
L 1159 4863 
L 1159 2969 
z
" transform="scale(0.015625)"/>
       <path id="DejaVuSans-2e" d="M 684 794 
L 1344 794 
L 1344 0 
L 684 0 
L 684 794 
z
" transform="scale(0.015625)"/>
       <path id="DejaVuSans-75" d="M 544 1381 
L 544 3500 
L 1119 3500 
L 1119 1403 
Q 1119 906 1312 657 
Q 1506 409 1894 409 
Q 2359 409 2629 706 
Q 2900 1003 2900 1516 
L 2900 3500 
L 3475 3500 
L 3475 0 
L 2900 0 
L 2900 538 
Q 2691 219 2414 64 
Q 2138 -91 1772 -91 
Q 1169 -91 856 284 
Q 544 659 544 1381 
z
M 1991 3584 
L 1991 3584 
z
" transform="scale(0.015625)"/>
      </defs>
      <use xlink:href="#DejaVuSans-49" transform="translate(0 0.765625)"/>
      <use xlink:href="#DejaVuSans-6e" transform="translate(29.492188 0.765625)"/>
      <use xlink:href="#DejaVuSans-66" transform="translate(92.871094 0.765625)"/>
      <use xlink:href="#DejaVuSans-6f" transform="translate(128.076172 0.765625)"/>
      <use xlink:href="#DejaVuSans-72" transform="translate(189.257812 0.765625)"/>
      <use xlink:href="#DejaVuSans-6d" transform="translate(230.371094 0.765625)"/>
      <use xlink:href="#DejaVuSans-61" transform="translate(327.783203 0.765625)"/>
      <use xlink:href="#DejaVuSans-74" transform="translate(389.0625 0.765625)"/>
      <use xlink:href="#DejaVuSans-69" transform="translate(428.271484 0.765625)"/>
      <use xlink:href="#DejaVuSans-6f" transform="translate(456.054688 0.765625)"/>
      <use xlink:href="#DejaVuSans-6e" transform="translate(517.236328 0.765625)"/>
      <use xlink:href="#DejaVuSans-20" transform="translate(580.615234 0.765625)"/>
      <use xlink:href="#DejaVuSans-6d" transform="translate(612.402344 0.765625)"/>
      <use xlink:href="#DejaVuSans-65" transform="translate(709.814453 0.765625)"/>
      <use xlink:href="#DejaVuSans-74" transform="translate(771.337891 0.765625)"/>
      <use xlink:href="#DejaVuSans-72" transform="translate(810.546875 0.765625)"/>
      <use xlink:href="#DejaVuSans-69" transform="translate(851.660156 0.765625)"/>
      <use xlink:href="#DejaVuSans-63" transform="translate(879.443359 0.765625)"/>
      <use xlink:href="#DejaVuSans-20" transform="translate(934.423828 0.765625)"/>
      <use xlink:href="#DejaVuSans-5b" transform="translate(966.210938 0.765625)"/>
      <use xlink:href="#DejaVuSans-d7" transform="translate(1005.224609 0.765625)"/>
      <use xlink:href="#DejaVuSans-31" transform="translate(1089.013672 0.765625)"/>
      <use xlink:href="#DejaVuSans-30" transform="translate(1152.636719 0.765625)"/>
      <use xlink:href="#DejaVuSans-2212" transform="translate(1217.216797 39.046875) scale(0.7)"/>
      <use xlink:href="#DejaVuSans-33" transform="translate(1275.869141 39.046875) scale(0.7)"/>
      <use xlink:href="#DejaVuSans-20" transform="translate(1323.139648 0.765625)"/>
      <use xlink:href="#DejaVuSans-61" transform="translate(1354.926758 0.765625)"/>
      <use xlink:href="#DejaVuSans-72" transform="translate(1416.206055 0.765625)"/>
      <use xlink:href="#DejaVuSans-62" transform="translate(1457.319336 0.765625)"/>
      <use xlink:href="#DejaVuSans-2e" transform="translate(1520.795898 0.765625)"/>
      <use xlink:href="#DejaVuSans-20" transform="translate(1552.583008 0.765625)"/>
      <use xlink:href="#DejaVuSans-75" transform="translate(1584.370117 0.765625)"/>
      <use xlink:href="#DejaVuSans-6e" transform="translate(1647.749023 0.765625)"/>
      <use xlink:href="#DejaVuSans-69" transform="translate(1711.12793 0.765625)"/>
      <use xlink:href="#DejaVuSans-74" transform="translate(1738.911133 0.765625)"/>
      <use xlink:href="#DejaVuSans-73" transform="translate(1778.120117 0.765625)"/>
      <use xlink:href="#DejaVuSans-5d" transform="translate(1830.219727 0.765625)"/>
     </g>
    </g>
   </g>
   <g id="line2d_15">
    <path d="M 102.370909 268.464615 
L 104.55492 282.094129 
L 106.738931 241.026694 
L 108.922942 177.92867 
L 111.106953 123.226703 
L 113.290964 83.370737 
L 115.474975 56.276764 
L 117.658986 39.483024 
L 119.842997 31.164408 
L 122.027008 30.034286 
L 124.211019 35.31683 
L 126.39503 44.477457 
L 128.579041 56.861724 
L 130.763052 73.649722 
L 132.947063 93.863048 
L 135.131074 116.653836 
L 139.499095 165.752069 
L 141.683106 187.343906 
L 143.867117 199.901448 
L 146.051128 198.231337 
L 148.235139 182.444742 
L 150.41915 157.606298 
L 152.603161 130.428482 
L 154.787172 105.95071 
L 156.971183 86.702454 
L 159.155194 73.479428 
L 161.339205 66.098958 
L 163.523216 63.781283 
L 165.707227 65.387999 
L 167.891238 69.975413 
L 170.075249 76.94129 
L 172.25926 85.849963 
L 174.443271 96.775973 
L 176.627282 109.446779 
L 178.811293 122.977665 
L 180.995304 135.697707 
L 183.179315 145.562831 
L 185.363326 151.005746 
L 187.547337 151.293015 
L 189.731348 146.994951 
L 191.915359 139.489391 
L 194.09937 130.351687 
L 198.467392 111.400949 
L 200.651402 103.418845 
L 202.835413 97.278353 
L 205.019424 92.772241 
L 207.203435 90.225719 
L 209.387446 89.877788 
L 211.571457 91.804662 
L 213.755468 95.903645 
L 215.939479 101.943505 
L 220.307501 116.645425 
L 222.491512 122.909118 
L 224.675523 127.280804 
L 226.859534 129.530824 
L 229.043545 129.509908 
L 231.227556 126.95153 
L 233.411567 122.430417 
L 237.779589 112.395861 
L 239.9636 107.815578 
L 242.147611 103.900252 
L 244.331622 101.095189 
L 246.515633 99.768607 
L 248.699644 100.189883 
L 250.883655 102.182429 
L 253.067666 105.383729 
L 255.251677 109.535925 
L 257.435688 113.933103 
L 259.619698 117.975496 
L 261.803709 120.99154 
L 263.98772 122.828123 
L 266.171731 123.665505 
L 268.355742 123.889678 
L 270.539753 123.587744 
L 272.723764 122.428309 
L 277.091786 117.697987 
L 279.275797 115.804025 
L 281.459808 115.113907 
L 283.643819 114.847432 
L 285.82783 114.806212 
L 290.195852 115.830251 
L 292.379863 117.204015 
L 294.563874 118.833669 
L 298.931896 122.749076 
L 301.115907 124.086957 
L 303.299918 125.195593 
L 305.483929 125.481318 
L 307.66794 125.545799 
L 309.851951 125.917306 
L 312.035962 125.884191 
L 314.219973 126.157567 
L 316.403984 125.470859 
L 318.587995 124.412022 
L 320.772005 123.855192 
L 322.956016 123.061486 
L 325.140027 123.01089 
L 327.324038 123.355172 
L 329.508049 122.922938 
L 331.69206 123.155804 
L 333.876071 124.164878 
L 336.060082 124.414065 
L 338.244093 124.270579 
L 340.428104 124.658349 
L 342.612115 124.733599 
L 344.796126 124.066469 
L 346.980137 124.496001 
L 349.164148 125.850213 
L 351.348159 126.347259 
L 353.53217 127.304996 
L 355.716181 129.44957 
L 357.900192 129.588202 
L 360.084203 127.70834 
L 362.268214 127.087417 
L 364.452225 126.872294 
L 366.636236 125.76381 
L 368.820247 126.200553 
L 371.004258 128.19823 
L 373.188269 128.805004 
L 375.37228 128.263522 
L 377.556291 128.576438 
L 379.740302 129.353589 
L 381.924312 129.364435 
L 384.108323 128.991483 
L 386.292334 129.362166 
L 388.476345 130.627563 
L 390.660356 131.51316 
L 392.844367 131.521679 
L 395.028378 132.493356 
L 397.212389 134.699767 
L 399.3964 135.034471 
L 401.580411 132.65124 
L 403.764422 131.272713 
L 405.948433 131.904264 
L 408.132444 131.365277 
L 410.316455 129.428869 
L 412.500466 129.911664 
L 414.684477 132.636893 
L 416.868488 133.358497 
L 419.052499 132.034989 
L 421.23651 132.797803 
L 423.420521 135.392811 
L 425.604532 135.739918 
L 427.788543 134.163074 
L 429.972554 134.644431 
L 432.156565 136.983386 
L 434.340576 137.227085 
L 436.524587 135.54038 
L 438.708598 135.745988 
L 440.892608 137.915205 
L 443.076619 137.893216 
L 445.26063 134.793159 
L 447.444641 132.908491 
L 449.628652 134.518914 
L 451.812663 136.290325 
L 453.996674 135.077025 
L 456.180685 133.223087 
L 458.364696 134.945265 
L 460.548707 139.202324 
L 462.732718 140.858469 
L 464.916729 138.493911 
L 467.10074 136.439457 
L 469.284751 138.422667 
L 471.468762 141.600823 
L 473.652773 140.944941 
L 475.836784 136.933831 
L 478.020795 135.212616 
L 480.204806 138.522594 
L 482.388817 142.251637 
L 484.572828 141.275274 
L 486.756839 137.027258 
L 488.94085 135.704013 
L 493.308872 142.918997 
L 495.492883 141.774862 
L 497.676894 138.287899 
L 499.860905 138.313333 
L 502.044915 143.04812 
L 504.228926 147.360761 
L 506.412937 146.13951 
L 508.596948 141.461225 
L 510.780959 139.060041 
L 512.96497 141.034999 
L 515.148981 144.052542 
L 517.332992 143.72736 
L 519.517003 140.641551 
L 521.701014 139.00778 
L 523.885025 141.115759 
L 526.069036 144.927512 
L 528.253047 146.396002 
L 530.437058 144.578843 
L 532.621069 141.863161 
L 534.80508 141.179224 
L 536.989091 143.43196 
L 536.989091 143.43196 
" clip-path="url(#pee846cc77f)" style="fill: none; stroke: #1f77b4; stroke-width: 1.5; stroke-linecap: square"/>
   </g>
   <g id="patch_3">
    <path d="M 80.64 371.52 
L 80.64 12.96 
" style="fill: none; stroke: #000000; stroke-width: 1.6; stroke-linejoin: miter; stroke-linecap: square"/>
   </g>
   <g id="patch_4">
    <path d="M 558.72 371.52 
L 558.72 12.96 
" style="fill: none; stroke: #000000; stroke-width: 1.6; stroke-linejoin: miter; stroke-linecap: square"/>
   </g>
   <g id="patch_5">
    <path d="M 80.64 371.52 
L 558.72 371.52 
" style="fill: none; stroke: #000000; stroke-width: 1.6; stroke-linejoin: miter; stroke-linecap: square"/>
   </g>
   <g id="patch_6">
    <path d="M 80.64 12.96 
L 558.72 12.96 
" style="fill: none; stroke: #000000; stroke-width: 1.6; stroke-linejoin: miter; stroke-linecap: square"/>
   </g>
   <g id="line2d_16">
    <path d="M 122.027008 371.52 
L 122.027008 12.96 
" clip-path="url(#pee846cc77f)" style="fill: none; stroke-dasharray: 1.5,2.475; stroke-dashoffset: 0; stroke: #ff0000; stroke-width: 1.5"/>
   </g>
   <g id="line2d_17">
    <path d="M 262.10826 371.52 
L 262.10826 12.96 
" clip-path="url(#pee846cc77f)" style="fill: none; stroke-dasharray: 9.6,2.4,1.5,2.4; stroke-dashoffset: 0; stroke: #0000ff; stroke-width: 1.5"/>
   </g>
  </g>
 </g>
 <defs>
  <clipPath id="pee846cc77f">
   <rect x="80.64" y="12.96" width="478.08" height="358.56"/>
  </clipPath>
 </defs>
</svg>
