<?xml version="1.0" encoding="utf-8" standalone="no"?>
<!DOCTYPE svg PUBLIC "-//W3C//DTD SVG 1.1//EN"
  "http://www.w3.org/Graphics/SVG/1.1/DTD/svg11.dtd">
<svg xmlns:xlink="http://www.w3.org/1999/xlink" width="576pt" height="432pt" viewBox="0 0 576 432" xmlns="http://www.w3.org/2000/svg" version="1.1">
 <metadata>
  <rdf:RDF xmlns:dc="http://purl.org/dc/elements/1.1/" xmlns:cc="http://creativecommons.org/ns#" xmlns:rdf="http://www.w3.org/1999/02/22-rdf-syntax-ns#">
   <cc:Work>
    <dc:type rdf:resource="http://purl.org/dc/dcmitype/StillImage"/>
    <dc:date>2026-03-21T07:24:20.125370</dc:date>
    <dc:format>image/svg+xml</dc:format>
    <dc:creator>
     <cc:Agent>
      <dc:title>Matplotlib v3.10.8, https://matplotlib.org/</dc:title>
     </cc:Agent>
    </dc:creator>
   </cc:Work>
  </rdf:RDF>
 </metadata>
 <defs>
  <style type="text/css">*{stroke-linejoin: round; stroke-linecap: butt}</style>
 </defs>
 <g id="figure_1">
  <g id="patch_1">
   <path d="M 0 432 
L 576 432 
L 576 0 
L 0 0 
z
" style="fill: #ffffff"/>
  </g>
  <g id="axes_1">
   <g id="patch_2">
    <path d="M 80.64 371.52 
L 558.72 371.52 
L 558.72 12.96 
L 80.64 12.96 
z
" style="fill: #ffffff"/>
   </g>
   <g id="matplotlib.axis_1">
    <g id="xtick_1">
     <g id="line2d_1">
      <defs>
       <path id="me434f8125b" d="M 0 0 
L 0 7 
" style="stroke: #000000; stroke-width: 1.28"/>
      </defs>
      <g>
       <use xlink:href="#me434f8125b" x="82.029212" y="371.52" style="stroke: #000000; stroke-width: 1.28"/>
      </g>
     </g>
    </g>
    <g id="xtick_2">
     <g id="line2d_2">
      <g>
       <use xlink:href="#me434f8125b" x="140.148347" y="371.52" style="stroke: #000000; stroke-width: 1.28"/>
      </g>
     </g>
     <g id="text_1">
      <!-- 0 -->
      <g transform="translate(135.058347 394.1775) scale(0.16 -0.16)">
       <defs>
        <path id="DejaVuSans-30" d="M 2034 4250 
Q 1547 4250 1301 3770 
Q 1056 3291 1056 2328 
Q 1056 1369 1301 889 
Q 1547 409 2034 409 
Q 2525 409 2770 889 
Q 3016 1369 3016 2328 
Q 3016 3291 2770 3770 
Q 2525 4250 2034 4250 
z
M 2034 4750 
Q 2819 4750 3233 4129 
Q 3647 3509 3647 2328 
Q 3647 1150 3233 529 
Q 2819 -91 2034 -91 
Q 1250 -91 836 529 
Q 422 1150 422 2328 
Q 422 3509 836 4129 
Q 1250 4750 2034 4750 
z
" transform="scale(0.015625)"/>
       </defs>
       <use xlink:href="#DejaVuSans-30"/>
      </g>
     </g>
    </g>
    <g id="xtick_3">
     <g id="line2d_3">
      <g>
       <use xlink:href="#me434f8125b" x="198.267482" y="371.52" style="stroke: #000000; stroke-width: 1.28"/>
      </g>
     </g>
     <g id="text_2">
      <!-- 20 -->
      <g transform="translate(188.087482 394.1775) scale(0.16 -0.16)">
       <defs>
        <path id="DejaVuSans-32" d="M 1228 531 
L 3431 531 
L 3431 0 
L 469 0 
L 469 531 
Q 828 903 1448 1529 
Q 2069 2156 2228 2338 
Q 2531 2678 2651 2914 
Q 2772 3150 2772 3378 
Q 2772 3750 2511 3984 
Q 2250 4219 1831 4219 
Q 1534 4219 1204 4116 
Q 875 4013 500 3803 
L 500 4441 
Q 881 4594 1212 4672 
Q 1544 4750 1819 4750 
Q 2544 4750 2975 4387 
Q 3406 4025 3406 3419 
Q 3406 3131 3298 2873 
Q 3191 2616 2906 2266 
Q 2828 2175 2409 1742 
Q 1991 1309 1228 531 
z
" transform="scale(0.015625)"/>
       </defs>
       <use xlink:href="#DejaVuSans-32"/>
       <use xlink:href="#DejaVuSans-30" transform="translate(63.623047 0)"/>
      </g>
     </g>
    </g>
    <g id="xtick_4">
     <g id="line2d_4">
      <g>
       <use xlink:href="#me434f8125b" x="256.386617" y="371.52" style="stroke: #000000; stroke-width: 1.28"/>
      </g>
     </g>
     <g id="text_3">
      <!-- 40 -->
      <g transform="translate(246.206617 394.1775) scale(0.16 -0.16)">
       <defs>
        <path id="DejaVuSans-34" d="M 2419 4116 
L 825 1625 
L 2419 1625 
L 2419 4116 
z
M 2253 4666 
L 3047 4666 
L 3047 1625 
L 3713 1625 
L 3713 1100 
L 3047 1100 
L 3047 0 
L 2419 0 
L 2419 1100 
L 313 1100 
L 313 1709 
L 2253 4666 
z
" transform="scale(0.015625)"/>
       </defs>
       <use xlink:href="#DejaVuSans-34"/>
       <use xlink:href="#DejaVuSans-30" transform="translate(63.623047 0)"/>
      </g>
     </g>
    </g>
    <g id="xtick_5">
     <g id="line2d_5">
      <g>
       <use xlink:href="#me434f8125b" x="314.505752" y="371.52" style="stroke: #000000; stroke-width: 1.28"/>
      </g>
     </g>
     <g id="text_4">
      <!-- 60 -->
      <g transform="translate(304.325752 394.1775) scale(0.16 -0.16)">
       <defs>
        <path id="DejaVuSans-36" d="M 2113 2584 
Q 1688 2584 1439 2293 
Q 1191 2003 1191 1497 
Q 1191 994 1439 701 
Q 1688 409 2113 409 
Q 2538 409 2786 701 
Q 3034 994 3034 1497 
Q 3034 2003 2786 2293 
Q 2538 2584 2113 2584 
z
M 3366 4563 
L 3366 3988 
Q 3128 4100 2886 4159 
Q 2644 4219 2406 4219 
Q 1781 4219 1451 3797 
Q 1122 3375 1075 2522 
Q 1259 2794 1537 2939 
Q 1816 3084 2150 3084 
Q 2853 3084 3261 2657 
Q 3669 2231 3669 1497 
Q 3669 778 3244 343 
Q 2819 -91 2113 -91 
Q 1303 -91 875 529 
Q 447 1150 447 2328 
Q 447 3434 972 4092 
Q 1497 4750 2381 4750 
Q 2619 4750 2861 4703 
Q 3103 4656 3366 4563 
z
" transform="scale(0.015625)"/>
       </defs>
       <use xlink:href="#DejaVuSans-36"/>
       <use xlink:href="#DejaVuSans-30" transform="translate(63.623047 0)"/>
      </g>
     </g>
    </g>
    <g id="xtick_6">
     <g id="line2d_6">
      <g>
       <use xlink:href="#me434f8125b" x="372.624887" y="371.52" style="stroke: #000000; stroke-width: 1.28"/>
      </g>
     </g>
     <g id="text_5">
      <!-- 80 -->
      <g transform="translate(362.444887 394.1775) scale(0.16 -0.16)">
       <defs>
        <path id="DejaVuSans-38" d="M 2034 2216 
Q 1584 2216 1326 1975 
Q 1069 1734 1069 1313 
Q 1069 891 1326 650 
Q 1584 409 2034 409 
Q 2484 409 2743 651 
Q 3003 894 3003 1313 
Q 3003 1734 2745 1975 
Q 2488 2216 2034 2216 
z
M 1403 2484 
Q 997 2584 770 2862 
Q 544 3141 544 3541 
Q 544 4100 942 4425 
Q 1341 4750 2034 4750 
Q 2731 4750 3128 4425 
Q 3525 4100 3525 3541 
Q 3525 3141 3298 2862 
Q 3072 2584 2669 2484 
Q 3125 2378 3379 2068 
Q 3634 1759 3634 1313 
Q 3634 634 3220 271 
Q 2806 -91 2034 -91 
Q 1263 -91 848 271 
Q 434 634 434 1313 
Q 434 1759 690 2068 
Q 947 2378 1403 2484 
z
M 1172 3481 
Q 1172 3119 1398 2916 
Q 1625 2713 2034 2713 
Q 2441 2713 2670 2916 
Q 2900 3119 2900 3481 
Q 2900 3844 2670 4047 
Q 2441 4250 2034 4250 
Q 1625 4250 1398 4047 
Q 1172 3844 1172 3481 
z
" transform="scale(0.015625)"/>
       </defs>
       <use xlink:href="#DejaVuSans-38"/>
       <use xlink:href="#DejaVuSans-30" transform="translate(63.623047 0)"/>
      </g>
     </g>
    </g>
    <g id="xtick_7">
     <g id="line2d_7">
      <g>
       <use xlink:href="#me434f8125b" x="430.744022" y="371.52" style="stroke: #000000; stroke-width: 1.28"/>
      </g>
     </g>
     <g id="text_6">
      <!-- 100 -->
      <g transform="translate(415.474022 394.1775) scale(0.16 -0.16)">
       <defs>
        <path id="DejaVuSans-31" d="M 794 531 
L 1825 531 
L 1825 4091 
L 703 3866 
L 703 4441 
L 1819 4666 
L 2450 4666 
L 2450 531 
L 3481 531 
L 3481 0 
L 794 0 
L 794 531 
z
" transform="scale(0.015625)"/>
       </defs>
       <use xlink:href="#DejaVuSans-31"/>
       <use xlink:href="#DejaVuSans-30" transform="translate(63.623047 0)"/>
       <use xlink:href="#DejaVuSans-30" transform="translate(127.246094 0)"/>
      </g>
     </g>
    </g>
    <g id="xtick_8">
     <g id="line2d_8">
      <g>
       <use xlink:href="#me434f8125b" x="488.863157" y="371.52" style="stroke: #000000; stroke-width: 1.28"/>
      </g>
     </g>
     <g id="text_7">
      <!-- 120 -->
      <g transform="translate(473.593157 394.1775) scale(0.16 -0.16)">
       <use xlink:href="#DejaVuSans-31"/>
       <use xlink:href="#DejaVuSans-32" transform="translate(63.623047 0)"/>
       <use xlink:href="#DejaVuSans-30" transform="translate(127.246094 0)"/>
      </g>
     </g>
    </g>
    <g id="xtick_9">
     <g id="line2d_9">
      <g>
       <use xlink:href="#me434f8125b" x="546.982291" y="371.52" style="stroke: #000000; stroke-width: 1.28"/>
      </g>
     </g>
     <g id="text_8">
      <!-- 140 -->
      <g transform="translate(531.712291 394.1775) scale(0.16 -0.16)">
       <use xlink:href="#DejaVuSans-31"/>
       <use xlink:href="#DejaVuSans-34" transform="translate(63.623047 0)"/>
       <use xlink:href="#DejaVuSans-30" transform="translate(127.246094 0)"/>
      </g>
     </g>
    </g>
    <g id="text_9">
     <!-- Sample depth [Å] -->
     <g transform="translate(249.59625 416.3575) scale(0.16 -0.16)">
      <defs>
       <path id="DejaVuSans-53" d="M 3425 4513 
L 3425 3897 
Q 3066 4069 2747 4153 
Q 2428 4238 2131 4238 
Q 1616 4238 1336 4038 
Q 1056 3838 1056 3469 
Q 1056 3159 1242 3001 
Q 1428 2844 1947 2747 
L 2328 2669 
Q 3034 2534 3370 2195 
Q 3706 1856 3706 1288 
Q 3706 609 3251 259 
Q 2797 -91 1919 -91 
Q 1588 -91 1214 -16 
Q 841 59 441 206 
L 441 856 
Q 825 641 1194 531 
Q 1563 422 1919 422 
Q 2459 422 2753 634 
Q 3047 847 3047 1241 
Q 3047 1584 2836 1778 
Q 2625 1972 2144 2069 
L 1759 2144 
Q 1053 2284 737 2584 
Q 422 2884 422 3419 
Q 422 4038 858 4394 
Q 1294 4750 2059 4750 
Q 2388 4750 2728 4690 
Q 3069 4631 3425 4513 
z
" transform="scale(0.015625)"/>
       <path id="DejaVuSans-61" d="M 2194 1759 
Q 1497 1759 1228 1600 
Q 959 1441 959 1056 
Q 959 750 1161 570 
Q 1363 391 1709 391 
Q 2188 391 2477 730 
Q 2766 1069 2766 1631 
L 2766 1759 
L 2194 1759 
z
M 3341 1997 
L 3341 0 
L 2766 0 
L 2766 531 
Q 2569 213 2275 61 
Q 1981 -91 1556 -91 
Q 1019 -91 701 211 
Q 384 513 384 1019 
Q 384 1609 779 1909 
Q 1175 2209 1959 2209 
L 2766 2209 
L 2766 2266 
Q 2766 2663 2505 2880 
Q 2244 3097 1772 3097 
Q 1472 3097 1187 3025 
Q 903 2953 641 2809 
L 641 3341 
Q 956 3463 1253 3523 
Q 1550 3584 1831 3584 
Q 2591 3584 2966 3190 
Q 3341 2797 3341 1997 
z
" transform="scale(0.015625)"/>
       <path id="DejaVuSans-6d" d="M 3328 2828 
Q 3544 3216 3844 3400 
Q 4144 3584 4550 3584 
Q 5097 3584 5394 3201 
Q 5691 2819 5691 2113 
L 5691 0 
L 5113 0 
L 5113 2094 
Q 5113 2597 4934 2840 
Q 4756 3084 4391 3084 
Q 3944 3084 3684 2787 
Q 3425 2491 3425 1978 
L 3425 0 
L 2847 0 
L 2847 2094 
Q 2847 2600 2669 2842 
Q 2491 3084 2119 3084 
Q 1678 3084 1418 2786 
Q 1159 2488 1159 1978 
L 1159 0 
L 581 0 
L 581 3500 
L 1159 3500 
L 1159 2956 
Q 1356 3278 1631 3431 
Q 1906 3584 2284 3584 
Q 2666 3584 2933 3390 
Q 3200 3197 3328 2828 
z
" transform="scale(0.015625)"/>
       <path id="DejaVuSans-70" d="M 1159 525 
L 1159 -1331 
L 581 -1331 
L 581 3500 
L 1159 3500 
L 1159 2969 
Q 1341 3281 1617 3432 
Q 1894 3584 2278 3584 
Q 2916 3584 3314 3078 
Q 3713 2572 3713 1747 
Q 3713 922 3314 415 
Q 2916 -91 2278 -91 
Q 1894 -91 1617 61 
Q 1341 213 1159 525 
z
M 3116 1747 
Q 3116 2381 2855 2742 
Q 2594 3103 2138 3103 
Q 1681 3103 1420 2742 
Q 1159 2381 1159 1747 
Q 1159 1113 1420 752 
Q 1681 391 2138 391 
Q 2594 391 2855 752 
Q 3116 1113 3116 1747 
z
" transform="scale(0.015625)"/>
       <path id="DejaVuSans-6c" d="M 603 4863 
L 1178 4863 
L 1178 0 
L 603 0 
L 603 4863 
z
" transform="scale(0.015625)"/>
       <path id="DejaVuSans-65" d="M 3597 1894 
L 3597 1613 
L 953 1613 
Q 991 1019 1311 708 
Q 1631 397 2203 397 
Q 2534 397 2845 478 
Q 3156 559 3463 722 
L 3463 178 
Q 3153 47 2828 -22 
Q 2503 -91 2169 -91 
Q 1331 -91 842 396 
Q 353 884 353 1716 
Q 353 2575 817 3079 
Q 1281 3584 2069 3584 
Q 2775 3584 3186 3129 
Q 3597 2675 3597 1894 
z
M 3022 2063 
Q 3016 2534 2758 2815 
Q 2500 3097 2075 3097 
Q 1594 3097 1305 2825 
Q 1016 2553 972 2059 
L 3022 2063 
z
" transform="scale(0.015625)"/>
       <path id="DejaVuSans-20" transform="scale(0.015625)"/>
       <path id="DejaVuSans-64" d="M 2906 2969 
L 2906 4863 
L 3481 4863 
L 3481 0 
L 2906 0 
L 2906 525 
Q 2725 213 2448 61 
Q 2172 -91 1784 -91 
Q 1150 -91 751 415 
Q 353 922 353 1747 
Q 353 2572 751 3078 
Q 1150 3584 1784 3584 
Q 2172 3584 2448 3432 
Q 2725 3281 2906 2969 
z
M 947 1747 
Q 947 1113 1208 752 
Q 1469 391 1925 391 
Q 2381 391 2643 752 
Q 2906 1113 2906 1747 
Q 2906 2381 2643 2742 
Q 2381 3103 1925 3103 
Q 1469 3103 1208 2742 
Q 947 2381 947 1747 
z
" transform="scale(0.015625)"/>
       <path id="DejaVuSans-74" d="M 1172 4494 
L 1172 3500 
L 2356 3500 
L 2356 3053 
L 1172 3053 
L 1172 1153 
Q 1172 725 1289 603 
Q 1406 481 1766 481 
L 2356 481 
L 2356 0 
L 1766 0 
Q 1100 0 847 248 
Q 594 497 594 1153 
L 594 3053 
L 172 3053 
L 172 3500 
L 594 3500 
L 594 4494 
L 1172 4494 
z
" transform="scale(0.015625)"/>
       <path id="DejaVuSans-68" d="M 3513 2113 
L 3513 0 
L 2938 0 
L 2938 2094 
Q 2938 2591 2744 2837 
Q 2550 3084 2163 3084 
Q 1697 3084 1428 2787 
Q 1159 2491 1159 1978 
L 1159 0 
L 581 0 
L 581 4863 
L 1159 4863 
L 1159 2956 
Q 1366 3272 1645 3428 
Q 1925 3584 2291 3584 
Q 2894 3584 3203 3211 
Q 3513 2838 3513 2113 
z
" transform="scale(0.015625)"/>
       <path id="DejaVuSans-5b" d="M 550 4863 
L 1875 4863 
L 1875 4416 
L 1125 4416 
L 1125 -397 
L 1875 -397 
L 1875 -844 
L 550 -844 
L 550 4863 
z
" transform="scale(0.015625)"/>
       <path id="DejaVuSans-c5" d="M 2663 5081 
Q 2663 5278 2523 5417 
Q 2384 5556 2188 5556 
Q 1988 5556 1852 5420 
Q 1716 5284 1716 5081 
Q 1716 4884 1853 4746 
Q 1991 4609 2188 4609 
Q 2384 4609 2523 4746 
Q 2663 4884 2663 5081 
z
M 2188 4044 
L 1338 1722 
L 3041 1722 
L 2188 4044 
z
M 1716 4366 
Q 1525 4494 1428 4673 
Q 1331 4853 1331 5081 
Q 1331 5441 1579 5691 
Q 1828 5941 2188 5941 
Q 2544 5941 2795 5689 
Q 3047 5438 3047 5081 
Q 3047 4863 2948 4678 
Q 2850 4494 2663 4366 
L 4325 0 
L 3669 0 
L 3244 1197 
L 1141 1197 
L 716 0 
L 50 0 
L 1716 4366 
z
" transform="scale(0.015625)"/>
       <path id="DejaVuSans-5d" d="M 1947 4863 
L 1947 -844 
L 622 -844 
L 622 -397 
L 1369 -397 
L 1369 4416 
L 622 4416 
L 622 4863 
L 1947 4863 
z
" transform="scale(0.015625)"/>
      </defs>
      <use xlink:href="#DejaVuSans-53"/>
      <use xlink:href="#DejaVuSans-61" transform="translate(63.476562 0)"/>
      <use xlink:href="#DejaVuSans-6d" transform="translate(124.755859 0)"/>
      <use xlink:href="#DejaVuSans-70" transform="translate(222.167969 0)"/>
      <use xlink:href="#DejaVuSans-6c" transform="translate(285.644531 0)"/>
      <use xlink:href="#DejaVuSans-65" transform="translate(313.427734 0)"/>
      <use xlink:href="#DejaVuSans-20" transform="translate(374.951172 0)"/>
      <use xlink:href="#DejaVuSans-64" transform="translate(406.738281 0)"/>
      <use xlink:href="#DejaVuSans-65" transform="translate(470.214844 0)"/>
      <use xlink:href="#DejaVuSans-70" transform="translate(531.738281 0)"/>
      <use xlink:href="#DejaVuSans-74" transform="translate(595.214844 0)"/>
      <use xlink:href="#DejaVuSans-68" transform="translate(634.423828 0)"/>
      <use xlink:href="#DejaVuSans-20" transform="translate(697.802734 0)"/>
      <use xlink:href="#DejaVuSans-5b" transform="translate(729.589844 0)"/>
      <use xlink:href="#DejaVuSans-c5" transform="translate(768.603516 0)"/>
      <use xlink:href="#DejaVuSans-5d" transform="translate(837.011719 0)"/>
     </g>
    </g>
   </g>
   <g id="matplotlib.axis_2">
    <g id="ytick_1">
     <g id="line2d_10">
      <defs>
       <path id="m9d256cccdd" d="M 0 0 
L -7 0 
" style="stroke: #000000; stroke-width: 1.28"/>
      </defs>
      <g>
       <use xlink:href="#m9d256cccdd" x="80.64" y="318.908201" style="stroke: #000000; stroke-width: 1.28"/>
      </g>
     </g>
     <g id="text_10">
      <!-- 2 -->
      <g transform="translate(59.96 324.986951) scale(0.16 -0.16)">
       <use xlink:href="#DejaVuSans-32"/>
      </g>
     </g>
    </g>
    <g id="ytick_2">
     <g id="line2d_11">
      <g>
       <use xlink:href="#m9d256cccdd" x="80.64" y="263.106821" style="stroke: #000000; stroke-width: 1.28"/>
      </g>
     </g>
     <g id="text_11">
      <!-- 4 -->
      <g transform="translate(59.96 269.185571) scale(0.16 -0.16)">
       <use xlink:href="#DejaVuSans-34"/>
      </g>
     </g>
    </g>
    <g id="ytick_3">
     <g id="line2d_12">
      <g>
       <use xlink:href="#m9d256cccdd" x="80.64" y="207.30544" style="stroke: #000000; stroke-width: 1.28"/>
      </g>
     </g>
     <g id="text_12">
      <!-- 6 -->
      <g transform="translate(59.96 213.38419) scale(0.16 -0.16)">
       <use xlink:href="#DejaVuSans-36"/>
      </g>
     </g>
    </g>
    <g id="ytick_4">
     <g id="line2d_13">
      <g>
       <use xlink:href="#m9d256cccdd" x="80.64" y="151.50406" style="stroke: #000000; stroke-width: 1.28"/>
      </g>
     </g>
     <g id="text_13">
      <!-- 8 -->
      <g transform="translate(59.96 157.58281) scale(0.16 -0.16)">
       <use xlink:href="#DejaVuSans-38"/>
      </g>
     </g>
    </g>
    <g id="ytick_5">
     <g id="line2d_14">
      <g>
       <use xlink:href="#m9d256cccdd" x="80.64" y="95.702679" style="stroke: #000000; stroke-width: 1.28"/>
      </g>
     </g>
     <g id="text_14">
      <!-- 10 -->
      <g transform="translate(49.78 101.781429) scale(0.16 -0.16)">
       <use xlink:href="#DejaVuSans-31"/>
       <use xlink:href="#DejaVuSans-30" transform="translate(63.623047 0)"/>
      </g>
     </g>
    </g>
    <g id="ytick_6">
     <g id="line2d_15">
      <g>
       <use xlink:href="#m9d256cccdd" x="80.64" y="39.901299" style="stroke: #000000; stroke-width: 1.28"/>
      </g>
     </g>
     <g id="text_15">
      <!-- 12 -->
      <g transform="translate(49.78 45.980049) scale(0.16 -0.16)">
       <use xlink:href="#DejaVuSans-31"/>
       <use xlink:href="#DejaVuSans-32" transform="translate(63.623047 0)"/>
      </g>
     </g>
    </g>
    <g id="text_16">
     <!-- SLD, $\rho\ [\times 10^{-6}\ \mathrm{\AA^{-2}}]$ -->
     <g transform="translate(42.42 269.04) rotate(-90) scale(0.16 -0.16)">
      <defs>
       <path id="DejaVuSans-4c" d="M 628 4666 
L 1259 4666 
L 1259 531 
L 3531 531 
L 3531 0 
L 628 0 
L 628 4666 
z
" transform="scale(0.015625)"/>
       <path id="DejaVuSans-44" d="M 1259 4147 
L 1259 519 
L 2022 519 
Q 2988 519 3436 956 
Q 3884 1394 3884 2338 
Q 3884 3275 3436 3711 
Q 2988 4147 2022 4147 
L 1259 4147 
z
M 628 4666 
L 1925 4666 
Q 3281 4666 3915 4102 
Q 4550 3538 4550 2338 
Q 4550 1131 3912 565 
Q 3275 0 1925 0 
L 628 0 
L 628 4666 
z
" transform="scale(0.015625)"/>
       <path id="DejaVuSans-2c" d="M 750 794 
L 1409 794 
L 1409 256 
L 897 -744 
L 494 -744 
L 750 256 
L 750 794 
z
" transform="scale(0.015625)"/>
       <path id="DejaVuSans-Oblique-3c1" d="M 1203 2875 
Q 1453 3194 1981 3475 
Q 2188 3584 2756 3584 
Q 3394 3584 3694 3078 
Q 3994 2572 3834 1747 
Q 3672 922 3175 415 
Q 2678 -91 2041 -91 
Q 1656 -91 1409 63 
Q 1163 213 1044 525 
L 681 -1331 
L 103 -1331 
L 697 1716 
Q 838 2438 1203 2875 
z
M 3238 1747 
Q 3359 2381 3169 2744 
Q 2978 3103 2522 3103 
Q 2066 3103 1734 2744 
Q 1403 2381 1281 1747 
Q 1156 1113 1347 750 
Q 1538 391 1994 391 
Q 2450 391 2781 750 
Q 3113 1113 3238 1747 
z
" transform="scale(0.015625)"/>
       <path id="DejaVuSans-d7" d="M 4488 3438 
L 3059 2003 
L 4488 575 
L 4116 197 
L 2681 1631 
L 1247 197 
L 878 575 
L 2303 2003 
L 878 3438 
L 1247 3816 
L 2681 2381 
L 4116 3816 
L 4488 3438 
z
" transform="scale(0.015625)"/>
       <path id="DejaVuSans-2212" d="M 678 2272 
L 4684 2272 
L 4684 1741 
L 678 1741 
L 678 2272 
z
" transform="scale(0.015625)"/>
      </defs>
      <use xlink:href="#DejaVuSans-53" transform="translate(0 0.171875)"/>
      <use xlink:href="#DejaVuSans-4c" transform="translate(63.476562 0.171875)"/>
      <use xlink:href="#DejaVuSans-44" transform="translate(119.189453 0.171875)"/>
      <use xlink:href="#DejaVuSans-2c" transform="translate(196.191406 0.171875)"/>
      <use xlink:href="#DejaVuSans-20" transform="translate(227.978516 0.171875)"/>
      <use xlink:href="#DejaVuSans-Oblique-3c1" transform="translate(259.765625 0.171875)"/>
      <use xlink:href="#DejaVuSans-5b" transform="translate(355.712566 0.171875)"/>
      <use xlink:href="#DejaVuSans-d7" transform="translate(394.726238 0.171875)"/>
      <use xlink:href="#DejaVuSans-31" transform="translate(478.5153 0.171875)"/>
      <use xlink:href="#DejaVuSans-30" transform="translate(542.138347 0.171875)"/>
      <use xlink:href="#DejaVuSans-2212" transform="translate(606.718425 38.453125) scale(0.7)"/>
      <use xlink:href="#DejaVuSans-36" transform="translate(665.370769 38.453125) scale(0.7)"/>
      <use xlink:href="#DejaVuSans-c5" transform="translate(745.111655 0.171875)"/>
      <use xlink:href="#DejaVuSans-2212" transform="translate(814.47689 38.453125) scale(0.7)"/>
      <use xlink:href="#DejaVuSans-32" transform="translate(873.129233 38.453125) scale(0.7)"/>
      <use xlink:href="#DejaVuSans-5d" transform="translate(920.399741 0.171875)"/>
     </g>
    </g>
   </g>
   <g id="line2d_16">
    <path d="M 102.370909 316.84355 
L 123.274389 316.768574 
L 125.887324 316.556458 
L 127.62928 316.209198 
L 129.371237 315.55008 
L 130.242215 315.050471 
L 131.113194 314.405775 
L 131.984172 313.592299 
L 132.85515 312.58861 
L 133.726129 311.377683 
L 134.597107 309.949112 
L 136.339064 306.442208 
L 138.08102 302.180312 
L 144.177868 286.14086 
L 145.919825 282.741005 
L 146.790803 281.368007 
L 147.661782 280.210764 
L 148.53276 279.256994 
L 149.403738 278.488345 
L 150.274717 277.882619 
L 152.016673 277.064167 
L 153.75863 276.618352 
L 156.371565 276.335205 
L 160.726457 276.236726 
L 189.468741 276.228622 
L 228.662766 276.305602 
L 232.146679 276.557389 
L 234.759614 277.023755 
L 236.50157 277.532755 
L 238.243527 278.219106 
L 240.856462 279.534056 
L 246.082332 282.357517 
L 247.824289 283.07932 
L 249.566245 283.624496 
L 252.17918 284.135051 
L 254.792115 284.376048 
L 259.147007 284.483037 
L 263.501898 284.399808 
L 266.114833 284.165307 
L 267.85679 283.833529 
L 269.598747 283.274097 
L 271.340703 282.403363 
L 273.08266 281.148169 
L 274.824617 279.464012 
L 276.566573 277.345096 
L 278.30853 274.819019 
L 280.050486 271.926397 
L 281.792443 268.695076 
L 283.5344 265.123237 
L 285.276356 261.182149 
L 287.018313 256.839266 
L 289.631248 249.582495 
L 296.599075 229.016542 
L 298.341031 224.884962 
L 299.212009 223.149012 
L 300.082988 221.666284 
L 300.953966 220.455603 
L 301.824944 219.530149 
L 302.695923 218.897106 
L 303.566901 218.557516 
L 304.437879 218.506347 
L 305.308858 218.732765 
L 306.179836 219.220577 
L 307.050814 219.948845 
L 307.921793 220.892622 
L 309.663749 223.31199 
L 311.405706 226.232245 
L 316.631576 235.588731 
L 318.373533 238.279073 
L 320.115489 240.573521 
L 321.857446 242.445281 
L 323.599402 243.912018 
L 325.341359 245.024054 
L 327.083316 245.852977 
L 329.696251 246.75185 
L 334.051142 248.138331 
L 335.793099 248.978694 
L 337.535056 250.180527 
L 339.277012 251.896023 
L 340.147991 252.996217 
L 341.018969 254.284408 
L 341.889947 255.779291 
L 343.631904 259.454817 
L 345.37386 264.125557 
L 347.115817 269.832119 
L 348.857774 276.533391 
L 350.59973 284.096248 
L 353.212665 296.550211 
L 357.567557 317.652777 
L 359.309514 325.276587 
L 361.05147 332.053396 
L 362.793427 337.842303 
L 364.535383 342.594404 
L 366.27734 346.343209 
L 368.019297 349.185168 
L 369.761253 351.255599 
L 371.50321 352.705108 
L 373.245167 353.680321 
L 374.987123 354.310835 
L 376.72908 354.702584 
L 379.342015 355.013204 
L 382.825928 355.167499 
L 391.535711 355.220872 
L 416.794083 355.124317 
L 420.277996 354.870119 
L 422.019953 354.589788 
L 423.761909 354.126637 
L 425.503866 353.39129 
L 427.245823 352.269325 
L 428.116801 351.521377 
L 428.987779 350.624259 
L 429.858758 349.558899 
L 430.729736 348.306301 
L 431.600714 346.848172 
L 433.342671 343.249979 
L 435.084627 338.660102 
L 436.826584 333.033638 
L 438.568541 326.405554 
L 440.310497 318.902148 
L 442.923432 306.498455 
L 447.278324 285.353308 
L 449.020281 277.672813 
L 450.762237 270.824528 
L 452.504194 264.956171 
L 454.24615 260.122982 
L 455.988107 256.296107 
L 457.730064 253.381056 
L 459.47202 251.240917 
L 461.213977 249.719075 
L 462.955934 248.657454 
L 464.69789 247.908214 
L 467.310825 247.084235 
L 470.794739 245.958266 
L 472.536695 245.160582 
L 474.278652 244.086122 
L 476.020608 242.655193 
L 477.762565 240.803668 
L 479.504522 238.491869 
L 481.246478 235.713732 
L 482.988435 232.503609 
L 485.60137 227.057093 
L 491.698218 213.734932 
L 493.440175 210.416054 
L 495.182132 207.5125 
L 496.924088 205.071393 
L 498.666045 203.099146 
L 500.408001 201.567868 
L 502.149958 200.425346 
L 503.891915 199.606141 
L 505.633871 199.041674 
L 507.375828 198.667906 
L 509.988763 198.348072 
L 513.472676 198.171479 
L 520.440503 198.102243 
L 536.989091 198.098213 
L 536.989091 198.098213 
" clip-path="url(#p13cbcc6a98)" style="fill: none; stroke-dasharray: 6.66,2.88; stroke-dashoffset: 0; stroke: #1f77b4; stroke-width: 1.8"/>
   </g>
   <g id="line2d_17">
    <path d="M 102.370909 316.84355 
L 123.274389 316.768574 
L 125.887324 316.556458 
L 127.62928 316.209198 
L 129.371237 315.55008 
L 130.242215 315.050471 
L 131.113194 314.405775 
L 131.984172 313.592299 
L 132.85515 312.58861 
L 133.726129 311.377683 
L 134.597107 309.949112 
L 136.339064 306.442208 
L 138.08102 302.180312 
L 144.177868 286.14086 
L 145.919825 282.741005 
L 146.790803 281.368007 
L 147.661782 280.210764 
L 148.53276 279.256994 
L 149.403738 278.488345 
L 150.274717 277.882619 
L 152.016673 277.064167 
L 153.75863 276.618352 
L 156.371565 276.335205 
L 160.726457 276.236726 
L 189.468741 276.228622 
L 222.565917 276.146028 
L 224.307874 275.991473 
L 226.049831 275.602418 
L 226.920809 275.242257 
L 227.791787 274.706627 
L 228.662766 273.9277 
L 229.533744 272.820072 
L 230.404722 271.279949 
L 231.2757 269.185924 
L 232.146679 266.401902 
L 233.017657 262.78257 
L 233.888635 258.181608 
L 234.759614 252.46243 
L 235.630592 245.510854 
L 236.50157 237.248616 
L 237.372549 227.646283 
L 239.114505 204.607553 
L 240.856462 177.430586 
L 245.211354 105.61986 
L 246.95331 81.61186 
L 247.824289 71.464011 
L 248.695267 62.651624 
L 249.566245 55.168614 
L 250.437224 48.955349 
L 251.308202 43.910845 
L 252.17918 39.906259 
L 253.050158 36.798116 
L 253.921137 34.44004 
L 254.792115 32.692201 
L 255.663093 31.428153 
L 256.534072 30.53914 
L 257.40505 29.936244 
L 258.276028 29.550944 
L 259.147007 29.334706 
L 260.017985 29.258182 
L 260.888963 29.310487 
L 261.759942 29.498853 
L 262.63092 29.848781 
L 263.501898 30.4046 
L 264.372877 31.23015 
L 265.243855 32.409163 
L 266.114833 34.044762 
L 266.985812 36.25748 
L 267.85679 39.181216 
L 268.727768 42.956746 
L 269.598747 47.722664 
L 270.469725 53.604007 
L 271.340703 60.699326 
L 272.211682 69.067316 
L 273.953638 89.585956 
L 275.695595 114.447213 
L 280.921465 194.783661 
L 282.663421 215.486085 
L 283.5344 223.742204 
L 284.405378 230.521447 
L 285.276356 235.842775 
L 286.147335 239.777819 
L 287.018313 242.438884 
L 287.889291 243.966063 
L 288.76027 244.514903 
L 289.631248 244.245704 
L 290.502226 243.315077 
L 291.373205 241.869994 
L 292.244183 240.044197 
L 293.98614 235.711028 
L 297.470053 226.759183 
L 299.212009 223.119728 
L 300.082988 221.650196 
L 300.953966 220.446951 
L 301.824944 219.525596 
L 302.695923 218.89476 
L 303.566901 218.556333 
L 304.437879 218.505763 
L 305.308858 218.732483 
L 306.179836 219.220444 
L 307.050814 219.948783 
L 307.921793 220.892594 
L 309.663749 223.311985 
L 311.405706 226.232244 
L 316.631576 235.588731 
L 318.373533 238.279073 
L 320.115489 240.573521 
L 321.857446 242.445281 
L 323.599402 243.912018 
L 325.341359 245.024054 
L 327.083316 245.852977 
L 329.696251 246.75185 
L 334.051142 248.138331 
L 335.793099 248.978694 
L 337.535056 250.180527 
L 339.277012 251.896023 
L 340.147991 252.996217 
L 341.018969 254.284408 
L 341.889947 255.779291 
L 343.631904 259.454817 
L 345.37386 264.125557 
L 347.115817 269.832119 
L 348.857774 276.533391 
L 350.59973 284.096248 
L 353.212665 296.550211 
L 357.567557 317.652777 
L 359.309514 325.276587 
L 361.05147 332.053396 
L 362.793427 337.842303 
L 364.535383 342.594404 
L 366.27734 346.343209 
L 368.019297 349.185168 
L 369.761253 351.255599 
L 371.50321 352.705108 
L 373.245167 353.680321 
L 374.987123 354.310835 
L 376.72908 354.702584 
L 379.342015 355.013204 
L 382.825928 355.167499 
L 391.535711 355.220872 
L 416.794083 355.124317 
L 420.277996 354.870119 
L 422.019953 354.589788 
L 423.761909 354.126637 
L 425.503866 353.39129 
L 427.245823 352.269325 
L 428.116801 351.521377 
L 428.987779 350.624259 
L 429.858758 349.558899 
L 430.729736 348.306301 
L 431.600714 346.848172 
L 433.342671 343.249979 
L 435.084627 338.660102 
L 436.826584 333.033638 
L 438.568541 326.405554 
L 440.310497 318.902148 
L 442.923432 306.498455 
L 447.278324 285.353308 
L 449.020281 277.672813 
L 450.762237 270.824528 
L 452.504194 264.956171 
L 454.24615 260.122982 
L 455.988107 256.296107 
L 457.730064 253.381056 
L 459.47202 251.240917 
L 461.213977 249.719075 
L 462.955934 248.657454 
L 464.69789 247.908214 
L 467.310825 247.084235 
L 470.794739 245.958266 
L 472.536695 245.160582 
L 474.278652 244.086122 
L 476.020608 242.655193 
L 477.762565 240.803668 
L 479.504522 238.491869 
L 481.246478 235.713732 
L 482.988435 232.503609 
L 485.60137 227.057093 
L 491.698218 213.734932 
L 493.440175 210.416054 
L 495.182132 207.5125 
L 496.924088 205.071393 
L 498.666045 203.099146 
L 500.408001 201.567868 
L 502.149958 200.425346 
L 503.891915 199.606141 
L 505.633871 199.041674 
L 507.375828 198.667906 
L 509.988763 198.348072 
L 513.472676 198.171479 
L 520.440503 198.102243 
L 536.989091 198.098213 
L 536.989091 198.098213 
" clip-path="url(#p13cbcc6a98)" style="fill: none; stroke: #1f77b4; stroke-width: 1.8; stroke-linecap: square"/>
   </g>
   <g id="patch_3">
    <path d="M 80.64 371.52 
L 80.64 12.96 
" style="fill: none; stroke: #000000; stroke-width: 1.6; stroke-linejoin: miter; stroke-linecap: square"/>
   </g>
   <g id="patch_4">
    <path d="M 558.72 371.52 
L 558.72 12.96 
" style="fill: none; stroke: #000000; stroke-width: 1.6; stroke-linejoin: miter; stroke-linecap: square"/>
   </g>
   <g id="patch_5">
    <path d="M 80.64 371.52 
L 558.72 371.52 
" style="fill: none; stroke: #000000; stroke-width: 1.6; stroke-linejoin: miter; stroke-linecap: square"/>
   </g>
   <g id="patch_6">
    <path d="M 80.64 12.96 
L 558.72 12.96 
" style="fill: none; stroke: #000000; stroke-width: 1.6; stroke-linejoin: miter; stroke-linecap: square"/>
   </g>
   <g id="legend_1">
    <g id="patch_7">
     <path d="M 396.51824 62.80672 
L 549.3904 62.80672 
Q 552.056 62.80672 552.056 60.14112 
L 552.056 22.2896 
Q 552.056 19.624 549.3904 19.624 
L 396.51824 19.624 
Q 393.85264 19.624 393.85264 22.2896 
L 393.85264 60.14112 
Q 393.85264 62.80672 396.51824 62.80672 
z
" style="fill: #ffffff; opacity: 0.8; stroke: #cccccc; stroke-linejoin: miter"/>
    </g>
    <g id="line2d_18">
     <path d="M 399.18384 30.41968 
L 407.84704 30.41968 
L 416.51024 30.41968 
" style="fill: none; stroke: #1f77b4; stroke-width: 1.8; stroke-linecap: square"/>
    </g>
    <g id="text_17">
     <!-- Lipids TRIS D$_2$O ↑ -->
     <g transform="translate(427.17264 35.08448) scale(0.13328 -0.13328)">
      <defs>
       <path id="DejaVuSans-69" d="M 603 3500 
L 1178 3500 
L 1178 0 
L 603 0 
L 603 3500 
z
M 603 4863 
L 1178 4863 
L 1178 4134 
L 603 4134 
L 603 4863 
z
" transform="scale(0.015625)"/>
       <path id="DejaVuSans-73" d="M 2834 3397 
L 2834 2853 
Q 2591 2978 2328 3040 
Q 2066 3103 1784 3103 
Q 1356 3103 1142 2972 
Q 928 2841 928 2578 
Q 928 2378 1081 2264 
Q 1234 2150 1697 2047 
L 1894 2003 
Q 2506 1872 2764 1633 
Q 3022 1394 3022 966 
Q 3022 478 2636 193 
Q 2250 -91 1575 -91 
Q 1294 -91 989 -36 
Q 684 19 347 128 
L 347 722 
Q 666 556 975 473 
Q 1284 391 1588 391 
Q 1994 391 2212 530 
Q 2431 669 2431 922 
Q 2431 1156 2273 1281 
Q 2116 1406 1581 1522 
L 1381 1569 
Q 847 1681 609 1914 
Q 372 2147 372 2553 
Q 372 3047 722 3315 
Q 1072 3584 1716 3584 
Q 2034 3584 2315 3537 
Q 2597 3491 2834 3397 
z
" transform="scale(0.015625)"/>
       <path id="DejaVuSans-54" d="M -19 4666 
L 3928 4666 
L 3928 4134 
L 2272 4134 
L 2272 0 
L 1638 0 
L 1638 4134 
L -19 4134 
L -19 4666 
z
" transform="scale(0.015625)"/>
       <path id="DejaVuSans-52" d="M 2841 2188 
Q 3044 2119 3236 1894 
Q 3428 1669 3622 1275 
L 4263 0 
L 3584 0 
L 2988 1197 
Q 2756 1666 2539 1819 
Q 2322 1972 1947 1972 
L 1259 1972 
L 1259 0 
L 628 0 
L 628 4666 
L 2053 4666 
Q 2853 4666 3247 4331 
Q 3641 3997 3641 3322 
Q 3641 2881 3436 2590 
Q 3231 2300 2841 2188 
z
M 1259 4147 
L 1259 2491 
L 2053 2491 
Q 2509 2491 2742 2702 
Q 2975 2913 2975 3322 
Q 2975 3731 2742 3939 
Q 2509 4147 2053 4147 
L 1259 4147 
z
" transform="scale(0.015625)"/>
       <path id="DejaVuSans-49" d="M 628 4666 
L 1259 4666 
L 1259 0 
L 628 0 
L 628 4666 
z
" transform="scale(0.015625)"/>
       <path id="DejaVuSans-4f" d="M 2522 4238 
Q 1834 4238 1429 3725 
Q 1025 3213 1025 2328 
Q 1025 1447 1429 934 
Q 1834 422 2522 422 
Q 3209 422 3611 934 
Q 4013 1447 4013 2328 
Q 4013 3213 3611 3725 
Q 3209 4238 2522 4238 
z
M 2522 4750 
Q 3503 4750 4090 4092 
Q 4678 3434 4678 2328 
Q 4678 1225 4090 567 
Q 3503 -91 2522 -91 
Q 1538 -91 948 565 
Q 359 1222 359 2328 
Q 359 3434 948 4092 
Q 1538 4750 2522 4750 
z
" transform="scale(0.015625)"/>
       <path id="DejaVuSans-2191" d="M 2541 4688 
L 2822 4688 
L 4047 3456 
L 3672 3081 
L 2947 3813 
L 2947 0 
L 2416 0 
L 2416 3813 
L 1684 3081 
L 1309 3456 
L 2541 4688 
z
" transform="scale(0.015625)"/>
      </defs>
      <use xlink:href="#DejaVuSans-4c" transform="translate(0 0.015625)"/>
      <use xlink:href="#DejaVuSans-69" transform="translate(55.712891 0.015625)"/>
      <use xlink:href="#DejaVuSans-70" transform="translate(83.496094 0.015625)"/>
      <use xlink:href="#DejaVuSans-69" transform="translate(146.972656 0.015625)"/>
      <use xlink:href="#DejaVuSans-64" transform="translate(174.755859 0.015625)"/>
      <use xlink:href="#DejaVuSans-73" transform="translate(238.232422 0.015625)"/>
      <use xlink:href="#DejaVuSans-20" transform="translate(290.332031 0.015625)"/>
      <use xlink:href="#DejaVuSans-54" transform="translate(322.119141 0.015625)"/>
      <use xlink:href="#DejaVuSans-52" transform="translate(383.203125 0.015625)"/>
      <use xlink:href="#DejaVuSans-49" transform="translate(452.685547 0.015625)"/>
      <use xlink:href="#DejaVuSans-53" transform="translate(482.177734 0.015625)"/>
      <use xlink:href="#DejaVuSans-20" transform="translate(545.654297 0.015625)"/>
      <use xlink:href="#DejaVuSans-44" transform="translate(577.441406 0.015625)"/>
      <use xlink:href="#DejaVuSans-32" transform="translate(655.400391 -16.390625) scale(0.7)"/>
      <use xlink:href="#DejaVuSans-4f" transform="translate(702.670898 0.015625)"/>
      <use xlink:href="#DejaVuSans-20" transform="translate(781.381836 0.015625)"/>
      <use xlink:href="#DejaVuSans-2191" transform="translate(813.168945 0.015625)"/>
     </g>
    </g>
    <g id="line2d_19">
     <path d="M 399.18384 50.01184 
L 407.84704 50.01184 
L 416.51024 50.01184 
" style="fill: none; stroke-dasharray: 6.66,2.88; stroke-dashoffset: 0; stroke: #1f77b4; stroke-width: 1.8"/>
    </g>
    <g id="text_18">
     <!-- Lipids TRIS D$_2$O ↓ -->
     <g transform="translate(427.17264 54.67664) scale(0.13328 -0.13328)">
      <defs>
       <path id="DejaVuSans-2193" d="M 2822 -22 
L 2541 -22 
L 1309 1209 
L 1684 1584 
L 2416 853 
L 2416 4666 
L 2947 4666 
L 2947 853 
L 3672 1584 
L 4047 1209 
L 2822 -22 
z
" transform="scale(0.015625)"/>
      </defs>
      <use xlink:href="#DejaVuSans-4c" transform="translate(0 0.015625)"/>
      <use xlink:href="#DejaVuSans-69" transform="translate(55.712891 0.015625)"/>
      <use xlink:href="#DejaVuSans-70" transform="translate(83.496094 0.015625)"/>
      <use xlink:href="#DejaVuSans-69" transform="translate(146.972656 0.015625)"/>
      <use xlink:href="#DejaVuSans-64" transform="translate(174.755859 0.015625)"/>
      <use xlink:href="#DejaVuSans-73" transform="translate(238.232422 0.015625)"/>
      <use xlink:href="#DejaVuSans-20" transform="translate(290.332031 0.015625)"/>
      <use xlink:href="#DejaVuSans-54" transform="translate(322.119141 0.015625)"/>
      <use xlink:href="#DejaVuSans-52" transform="translate(383.203125 0.015625)"/>
      <use xlink:href="#DejaVuSans-49" transform="translate(452.685547 0.015625)"/>
      <use xlink:href="#DejaVuSans-53" transform="translate(482.177734 0.015625)"/>
      <use xlink:href="#DejaVuSans-20" transform="translate(545.654297 0.015625)"/>
      <use xlink:href="#DejaVuSans-44" transform="translate(577.441406 0.015625)"/>
      <use xlink:href="#DejaVuSans-32" transform="translate(655.400391 -16.390625) scale(0.7)"/>
      <use xlink:href="#DejaVuSans-4f" transform="translate(702.670898 0.015625)"/>
      <use xlink:href="#DejaVuSans-20" transform="translate(781.381836 0.015625)"/>
      <use xlink:href="#DejaVuSans-2193" transform="translate(813.168945 0.015625)"/>
     </g>
    </g>
   </g>
  </g>
 </g>
 <defs>
  <clipPath id="p13cbcc6a98">
   <rect x="80.64" y="12.96" width="478.08" height="358.56"/>
  </clipPath>
 </defs>
</svg>
