<?xml version="1.0" encoding="utf-8" standalone="no"?>
<!DOCTYPE svg PUBLIC "-//W3C//DTD SVG 1.1//EN"
  "http://www.w3.org/Graphics/SVG/1.1/DTD/svg11.dtd">
<svg xmlns:xlink="http://www.w3.org/1999/xlink" width="510.4pt" height="391.705pt" viewBox="0 0 510.4 391.705" xmlns="http://www.w3.org/2000/svg" version="1.1">
 <metadata>
  <rdf:RDF xmlns:dc="http://purl.org/dc/elements/1.1/" xmlns:cc="http://creativecommons.org/ns#" xmlns:rdf="http://www.w3.org/1999/02/22-rdf-syntax-ns#">
   <cc:Work>
    <dc:type rdf:resource="http://purl.org/dc/dcmitype/StillImage"/>
    <dc:date>2026-03-15T23:26:49.846887</dc:date>
    <dc:format>image/svg+xml</dc:format>
    <dc:creator>
     <cc:Agent>
      <dc:title>Matplotlib v3.8.0, https://matplotlib.org/</dc:title>
     </cc:Agent>
    </dc:creator>
   </cc:Work>
  </rdf:RDF>
 </metadata>
 <defs>
  <style type="text/css">*{stroke-linejoin: round; stroke-linecap: butt}</style>
 </defs>
 <g id="figure_1">
  <g id="patch_1">
   <path d="M 0 391.705 
L 510.4 391.705 
L 510.4 0 
L 0 0 
z
" style="fill: #ffffff"/>
  </g>
  <g id="axes_1">
   <g id="patch_2">
    <path d="M 56.8 339.84 
L 503.2 339.84 
L 503.2 7.2 
L 56.8 7.2 
z
" style="fill: #ffffff"/>
   </g>
   <g id="matplotlib.axis_1">
    <g id="xtick_1">
     <g id="line2d_1">
      <defs>
       <path id="m3573c9c4dd" d="M 0 0 
L 0 3.5 
" style="stroke: #000000; stroke-width: 0.8"/>
      </defs>
      <g>
       <use xlink:href="#m3573c9c4dd" x="95.554814" y="339.84" style="stroke: #000000; stroke-width: 0.8"/>
      </g>
     </g>
     <g id="text_1">
      <!-- 0 -->
      <g transform="translate(90.464814 358.9975) scale(0.16 -0.16)">
       <defs>
        <path id="DejaVuSans-30" d="M 2034 4250 
Q 1547 4250 1301 3770 
Q 1056 3291 1056 2328 
Q 1056 1369 1301 889 
Q 1547 409 2034 409 
Q 2525 409 2770 889 
Q 3016 1369 3016 2328 
Q 3016 3291 2770 3770 
Q 2525 4250 2034 4250 
z
M 2034 4750 
Q 2819 4750 3233 4129 
Q 3647 3509 3647 2328 
Q 3647 1150 3233 529 
Q 2819 -91 2034 -91 
Q 1250 -91 836 529 
Q 422 1150 422 2328 
Q 422 3509 836 4129 
Q 1250 4750 2034 4750 
z
" transform="scale(0.015625)"/>
       </defs>
       <use xlink:href="#DejaVuSans-30"/>
      </g>
     </g>
    </g>
    <g id="xtick_2">
     <g id="line2d_2">
      <g>
       <use xlink:href="#m3573c9c4dd" x="155.177604" y="339.84" style="stroke: #000000; stroke-width: 0.8"/>
      </g>
     </g>
     <g id="text_2">
      <!-- 20 -->
      <g transform="translate(144.997604 358.9975) scale(0.16 -0.16)">
       <defs>
        <path id="DejaVuSans-32" d="M 1228 531 
L 3431 531 
L 3431 0 
L 469 0 
L 469 531 
Q 828 903 1448 1529 
Q 2069 2156 2228 2338 
Q 2531 2678 2651 2914 
Q 2772 3150 2772 3378 
Q 2772 3750 2511 3984 
Q 2250 4219 1831 4219 
Q 1534 4219 1204 4116 
Q 875 4013 500 3803 
L 500 4441 
Q 881 4594 1212 4672 
Q 1544 4750 1819 4750 
Q 2544 4750 2975 4387 
Q 3406 4025 3406 3419 
Q 3406 3131 3298 2873 
Q 3191 2616 2906 2266 
Q 2828 2175 2409 1742 
Q 1991 1309 1228 531 
z
" transform="scale(0.015625)"/>
       </defs>
       <use xlink:href="#DejaVuSans-32"/>
       <use xlink:href="#DejaVuSans-30" x="63.623047"/>
      </g>
     </g>
    </g>
    <g id="xtick_3">
     <g id="line2d_3">
      <g>
       <use xlink:href="#m3573c9c4dd" x="214.800394" y="339.84" style="stroke: #000000; stroke-width: 0.8"/>
      </g>
     </g>
     <g id="text_3">
      <!-- 40 -->
      <g transform="translate(204.620394 358.9975) scale(0.16 -0.16)">
       <defs>
        <path id="DejaVuSans-34" d="M 2419 4116 
L 825 1625 
L 2419 1625 
L 2419 4116 
z
M 2253 4666 
L 3047 4666 
L 3047 1625 
L 3713 1625 
L 3713 1100 
L 3047 1100 
L 3047 0 
L 2419 0 
L 2419 1100 
L 313 1100 
L 313 1709 
L 2253 4666 
z
" transform="scale(0.015625)"/>
       </defs>
       <use xlink:href="#DejaVuSans-34"/>
       <use xlink:href="#DejaVuSans-30" x="63.623047"/>
      </g>
     </g>
    </g>
    <g id="xtick_4">
     <g id="line2d_4">
      <g>
       <use xlink:href="#m3573c9c4dd" x="274.423185" y="339.84" style="stroke: #000000; stroke-width: 0.8"/>
      </g>
     </g>
     <g id="text_4">
      <!-- 60 -->
      <g transform="translate(264.243185 358.9975) scale(0.16 -0.16)">
       <defs>
        <path id="DejaVuSans-36" d="M 2113 2584 
Q 1688 2584 1439 2293 
Q 1191 2003 1191 1497 
Q 1191 994 1439 701 
Q 1688 409 2113 409 
Q 2538 409 2786 701 
Q 3034 994 3034 1497 
Q 3034 2003 2786 2293 
Q 2538 2584 2113 2584 
z
M 3366 4563 
L 3366 3988 
Q 3128 4100 2886 4159 
Q 2644 4219 2406 4219 
Q 1781 4219 1451 3797 
Q 1122 3375 1075 2522 
Q 1259 2794 1537 2939 
Q 1816 3084 2150 3084 
Q 2853 3084 3261 2657 
Q 3669 2231 3669 1497 
Q 3669 778 3244 343 
Q 2819 -91 2113 -91 
Q 1303 -91 875 529 
Q 447 1150 447 2328 
Q 447 3434 972 4092 
Q 1497 4750 2381 4750 
Q 2619 4750 2861 4703 
Q 3103 4656 3366 4563 
z
" transform="scale(0.015625)"/>
       </defs>
       <use xlink:href="#DejaVuSans-36"/>
       <use xlink:href="#DejaVuSans-30" x="63.623047"/>
      </g>
     </g>
    </g>
    <g id="xtick_5">
     <g id="line2d_5">
      <g>
       <use xlink:href="#m3573c9c4dd" x="334.045975" y="339.84" style="stroke: #000000; stroke-width: 0.8"/>
      </g>
     </g>
     <g id="text_5">
      <!-- 80 -->
      <g transform="translate(323.865975 358.9975) scale(0.16 -0.16)">
       <defs>
        <path id="DejaVuSans-38" d="M 2034 2216 
Q 1584 2216 1326 1975 
Q 1069 1734 1069 1313 
Q 1069 891 1326 650 
Q 1584 409 2034 409 
Q 2484 409 2743 651 
Q 3003 894 3003 1313 
Q 3003 1734 2745 1975 
Q 2488 2216 2034 2216 
z
M 1403 2484 
Q 997 2584 770 2862 
Q 544 3141 544 3541 
Q 544 4100 942 4425 
Q 1341 4750 2034 4750 
Q 2731 4750 3128 4425 
Q 3525 4100 3525 3541 
Q 3525 3141 3298 2862 
Q 3072 2584 2669 2484 
Q 3125 2378 3379 2068 
Q 3634 1759 3634 1313 
Q 3634 634 3220 271 
Q 2806 -91 2034 -91 
Q 1263 -91 848 271 
Q 434 634 434 1313 
Q 434 1759 690 2068 
Q 947 2378 1403 2484 
z
M 1172 3481 
Q 1172 3119 1398 2916 
Q 1625 2713 2034 2713 
Q 2441 2713 2670 2916 
Q 2900 3119 2900 3481 
Q 2900 3844 2670 4047 
Q 2441 4250 2034 4250 
Q 1625 4250 1398 4047 
Q 1172 3844 1172 3481 
z
" transform="scale(0.015625)"/>
       </defs>
       <use xlink:href="#DejaVuSans-38"/>
       <use xlink:href="#DejaVuSans-30" x="63.623047"/>
      </g>
     </g>
    </g>
    <g id="xtick_6">
     <g id="line2d_6">
      <g>
       <use xlink:href="#m3573c9c4dd" x="393.668765" y="339.84" style="stroke: #000000; stroke-width: 0.8"/>
      </g>
     </g>
     <g id="text_6">
      <!-- 100 -->
      <g transform="translate(378.398765 358.9975) scale(0.16 -0.16)">
       <defs>
        <path id="DejaVuSans-31" d="M 794 531 
L 1825 531 
L 1825 4091 
L 703 3866 
L 703 4441 
L 1819 4666 
L 2450 4666 
L 2450 531 
L 3481 531 
L 3481 0 
L 794 0 
L 794 531 
z
" transform="scale(0.015625)"/>
       </defs>
       <use xlink:href="#DejaVuSans-31"/>
       <use xlink:href="#DejaVuSans-30" x="63.623047"/>
       <use xlink:href="#DejaVuSans-30" x="127.246094"/>
      </g>
     </g>
    </g>
    <g id="xtick_7">
     <g id="line2d_7">
      <g>
       <use xlink:href="#m3573c9c4dd" x="453.291556" y="339.84" style="stroke: #000000; stroke-width: 0.8"/>
      </g>
     </g>
     <g id="text_7">
      <!-- 120 -->
      <g transform="translate(438.021556 358.9975) scale(0.16 -0.16)">
       <use xlink:href="#DejaVuSans-31"/>
       <use xlink:href="#DejaVuSans-32" x="63.623047"/>
       <use xlink:href="#DejaVuSans-30" x="127.246094"/>
      </g>
     </g>
    </g>
    <g id="text_8">
     <!-- Sample depth [Å] -->
     <g transform="translate(209.91625 381.1775) scale(0.16 -0.16)">
      <defs>
       <path id="DejaVuSans-53" d="M 3425 4513 
L 3425 3897 
Q 3066 4069 2747 4153 
Q 2428 4238 2131 4238 
Q 1616 4238 1336 4038 
Q 1056 3838 1056 3469 
Q 1056 3159 1242 3001 
Q 1428 2844 1947 2747 
L 2328 2669 
Q 3034 2534 3370 2195 
Q 3706 1856 3706 1288 
Q 3706 609 3251 259 
Q 2797 -91 1919 -91 
Q 1588 -91 1214 -16 
Q 841 59 441 206 
L 441 856 
Q 825 641 1194 531 
Q 1563 422 1919 422 
Q 2459 422 2753 634 
Q 3047 847 3047 1241 
Q 3047 1584 2836 1778 
Q 2625 1972 2144 2069 
L 1759 2144 
Q 1053 2284 737 2584 
Q 422 2884 422 3419 
Q 422 4038 858 4394 
Q 1294 4750 2059 4750 
Q 2388 4750 2728 4690 
Q 3069 4631 3425 4513 
z
" transform="scale(0.015625)"/>
       <path id="DejaVuSans-61" d="M 2194 1759 
Q 1497 1759 1228 1600 
Q 959 1441 959 1056 
Q 959 750 1161 570 
Q 1363 391 1709 391 
Q 2188 391 2477 730 
Q 2766 1069 2766 1631 
L 2766 1759 
L 2194 1759 
z
M 3341 1997 
L 3341 0 
L 2766 0 
L 2766 531 
Q 2569 213 2275 61 
Q 1981 -91 1556 -91 
Q 1019 -91 701 211 
Q 384 513 384 1019 
Q 384 1609 779 1909 
Q 1175 2209 1959 2209 
L 2766 2209 
L 2766 2266 
Q 2766 2663 2505 2880 
Q 2244 3097 1772 3097 
Q 1472 3097 1187 3025 
Q 903 2953 641 2809 
L 641 3341 
Q 956 3463 1253 3523 
Q 1550 3584 1831 3584 
Q 2591 3584 2966 3190 
Q 3341 2797 3341 1997 
z
" transform="scale(0.015625)"/>
       <path id="DejaVuSans-6d" d="M 3328 2828 
Q 3544 3216 3844 3400 
Q 4144 3584 4550 3584 
Q 5097 3584 5394 3201 
Q 5691 2819 5691 2113 
L 5691 0 
L 5113 0 
L 5113 2094 
Q 5113 2597 4934 2840 
Q 4756 3084 4391 3084 
Q 3944 3084 3684 2787 
Q 3425 2491 3425 1978 
L 3425 0 
L 2847 0 
L 2847 2094 
Q 2847 2600 2669 2842 
Q 2491 3084 2119 3084 
Q 1678 3084 1418 2786 
Q 1159 2488 1159 1978 
L 1159 0 
L 581 0 
L 581 3500 
L 1159 3500 
L 1159 2956 
Q 1356 3278 1631 3431 
Q 1906 3584 2284 3584 
Q 2666 3584 2933 3390 
Q 3200 3197 3328 2828 
z
" transform="scale(0.015625)"/>
       <path id="DejaVuSans-70" d="M 1159 525 
L 1159 -1331 
L 581 -1331 
L 581 3500 
L 1159 3500 
L 1159 2969 
Q 1341 3281 1617 3432 
Q 1894 3584 2278 3584 
Q 2916 3584 3314 3078 
Q 3713 2572 3713 1747 
Q 3713 922 3314 415 
Q 2916 -91 2278 -91 
Q 1894 -91 1617 61 
Q 1341 213 1159 525 
z
M 3116 1747 
Q 3116 2381 2855 2742 
Q 2594 3103 2138 3103 
Q 1681 3103 1420 2742 
Q 1159 2381 1159 1747 
Q 1159 1113 1420 752 
Q 1681 391 2138 391 
Q 2594 391 2855 752 
Q 3116 1113 3116 1747 
z
" transform="scale(0.015625)"/>
       <path id="DejaVuSans-6c" d="M 603 4863 
L 1178 4863 
L 1178 0 
L 603 0 
L 603 4863 
z
" transform="scale(0.015625)"/>
       <path id="DejaVuSans-65" d="M 3597 1894 
L 3597 1613 
L 953 1613 
Q 991 1019 1311 708 
Q 1631 397 2203 397 
Q 2534 397 2845 478 
Q 3156 559 3463 722 
L 3463 178 
Q 3153 47 2828 -22 
Q 2503 -91 2169 -91 
Q 1331 -91 842 396 
Q 353 884 353 1716 
Q 353 2575 817 3079 
Q 1281 3584 2069 3584 
Q 2775 3584 3186 3129 
Q 3597 2675 3597 1894 
z
M 3022 2063 
Q 3016 2534 2758 2815 
Q 2500 3097 2075 3097 
Q 1594 3097 1305 2825 
Q 1016 2553 972 2059 
L 3022 2063 
z
" transform="scale(0.015625)"/>
       <path id="DejaVuSans-20" transform="scale(0.015625)"/>
       <path id="DejaVuSans-64" d="M 2906 2969 
L 2906 4863 
L 3481 4863 
L 3481 0 
L 2906 0 
L 2906 525 
Q 2725 213 2448 61 
Q 2172 -91 1784 -91 
Q 1150 -91 751 415 
Q 353 922 353 1747 
Q 353 2572 751 3078 
Q 1150 3584 1784 3584 
Q 2172 3584 2448 3432 
Q 2725 3281 2906 2969 
z
M 947 1747 
Q 947 1113 1208 752 
Q 1469 391 1925 391 
Q 2381 391 2643 752 
Q 2906 1113 2906 1747 
Q 2906 2381 2643 2742 
Q 2381 3103 1925 3103 
Q 1469 3103 1208 2742 
Q 947 2381 947 1747 
z
" transform="scale(0.015625)"/>
       <path id="DejaVuSans-74" d="M 1172 4494 
L 1172 3500 
L 2356 3500 
L 2356 3053 
L 1172 3053 
L 1172 1153 
Q 1172 725 1289 603 
Q 1406 481 1766 481 
L 2356 481 
L 2356 0 
L 1766 0 
Q 1100 0 847 248 
Q 594 497 594 1153 
L 594 3053 
L 172 3053 
L 172 3500 
L 594 3500 
L 594 4494 
L 1172 4494 
z
" transform="scale(0.015625)"/>
       <path id="DejaVuSans-68" d="M 3513 2113 
L 3513 0 
L 2938 0 
L 2938 2094 
Q 2938 2591 2744 2837 
Q 2550 3084 2163 3084 
Q 1697 3084 1428 2787 
Q 1159 2491 1159 1978 
L 1159 0 
L 581 0 
L 581 4863 
L 1159 4863 
L 1159 2956 
Q 1366 3272 1645 3428 
Q 1925 3584 2291 3584 
Q 2894 3584 3203 3211 
Q 3513 2838 3513 2113 
z
" transform="scale(0.015625)"/>
       <path id="DejaVuSans-5b" d="M 550 4863 
L 1875 4863 
L 1875 4416 
L 1125 4416 
L 1125 -397 
L 1875 -397 
L 1875 -844 
L 550 -844 
L 550 4863 
z
" transform="scale(0.015625)"/>
       <path id="DejaVuSans-c5" d="M 2663 5081 
Q 2663 5278 2523 5417 
Q 2384 5556 2188 5556 
Q 1988 5556 1852 5420 
Q 1716 5284 1716 5081 
Q 1716 4884 1853 4746 
Q 1991 4609 2188 4609 
Q 2384 4609 2523 4746 
Q 2663 4884 2663 5081 
z
M 2188 4044 
L 1338 1722 
L 3041 1722 
L 2188 4044 
z
M 1716 4366 
Q 1525 4494 1428 4673 
Q 1331 4853 1331 5081 
Q 1331 5441 1579 5691 
Q 1828 5941 2188 5941 
Q 2544 5941 2795 5689 
Q 3047 5438 3047 5081 
Q 3047 4863 2948 4678 
Q 2850 4494 2663 4366 
L 4325 0 
L 3669 0 
L 3244 1197 
L 1141 1197 
L 716 0 
L 50 0 
L 1716 4366 
z
" transform="scale(0.015625)"/>
       <path id="DejaVuSans-5d" d="M 1947 4863 
L 1947 -844 
L 622 -844 
L 622 -397 
L 1369 -397 
L 1369 4416 
L 622 4416 
L 622 4863 
L 1947 4863 
z
" transform="scale(0.015625)"/>
      </defs>
      <use xlink:href="#DejaVuSans-53"/>
      <use xlink:href="#DejaVuSans-61" x="63.476562"/>
      <use xlink:href="#DejaVuSans-6d" x="124.755859"/>
      <use xlink:href="#DejaVuSans-70" x="222.167969"/>
      <use xlink:href="#DejaVuSans-6c" x="285.644531"/>
      <use xlink:href="#DejaVuSans-65" x="313.427734"/>
      <use xlink:href="#DejaVuSans-20" x="374.951172"/>
      <use xlink:href="#DejaVuSans-64" x="406.738281"/>
      <use xlink:href="#DejaVuSans-65" x="470.214844"/>
      <use xlink:href="#DejaVuSans-70" x="531.738281"/>
      <use xlink:href="#DejaVuSans-74" x="595.214844"/>
      <use xlink:href="#DejaVuSans-68" x="634.423828"/>
      <use xlink:href="#DejaVuSans-20" x="697.802734"/>
      <use xlink:href="#DejaVuSans-5b" x="729.589844"/>
      <use xlink:href="#DejaVuSans-c5" x="768.603516"/>
      <use xlink:href="#DejaVuSans-5d" x="837.011719"/>
     </g>
    </g>
   </g>
   <g id="matplotlib.axis_2">
    <g id="ytick_1">
     <g id="line2d_8">
      <defs>
       <path id="mf8e9a07fc1" d="M 0 0 
L -3.5 0 
" style="stroke: #000000; stroke-width: 0.8"/>
      </defs>
      <g>
       <use xlink:href="#mf8e9a07fc1" x="56.8" y="291.036186" style="stroke: #000000; stroke-width: 0.8"/>
      </g>
     </g>
     <g id="text_9">
      <!-- 2 -->
      <g transform="translate(39.62 297.114936) scale(0.16 -0.16)">
       <use xlink:href="#DejaVuSans-32"/>
      </g>
     </g>
    </g>
    <g id="ytick_2">
     <g id="line2d_9">
      <g>
       <use xlink:href="#mf8e9a07fc1" x="56.8" y="239.275214" style="stroke: #000000; stroke-width: 0.8"/>
      </g>
     </g>
     <g id="text_10">
      <!-- 4 -->
      <g transform="translate(39.62 245.353964) scale(0.16 -0.16)">
       <use xlink:href="#DejaVuSans-34"/>
      </g>
     </g>
    </g>
    <g id="ytick_3">
     <g id="line2d_10">
      <g>
       <use xlink:href="#mf8e9a07fc1" x="56.8" y="187.514241" style="stroke: #000000; stroke-width: 0.8"/>
      </g>
     </g>
     <g id="text_11">
      <!-- 6 -->
      <g transform="translate(39.62 193.592991) scale(0.16 -0.16)">
       <use xlink:href="#DejaVuSans-36"/>
      </g>
     </g>
    </g>
    <g id="ytick_4">
     <g id="line2d_11">
      <g>
       <use xlink:href="#mf8e9a07fc1" x="56.8" y="135.753268" style="stroke: #000000; stroke-width: 0.8"/>
      </g>
     </g>
     <g id="text_12">
      <!-- 8 -->
      <g transform="translate(39.62 141.832018) scale(0.16 -0.16)">
       <use xlink:href="#DejaVuSans-38"/>
      </g>
     </g>
    </g>
    <g id="ytick_5">
     <g id="line2d_12">
      <g>
       <use xlink:href="#mf8e9a07fc1" x="56.8" y="83.992295" style="stroke: #000000; stroke-width: 0.8"/>
      </g>
     </g>
     <g id="text_13">
      <!-- 10 -->
      <g transform="translate(29.44 90.071045) scale(0.16 -0.16)">
       <use xlink:href="#DejaVuSans-31"/>
       <use xlink:href="#DejaVuSans-30" x="63.623047"/>
      </g>
     </g>
    </g>
    <g id="ytick_6">
     <g id="line2d_13">
      <g>
       <use xlink:href="#mf8e9a07fc1" x="56.8" y="32.231322" style="stroke: #000000; stroke-width: 0.8"/>
      </g>
     </g>
     <g id="text_14">
      <!-- 12 -->
      <g transform="translate(29.44 38.310072) scale(0.16 -0.16)">
       <use xlink:href="#DejaVuSans-31"/>
       <use xlink:href="#DejaVuSans-32" x="63.623047"/>
      </g>
     </g>
    </g>
    <g id="text_15">
     <!-- SLD, $\rho\ [\times 10^{-6}\ \mathrm{\AA^{-2}}]$ -->
     <g transform="translate(22.08 250.32) rotate(-90) scale(0.16 -0.16)">
      <defs>
       <path id="DejaVuSans-4c" d="M 628 4666 
L 1259 4666 
L 1259 531 
L 3531 531 
L 3531 0 
L 628 0 
L 628 4666 
z
" transform="scale(0.015625)"/>
       <path id="DejaVuSans-44" d="M 1259 4147 
L 1259 519 
L 2022 519 
Q 2988 519 3436 956 
Q 3884 1394 3884 2338 
Q 3884 3275 3436 3711 
Q 2988 4147 2022 4147 
L 1259 4147 
z
M 628 4666 
L 1925 4666 
Q 3281 4666 3915 4102 
Q 4550 3538 4550 2338 
Q 4550 1131 3912 565 
Q 3275 0 1925 0 
L 628 0 
L 628 4666 
z
" transform="scale(0.015625)"/>
       <path id="DejaVuSans-2c" d="M 750 794 
L 1409 794 
L 1409 256 
L 897 -744 
L 494 -744 
L 750 256 
L 750 794 
z
" transform="scale(0.015625)"/>
       <path id="DejaVuSans-Oblique-3c1" d="M 1203 2875 
Q 1453 3194 1981 3475 
Q 2188 3584 2756 3584 
Q 3394 3584 3694 3078 
Q 3994 2572 3834 1747 
Q 3672 922 3175 415 
Q 2678 -91 2041 -91 
Q 1656 -91 1409 63 
Q 1163 213 1044 525 
L 681 -1331 
L 103 -1331 
L 697 1716 
Q 838 2438 1203 2875 
z
M 3238 1747 
Q 3359 2381 3169 2744 
Q 2978 3103 2522 3103 
Q 2066 3103 1734 2744 
Q 1403 2381 1281 1747 
Q 1156 1113 1347 750 
Q 1538 391 1994 391 
Q 2450 391 2781 750 
Q 3113 1113 3238 1747 
z
" transform="scale(0.015625)"/>
       <path id="DejaVuSans-d7" d="M 4488 3438 
L 3059 2003 
L 4488 575 
L 4116 197 
L 2681 1631 
L 1247 197 
L 878 575 
L 2303 2003 
L 878 3438 
L 1247 3816 
L 2681 2381 
L 4116 3816 
L 4488 3438 
z
" transform="scale(0.015625)"/>
       <path id="DejaVuSans-2212" d="M 678 2272 
L 4684 2272 
L 4684 1741 
L 678 1741 
L 678 2272 
z
" transform="scale(0.015625)"/>
      </defs>
      <use xlink:href="#DejaVuSans-53" transform="translate(0 0.171875)"/>
      <use xlink:href="#DejaVuSans-4c" transform="translate(63.476562 0.171875)"/>
      <use xlink:href="#DejaVuSans-44" transform="translate(119.189453 0.171875)"/>
      <use xlink:href="#DejaVuSans-2c" transform="translate(196.191406 0.171875)"/>
      <use xlink:href="#DejaVuSans-20" transform="translate(227.978516 0.171875)"/>
      <use xlink:href="#DejaVuSans-Oblique-3c1" transform="translate(259.765625 0.171875)"/>
      <use xlink:href="#DejaVuSans-5b" transform="translate(355.712566 0.171875)"/>
      <use xlink:href="#DejaVuSans-d7" transform="translate(394.726238 0.171875)"/>
      <use xlink:href="#DejaVuSans-31" transform="translate(478.5153 0.171875)"/>
      <use xlink:href="#DejaVuSans-30" transform="translate(542.138347 0.171875)"/>
      <use xlink:href="#DejaVuSans-2212" transform="translate(606.718425 38.453125) scale(0.7)"/>
      <use xlink:href="#DejaVuSans-36" transform="translate(665.370769 38.453125) scale(0.7)"/>
      <use xlink:href="#DejaVuSans-c5" transform="translate(745.111655 0.171875)"/>
      <use xlink:href="#DejaVuSans-2212" transform="translate(814.47689 38.453125) scale(0.7)"/>
      <use xlink:href="#DejaVuSans-32" transform="translate(873.129233 38.453125) scale(0.7)"/>
      <use xlink:href="#DejaVuSans-5d" transform="translate(920.399741 0.171875)"/>
     </g>
    </g>
   </g>
   <g id="line2d_14">
    <path d="M 56.8 289.12103 
L 78.27014 289.050654 
L 80.953908 288.851628 
L 82.743086 288.526009 
L 84.532265 287.908462 
L 85.426854 287.440691 
L 86.321443 286.837415 
L 87.216032 286.07667 
L 88.110621 285.138669 
L 89.00521 284.007809 
L 89.8998 282.674729 
L 91.688978 279.406483 
L 93.478156 275.442032 
L 98.845691 262.443844 
L 100.63487 258.932295 
L 102.424048 256.207788 
L 103.318637 255.147277 
L 104.213226 254.274661 
L 105.107816 253.572606 
L 106.896994 252.595514 
L 108.686172 252.041066 
L 110.475351 251.753349 
L 113.159118 251.580741 
L 119.421242 251.52268 
L 185.620842 251.568868 
L 189.199198 251.740493 
L 191.882966 252.082081 
L 193.672144 252.474829 
L 195.461323 253.027766 
L 198.14509 254.146271 
L 205.301804 257.518638 
L 207.090982 258.096965 
L 209.774749 258.666449 
L 212.458517 258.952673 
L 216.036874 259.086661 
L 221.404409 259.063718 
L 224.982766 258.832576 
L 226.771944 258.545594 
L 228.561122 258.056851 
L 230.350301 257.289011 
L 232.139479 256.172651 
L 233.928657 254.663466 
L 235.717836 252.752829 
L 237.507014 250.464427 
L 239.296192 247.836311 
L 241.085371 244.89652 
L 242.874549 241.645615 
L 244.663727 238.056932 
L 246.452906 234.096415 
L 249.136673 227.450762 
L 252.71503 217.692814 
L 255.398798 210.496012 
L 257.187976 206.221391 
L 258.977154 202.656831 
L 259.871743 201.206562 
L 260.766333 200.004514 
L 261.660922 199.064583 
L 262.555511 198.395153 
L 263.4501 197.998902 
L 264.344689 197.872814 
L 265.239279 198.00837 
L 266.133868 198.391921 
L 267.028457 199.005212 
L 267.923046 199.826043 
L 269.712224 201.986415 
L 271.501403 204.64684 
L 277.763527 214.67704 
L 279.552705 217.049978 
L 281.341884 219.040358 
L 283.131062 220.639346 
L 284.92024 221.875687 
L 286.709419 222.804541 
L 288.498597 223.497571 
L 291.182365 224.274705 
L 294.760721 225.303063 
L 296.5499 226.049541 
L 298.339078 227.114678 
L 300.128257 228.638692 
L 301.022846 229.619015 
L 301.917435 230.769575 
L 302.812024 232.108063 
L 304.601202 235.411969 
L 306.390381 239.632107 
L 308.179559 244.814545 
L 309.968737 250.931058 
L 311.757916 257.868219 
L 314.441683 269.361469 
L 318.914629 289.017839 
L 320.703808 296.175981 
L 322.492986 302.566786 
L 324.282164 308.049396 
L 326.071343 312.56895 
L 327.860521 316.148926 
L 329.649699 318.873766 
L 331.438878 320.866632 
L 333.228056 322.267159 
L 335.017234 323.212919 
L 336.806413 323.826605 
L 338.595591 324.209243 
L 341.279359 324.513876 
L 344.857715 324.66602 
L 353.803607 324.719045 
L 379.746693 324.63453 
L 383.32505 324.409337 
L 386.008818 323.977745 
L 387.797996 323.45247 
L 389.587174 322.631949 
L 391.376353 321.40035 
L 392.270942 320.589073 
L 393.165531 319.624016 
L 394.06012 318.487445 
L 394.954709 317.162196 
L 396.743888 313.883782 
L 398.533066 309.688628 
L 400.322244 304.530308 
L 402.111423 298.43571 
L 403.900601 291.516471 
L 406.584369 280.038883 
L 411.057315 260.371697 
L 412.846493 253.197399 
L 414.635671 246.785823 
L 416.42485 241.279658 
L 418.214028 236.735313 
L 420.003206 233.130061 
L 421.792385 230.378843 
L 423.581563 228.355815 
L 425.370741 226.915689 
L 427.15992 225.911046 
L 428.949098 225.203591 
L 431.632866 224.431935 
L 435.211222 223.394108 
L 437.000401 222.66305 
L 438.789579 221.678193 
L 440.578758 220.364878 
L 442.367936 218.662632 
L 444.157114 216.5334 
L 445.946293 213.970129 
L 447.735471 211.003254 
L 450.419238 205.959346 
L 456.681363 193.579007 
L 458.470541 190.486225 
L 460.259719 187.777657 
L 462.048898 185.498329 
L 463.838076 183.655223 
L 465.627255 182.223133 
L 467.416433 181.153915 
L 469.205611 180.386839 
L 470.99479 179.858044 
L 473.678557 179.383173 
L 476.362325 179.148454 
L 480.835271 179.008856 
L 493.359519 178.973793 
L 503.2 178.973681 
L 503.2 178.973681 
" clip-path="url(#p53e6a2f0a1)" style="fill: none; stroke: #1f77b4; stroke-width: 1.5; stroke-linecap: square"/>
   </g>
   <g id="line2d_15">
    <path d="M 56.8 289.12103 
L 78.27014 289.050654 
L 80.953908 288.851628 
L 82.743086 288.526009 
L 84.532265 287.908462 
L 85.426854 287.440691 
L 86.321443 286.837415 
L 87.216032 286.07667 
L 88.110621 285.138669 
L 89.00521 284.007809 
L 89.8998 282.674729 
L 91.688978 279.406483 
L 93.478156 275.442032 
L 98.845691 262.443844 
L 100.63487 258.932295 
L 102.424048 256.207788 
L 103.318637 255.147277 
L 104.213226 254.274661 
L 105.107816 253.572606 
L 106.896994 252.595514 
L 108.686172 252.041066 
L 110.475351 251.753349 
L 113.159118 251.580741 
L 119.421242 251.52268 
L 181.147896 251.388546 
L 182.937074 251.155393 
L 183.831663 250.932752 
L 184.726253 250.594179 
L 185.620842 250.090749 
L 186.515431 249.358824 
L 187.41002 248.318338 
L 188.304609 246.872078 
L 189.199198 244.906466 
L 190.093788 242.294362 
L 190.988377 238.900263 
L 191.882966 234.588056 
L 192.777555 229.231124 
L 193.672144 222.724228 
L 194.566733 214.996127 
L 195.461323 206.02157 
L 197.250501 184.517061 
L 199.039679 159.197435 
L 203.512625 92.548539 
L 205.301804 70.364999 
L 206.196393 61.008442 
L 207.090982 52.895241 
L 207.985571 46.016508 
L 208.88016 40.314044 
L 209.774749 35.691834 
L 210.669339 32.028664 
L 211.563928 29.190399 
L 212.458517 27.040801 
L 213.353106 25.450178 
L 214.247695 24.301568 
L 215.142285 23.494566 
L 216.036874 22.947154 
L 216.931463 22.596059 
L 217.826052 22.396235 
L 218.720641 22.32 
L 219.61523 22.35627 
L 220.50982 22.510175 
L 221.404409 22.80318 
L 222.298998 23.27364 
L 223.193587 23.977557 
L 224.088176 24.989147 
L 224.982766 26.400708 
L 225.877355 28.321205 
L 226.771944 30.873049 
L 227.666533 34.186624 
L 228.561122 38.392403 
L 229.455711 43.610814 
L 230.350301 49.940424 
L 231.24489 57.445456 
L 232.139479 66.143974 
L 233.928657 86.909075 
L 235.717836 111.195031 
L 239.296192 162.16664 
L 241.085371 184.154041 
L 241.97996 193.438812 
L 242.874549 201.40774 
L 243.769138 208.007389 
L 244.663727 213.243625 
L 245.558317 217.173445 
L 246.452906 219.894137 
L 247.347495 221.531327 
L 248.242084 222.227281 
L 249.136673 222.13056 
L 250.031263 221.387709 
L 250.925852 220.137249 
L 251.820441 218.505933 
L 253.609619 214.539392 
L 257.187976 206.127741 
L 258.977154 202.626507 
L 259.871743 201.189848 
L 260.766333 199.995497 
L 261.660922 199.059822 
L 262.555511 198.392692 
L 263.4501 197.997657 
L 264.344689 197.872198 
L 265.239279 198.008072 
L 266.133868 198.391779 
L 267.028457 199.005146 
L 267.923046 199.826013 
L 269.712224 201.986409 
L 271.501403 204.646839 
L 277.763527 214.67704 
L 279.552705 217.049978 
L 281.341884 219.040358 
L 283.131062 220.639346 
L 284.92024 221.875687 
L 286.709419 222.804541 
L 288.498597 223.497571 
L 291.182365 224.274705 
L 294.760721 225.303063 
L 296.5499 226.049541 
L 298.339078 227.114678 
L 300.128257 228.638692 
L 301.022846 229.619015 
L 301.917435 230.769575 
L 302.812024 232.108063 
L 304.601202 235.411969 
L 306.390381 239.632107 
L 308.179559 244.814545 
L 309.968737 250.931058 
L 311.757916 257.868219 
L 314.441683 269.361469 
L 318.914629 289.017839 
L 320.703808 296.175981 
L 322.492986 302.566786 
L 324.282164 308.049396 
L 326.071343 312.56895 
L 327.860521 316.148926 
L 329.649699 318.873766 
L 331.438878 320.866632 
L 333.228056 322.267159 
L 335.017234 323.212919 
L 336.806413 323.826605 
L 338.595591 324.209243 
L 341.279359 324.513876 
L 344.857715 324.66602 
L 353.803607 324.719045 
L 379.746693 324.63453 
L 383.32505 324.409337 
L 386.008818 323.977745 
L 387.797996 323.45247 
L 389.587174 322.631949 
L 391.376353 321.40035 
L 392.270942 320.589073 
L 393.165531 319.624016 
L 394.06012 318.487445 
L 394.954709 317.162196 
L 396.743888 313.883782 
L 398.533066 309.688628 
L 400.322244 304.530308 
L 402.111423 298.43571 
L 403.900601 291.516471 
L 406.584369 280.038883 
L 411.057315 260.371697 
L 412.846493 253.197399 
L 414.635671 246.785823 
L 416.42485 241.279658 
L 418.214028 236.735313 
L 420.003206 233.130061 
L 421.792385 230.378843 
L 423.581563 228.355815 
L 425.370741 226.915689 
L 427.15992 225.911046 
L 428.949098 225.203591 
L 431.632866 224.431935 
L 435.211222 223.394108 
L 437.000401 222.66305 
L 438.789579 221.678193 
L 440.578758 220.364878 
L 442.367936 218.662632 
L 444.157114 216.5334 
L 445.946293 213.970129 
L 447.735471 211.003254 
L 450.419238 205.959346 
L 456.681363 193.579007 
L 458.470541 190.486225 
L 460.259719 187.777657 
L 462.048898 185.498329 
L 463.838076 183.655223 
L 465.627255 182.223133 
L 467.416433 181.153915 
L 469.205611 180.386839 
L 470.99479 179.858044 
L 473.678557 179.383173 
L 476.362325 179.148454 
L 480.835271 179.008856 
L 493.359519 178.973793 
L 503.2 178.973681 
L 503.2 178.973681 
" clip-path="url(#p53e6a2f0a1)" style="fill: none; stroke: #ff7f0e; stroke-width: 1.5; stroke-linecap: square"/>
   </g>
   <g id="patch_3">
    <path d="M 56.8 339.84 
L 56.8 7.2 
" style="fill: none; stroke: #000000; stroke-width: 0.8; stroke-linejoin: miter; stroke-linecap: square"/>
   </g>
   <g id="patch_4">
    <path d="M 503.2 339.84 
L 503.2 7.2 
" style="fill: none; stroke: #000000; stroke-width: 0.8; stroke-linejoin: miter; stroke-linecap: square"/>
   </g>
   <g id="patch_5">
    <path d="M 56.8 339.84 
L 503.2 339.84 
" style="fill: none; stroke: #000000; stroke-width: 0.8; stroke-linejoin: miter; stroke-linecap: square"/>
   </g>
   <g id="patch_6">
    <path d="M 56.8 7.2 
L 503.2 7.2 
" style="fill: none; stroke: #000000; stroke-width: 0.8; stroke-linejoin: miter; stroke-linecap: square"/>
   </g>
   <g id="legend_1">
    <g id="patch_7">
     <path d="M 331.66864 57.04672 
L 493.8704 57.04672 
Q 496.536 57.04672 496.536 54.38112 
L 496.536 16.5296 
Q 496.536 13.864 493.8704 13.864 
L 331.66864 13.864 
Q 329.00304 13.864 329.00304 16.5296 
L 329.00304 54.38112 
Q 329.00304 57.04672 331.66864 57.04672 
z
" style="fill: #ffffff; opacity: 0.8; stroke: #cccccc; stroke-linejoin: miter"/>
    </g>
    <g id="line2d_16">
     <path d="M 334.33424 24.65968 
L 347.66224 24.65968 
L 360.99024 24.65968 
" style="fill: none; stroke: #ff7f0e; stroke-width: 1.5; stroke-linecap: square"/>
    </g>
    <g id="text_16">
     <!-- Lipids TRIS D$_2$O ↑ -->
     <g transform="translate(371.65264 29.32448) scale(0.13328 -0.13328)">
      <defs>
       <path id="DejaVuSans-69" d="M 603 3500 
L 1178 3500 
L 1178 0 
L 603 0 
L 603 3500 
z
M 603 4863 
L 1178 4863 
L 1178 4134 
L 603 4134 
L 603 4863 
z
" transform="scale(0.015625)"/>
       <path id="DejaVuSans-73" d="M 2834 3397 
L 2834 2853 
Q 2591 2978 2328 3040 
Q 2066 3103 1784 3103 
Q 1356 3103 1142 2972 
Q 928 2841 928 2578 
Q 928 2378 1081 2264 
Q 1234 2150 1697 2047 
L 1894 2003 
Q 2506 1872 2764 1633 
Q 3022 1394 3022 966 
Q 3022 478 2636 193 
Q 2250 -91 1575 -91 
Q 1294 -91 989 -36 
Q 684 19 347 128 
L 347 722 
Q 666 556 975 473 
Q 1284 391 1588 391 
Q 1994 391 2212 530 
Q 2431 669 2431 922 
Q 2431 1156 2273 1281 
Q 2116 1406 1581 1522 
L 1381 1569 
Q 847 1681 609 1914 
Q 372 2147 372 2553 
Q 372 3047 722 3315 
Q 1072 3584 1716 3584 
Q 2034 3584 2315 3537 
Q 2597 3491 2834 3397 
z
" transform="scale(0.015625)"/>
       <path id="DejaVuSans-54" d="M -19 4666 
L 3928 4666 
L 3928 4134 
L 2272 4134 
L 2272 0 
L 1638 0 
L 1638 4134 
L -19 4134 
L -19 4666 
z
" transform="scale(0.015625)"/>
       <path id="DejaVuSans-52" d="M 2841 2188 
Q 3044 2119 3236 1894 
Q 3428 1669 3622 1275 
L 4263 0 
L 3584 0 
L 2988 1197 
Q 2756 1666 2539 1819 
Q 2322 1972 1947 1972 
L 1259 1972 
L 1259 0 
L 628 0 
L 628 4666 
L 2053 4666 
Q 2853 4666 3247 4331 
Q 3641 3997 3641 3322 
Q 3641 2881 3436 2590 
Q 3231 2300 2841 2188 
z
M 1259 4147 
L 1259 2491 
L 2053 2491 
Q 2509 2491 2742 2702 
Q 2975 2913 2975 3322 
Q 2975 3731 2742 3939 
Q 2509 4147 2053 4147 
L 1259 4147 
z
" transform="scale(0.015625)"/>
       <path id="DejaVuSans-49" d="M 628 4666 
L 1259 4666 
L 1259 0 
L 628 0 
L 628 4666 
z
" transform="scale(0.015625)"/>
       <path id="DejaVuSans-4f" d="M 2522 4238 
Q 1834 4238 1429 3725 
Q 1025 3213 1025 2328 
Q 1025 1447 1429 934 
Q 1834 422 2522 422 
Q 3209 422 3611 934 
Q 4013 1447 4013 2328 
Q 4013 3213 3611 3725 
Q 3209 4238 2522 4238 
z
M 2522 4750 
Q 3503 4750 4090 4092 
Q 4678 3434 4678 2328 
Q 4678 1225 4090 567 
Q 3503 -91 2522 -91 
Q 1538 -91 948 565 
Q 359 1222 359 2328 
Q 359 3434 948 4092 
Q 1538 4750 2522 4750 
z
" transform="scale(0.015625)"/>
       <path id="DejaVuSans-2191" d="M 2541 4688 
L 2822 4688 
L 4047 3456 
L 3672 3081 
L 2947 3813 
L 2947 0 
L 2416 0 
L 2416 3813 
L 1684 3081 
L 1309 3456 
L 2541 4688 
z
" transform="scale(0.015625)"/>
      </defs>
      <use xlink:href="#DejaVuSans-4c" transform="translate(0 0.015625)"/>
      <use xlink:href="#DejaVuSans-69" transform="translate(55.712891 0.015625)"/>
      <use xlink:href="#DejaVuSans-70" transform="translate(83.496094 0.015625)"/>
      <use xlink:href="#DejaVuSans-69" transform="translate(146.972656 0.015625)"/>
      <use xlink:href="#DejaVuSans-64" transform="translate(174.755859 0.015625)"/>
      <use xlink:href="#DejaVuSans-73" transform="translate(238.232422 0.015625)"/>
      <use xlink:href="#DejaVuSans-20" transform="translate(290.332031 0.015625)"/>
      <use xlink:href="#DejaVuSans-54" transform="translate(322.119141 0.015625)"/>
      <use xlink:href="#DejaVuSans-52" transform="translate(383.203125 0.015625)"/>
      <use xlink:href="#DejaVuSans-49" transform="translate(452.685547 0.015625)"/>
      <use xlink:href="#DejaVuSans-53" transform="translate(482.177734 0.015625)"/>
      <use xlink:href="#DejaVuSans-20" transform="translate(545.654297 0.015625)"/>
      <use xlink:href="#DejaVuSans-44" transform="translate(577.441406 0.015625)"/>
      <use xlink:href="#DejaVuSans-32" transform="translate(655.400391 -16.390625) scale(0.7)"/>
      <use xlink:href="#DejaVuSans-4f" transform="translate(702.670898 0.015625)"/>
      <use xlink:href="#DejaVuSans-20" transform="translate(781.381836 0.015625)"/>
      <use xlink:href="#DejaVuSans-2191" transform="translate(813.168945 0.015625)"/>
     </g>
    </g>
    <g id="line2d_17">
     <path d="M 334.33424 44.25184 
L 347.66224 44.25184 
L 360.99024 44.25184 
" style="fill: none; stroke: #1f77b4; stroke-width: 1.5; stroke-linecap: square"/>
    </g>
    <g id="text_17">
     <!-- Lipids TRIS D$_2$O ↓ -->
     <g transform="translate(371.65264 48.91664) scale(0.13328 -0.13328)">
      <defs>
       <path id="DejaVuSans-2193" d="M 2822 -22 
L 2541 -22 
L 1309 1209 
L 1684 1584 
L 2416 853 
L 2416 4666 
L 2947 4666 
L 2947 853 
L 3672 1584 
L 4047 1209 
L 2822 -22 
z
" transform="scale(0.015625)"/>
      </defs>
      <use xlink:href="#DejaVuSans-4c" transform="translate(0 0.015625)"/>
      <use xlink:href="#DejaVuSans-69" transform="translate(55.712891 0.015625)"/>
      <use xlink:href="#DejaVuSans-70" transform="translate(83.496094 0.015625)"/>
      <use xlink:href="#DejaVuSans-69" transform="translate(146.972656 0.015625)"/>
      <use xlink:href="#DejaVuSans-64" transform="translate(174.755859 0.015625)"/>
      <use xlink:href="#DejaVuSans-73" transform="translate(238.232422 0.015625)"/>
      <use xlink:href="#DejaVuSans-20" transform="translate(290.332031 0.015625)"/>
      <use xlink:href="#DejaVuSans-54" transform="translate(322.119141 0.015625)"/>
      <use xlink:href="#DejaVuSans-52" transform="translate(383.203125 0.015625)"/>
      <use xlink:href="#DejaVuSans-49" transform="translate(452.685547 0.015625)"/>
      <use xlink:href="#DejaVuSans-53" transform="translate(482.177734 0.015625)"/>
      <use xlink:href="#DejaVuSans-20" transform="translate(545.654297 0.015625)"/>
      <use xlink:href="#DejaVuSans-44" transform="translate(577.441406 0.015625)"/>
      <use xlink:href="#DejaVuSans-32" transform="translate(655.400391 -16.390625) scale(0.7)"/>
      <use xlink:href="#DejaVuSans-4f" transform="translate(702.670898 0.015625)"/>
      <use xlink:href="#DejaVuSans-20" transform="translate(781.381836 0.015625)"/>
      <use xlink:href="#DejaVuSans-2193" transform="translate(813.168945 0.015625)"/>
     </g>
    </g>
   </g>
  </g>
 </g>
 <defs>
  <clipPath id="p53e6a2f0a1">
   <rect x="56.8" y="7.2" width="446.4" height="332.64"/>
  </clipPath>
 </defs>
</svg>
