<?xml version="1.0" encoding="utf-8" standalone="no"?>
<!DOCTYPE svg PUBLIC "-//W3C//DTD SVG 1.1//EN"
  "http://www.w3.org/Graphics/SVG/1.1/DTD/svg11.dtd">
<svg xmlns:xlink="http://www.w3.org/1999/xlink" width="576pt" height="432pt" viewBox="0 0 576 432" xmlns="http://www.w3.org/2000/svg" version="1.1">
 <metadata>
  <rdf:RDF xmlns:dc="http://purl.org/dc/elements/1.1/" xmlns:cc="http://creativecommons.org/ns#" xmlns:rdf="http://www.w3.org/1999/02/22-rdf-syntax-ns#">
   <cc:Work>
    <dc:type rdf:resource="http://purl.org/dc/dcmitype/StillImage"/>
    <dc:date>2026-03-22T04:12:03.314014</dc:date>
    <dc:format>image/svg+xml</dc:format>
    <dc:creator>
     <cc:Agent>
      <dc:title>Matplotlib v3.10.8, https://matplotlib.org/</dc:title>
     </cc:Agent>
    </dc:creator>
   </cc:Work>
  </rdf:RDF>
 </metadata>
 <defs>
  <style type="text/css">*{stroke-linejoin: round; stroke-linecap: butt}</style>
 </defs>
 <g id="figure_1">
  <g id="patch_1">
   <path d="M 0 432 
L 576 432 
L 576 0 
L 0 0 
z
" style="fill: #ffffff"/>
  </g>
  <g id="axes_1">
   <g id="patch_2">
    <path d="M 80.64 371.52 
L 558.72 371.52 
L 558.72 12.96 
L 80.64 12.96 
z
" style="fill: #ffffff"/>
   </g>
   <g id="matplotlib.axis_1">
    <g id="xtick_1">
     <g id="line2d_1">
      <defs>
       <path id="md1a47bb48f" d="M 0 0 
L 0 7 
" style="stroke: #000000; stroke-width: 1.28"/>
      </defs>
      <g>
       <use xlink:href="#md1a47bb48f" x="82.036679" y="371.52" style="stroke: #000000; stroke-width: 1.28"/>
      </g>
     </g>
    </g>
    <g id="xtick_2">
     <g id="line2d_2">
      <g>
       <use xlink:href="#md1a47bb48f" x="140.134479" y="371.52" style="stroke: #000000; stroke-width: 1.28"/>
      </g>
     </g>
     <g id="text_1">
      <!-- 0 -->
      <g transform="translate(135.044479 394.1775) scale(0.16 -0.16)">
       <defs>
        <path id="DejaVuSans-30" d="M 2034 4250 
Q 1547 4250 1301 3770 
Q 1056 3291 1056 2328 
Q 1056 1369 1301 889 
Q 1547 409 2034 409 
Q 2525 409 2770 889 
Q 3016 1369 3016 2328 
Q 3016 3291 2770 3770 
Q 2525 4250 2034 4250 
z
M 2034 4750 
Q 2819 4750 3233 4129 
Q 3647 3509 3647 2328 
Q 3647 1150 3233 529 
Q 2819 -91 2034 -91 
Q 1250 -91 836 529 
Q 422 1150 422 2328 
Q 422 3509 836 4129 
Q 1250 4750 2034 4750 
z
" transform="scale(0.015625)"/>
       </defs>
       <use xlink:href="#DejaVuSans-30"/>
      </g>
     </g>
    </g>
    <g id="xtick_3">
     <g id="line2d_3">
      <g>
       <use xlink:href="#md1a47bb48f" x="198.23228" y="371.52" style="stroke: #000000; stroke-width: 1.28"/>
      </g>
     </g>
     <g id="text_2">
      <!-- 20 -->
      <g transform="translate(188.05228 394.1775) scale(0.16 -0.16)">
       <defs>
        <path id="DejaVuSans-32" d="M 1228 531 
L 3431 531 
L 3431 0 
L 469 0 
L 469 531 
Q 828 903 1448 1529 
Q 2069 2156 2228 2338 
Q 2531 2678 2651 2914 
Q 2772 3150 2772 3378 
Q 2772 3750 2511 3984 
Q 2250 4219 1831 4219 
Q 1534 4219 1204 4116 
Q 875 4013 500 3803 
L 500 4441 
Q 881 4594 1212 4672 
Q 1544 4750 1819 4750 
Q 2544 4750 2975 4387 
Q 3406 4025 3406 3419 
Q 3406 3131 3298 2873 
Q 3191 2616 2906 2266 
Q 2828 2175 2409 1742 
Q 1991 1309 1228 531 
z
" transform="scale(0.015625)"/>
       </defs>
       <use xlink:href="#DejaVuSans-32"/>
       <use xlink:href="#DejaVuSans-30" transform="translate(63.623047 0)"/>
      </g>
     </g>
    </g>
    <g id="xtick_4">
     <g id="line2d_4">
      <g>
       <use xlink:href="#md1a47bb48f" x="256.33008" y="371.52" style="stroke: #000000; stroke-width: 1.28"/>
      </g>
     </g>
     <g id="text_3">
      <!-- 40 -->
      <g transform="translate(246.15008 394.1775) scale(0.16 -0.16)">
       <defs>
        <path id="DejaVuSans-34" d="M 2419 4116 
L 825 1625 
L 2419 1625 
L 2419 4116 
z
M 2253 4666 
L 3047 4666 
L 3047 1625 
L 3713 1625 
L 3713 1100 
L 3047 1100 
L 3047 0 
L 2419 0 
L 2419 1100 
L 313 1100 
L 313 1709 
L 2253 4666 
z
" transform="scale(0.015625)"/>
       </defs>
       <use xlink:href="#DejaVuSans-34"/>
       <use xlink:href="#DejaVuSans-30" transform="translate(63.623047 0)"/>
      </g>
     </g>
    </g>
    <g id="xtick_5">
     <g id="line2d_5">
      <g>
       <use xlink:href="#md1a47bb48f" x="314.427881" y="371.52" style="stroke: #000000; stroke-width: 1.28"/>
      </g>
     </g>
     <g id="text_4">
      <!-- 60 -->
      <g transform="translate(304.247881 394.1775) scale(0.16 -0.16)">
       <defs>
        <path id="DejaVuSans-36" d="M 2113 2584 
Q 1688 2584 1439 2293 
Q 1191 2003 1191 1497 
Q 1191 994 1439 701 
Q 1688 409 2113 409 
Q 2538 409 2786 701 
Q 3034 994 3034 1497 
Q 3034 2003 2786 2293 
Q 2538 2584 2113 2584 
z
M 3366 4563 
L 3366 3988 
Q 3128 4100 2886 4159 
Q 2644 4219 2406 4219 
Q 1781 4219 1451 3797 
Q 1122 3375 1075 2522 
Q 1259 2794 1537 2939 
Q 1816 3084 2150 3084 
Q 2853 3084 3261 2657 
Q 3669 2231 3669 1497 
Q 3669 778 3244 343 
Q 2819 -91 2113 -91 
Q 1303 -91 875 529 
Q 447 1150 447 2328 
Q 447 3434 972 4092 
Q 1497 4750 2381 4750 
Q 2619 4750 2861 4703 
Q 3103 4656 3366 4563 
z
" transform="scale(0.015625)"/>
       </defs>
       <use xlink:href="#DejaVuSans-36"/>
       <use xlink:href="#DejaVuSans-30" transform="translate(63.623047 0)"/>
      </g>
     </g>
    </g>
    <g id="xtick_6">
     <g id="line2d_6">
      <g>
       <use xlink:href="#md1a47bb48f" x="372.525681" y="371.52" style="stroke: #000000; stroke-width: 1.28"/>
      </g>
     </g>
     <g id="text_5">
      <!-- 80 -->
      <g transform="translate(362.345681 394.1775) scale(0.16 -0.16)">
       <defs>
        <path id="DejaVuSans-38" d="M 2034 2216 
Q 1584 2216 1326 1975 
Q 1069 1734 1069 1313 
Q 1069 891 1326 650 
Q 1584 409 2034 409 
Q 2484 409 2743 651 
Q 3003 894 3003 1313 
Q 3003 1734 2745 1975 
Q 2488 2216 2034 2216 
z
M 1403 2484 
Q 997 2584 770 2862 
Q 544 3141 544 3541 
Q 544 4100 942 4425 
Q 1341 4750 2034 4750 
Q 2731 4750 3128 4425 
Q 3525 4100 3525 3541 
Q 3525 3141 3298 2862 
Q 3072 2584 2669 2484 
Q 3125 2378 3379 2068 
Q 3634 1759 3634 1313 
Q 3634 634 3220 271 
Q 2806 -91 2034 -91 
Q 1263 -91 848 271 
Q 434 634 434 1313 
Q 434 1759 690 2068 
Q 947 2378 1403 2484 
z
M 1172 3481 
Q 1172 3119 1398 2916 
Q 1625 2713 2034 2713 
Q 2441 2713 2670 2916 
Q 2900 3119 2900 3481 
Q 2900 3844 2670 4047 
Q 2441 4250 2034 4250 
Q 1625 4250 1398 4047 
Q 1172 3844 1172 3481 
z
" transform="scale(0.015625)"/>
       </defs>
       <use xlink:href="#DejaVuSans-38"/>
       <use xlink:href="#DejaVuSans-30" transform="translate(63.623047 0)"/>
      </g>
     </g>
    </g>
    <g id="xtick_7">
     <g id="line2d_7">
      <g>
       <use xlink:href="#md1a47bb48f" x="430.623482" y="371.52" style="stroke: #000000; stroke-width: 1.28"/>
      </g>
     </g>
     <g id="text_6">
      <!-- 100 -->
      <g transform="translate(415.353482 394.1775) scale(0.16 -0.16)">
       <defs>
        <path id="DejaVuSans-31" d="M 794 531 
L 1825 531 
L 1825 4091 
L 703 3866 
L 703 4441 
L 1819 4666 
L 2450 4666 
L 2450 531 
L 3481 531 
L 3481 0 
L 794 0 
L 794 531 
z
" transform="scale(0.015625)"/>
       </defs>
       <use xlink:href="#DejaVuSans-31"/>
       <use xlink:href="#DejaVuSans-30" transform="translate(63.623047 0)"/>
       <use xlink:href="#DejaVuSans-30" transform="translate(127.246094 0)"/>
      </g>
     </g>
    </g>
    <g id="xtick_8">
     <g id="line2d_8">
      <g>
       <use xlink:href="#md1a47bb48f" x="488.721282" y="371.52" style="stroke: #000000; stroke-width: 1.28"/>
      </g>
     </g>
     <g id="text_7">
      <!-- 120 -->
      <g transform="translate(473.451282 394.1775) scale(0.16 -0.16)">
       <use xlink:href="#DejaVuSans-31"/>
       <use xlink:href="#DejaVuSans-32" transform="translate(63.623047 0)"/>
       <use xlink:href="#DejaVuSans-30" transform="translate(127.246094 0)"/>
      </g>
     </g>
    </g>
    <g id="xtick_9">
     <g id="line2d_9">
      <g>
       <use xlink:href="#md1a47bb48f" x="546.819082" y="371.52" style="stroke: #000000; stroke-width: 1.28"/>
      </g>
     </g>
     <g id="text_8">
      <!-- 140 -->
      <g transform="translate(531.549082 394.1775) scale(0.16 -0.16)">
       <use xlink:href="#DejaVuSans-31"/>
       <use xlink:href="#DejaVuSans-34" transform="translate(63.623047 0)"/>
       <use xlink:href="#DejaVuSans-30" transform="translate(127.246094 0)"/>
      </g>
     </g>
    </g>
    <g id="text_9">
     <!-- Sample depth [Å] -->
     <g transform="translate(249.59625 416.3575) scale(0.16 -0.16)">
      <defs>
       <path id="DejaVuSans-53" d="M 3425 4513 
L 3425 3897 
Q 3066 4069 2747 4153 
Q 2428 4238 2131 4238 
Q 1616 4238 1336 4038 
Q 1056 3838 1056 3469 
Q 1056 3159 1242 3001 
Q 1428 2844 1947 2747 
L 2328 2669 
Q 3034 2534 3370 2195 
Q 3706 1856 3706 1288 
Q 3706 609 3251 259 
Q 2797 -91 1919 -91 
Q 1588 -91 1214 -16 
Q 841 59 441 206 
L 441 856 
Q 825 641 1194 531 
Q 1563 422 1919 422 
Q 2459 422 2753 634 
Q 3047 847 3047 1241 
Q 3047 1584 2836 1778 
Q 2625 1972 2144 2069 
L 1759 2144 
Q 1053 2284 737 2584 
Q 422 2884 422 3419 
Q 422 4038 858 4394 
Q 1294 4750 2059 4750 
Q 2388 4750 2728 4690 
Q 3069 4631 3425 4513 
z
" transform="scale(0.015625)"/>
       <path id="DejaVuSans-61" d="M 2194 1759 
Q 1497 1759 1228 1600 
Q 959 1441 959 1056 
Q 959 750 1161 570 
Q 1363 391 1709 391 
Q 2188 391 2477 730 
Q 2766 1069 2766 1631 
L 2766 1759 
L 2194 1759 
z
M 3341 1997 
L 3341 0 
L 2766 0 
L 2766 531 
Q 2569 213 2275 61 
Q 1981 -91 1556 -91 
Q 1019 -91 701 211 
Q 384 513 384 1019 
Q 384 1609 779 1909 
Q 1175 2209 1959 2209 
L 2766 2209 
L 2766 2266 
Q 2766 2663 2505 2880 
Q 2244 3097 1772 3097 
Q 1472 3097 1187 3025 
Q 903 2953 641 2809 
L 641 3341 
Q 956 3463 1253 3523 
Q 1550 3584 1831 3584 
Q 2591 3584 2966 3190 
Q 3341 2797 3341 1997 
z
" transform="scale(0.015625)"/>
       <path id="DejaVuSans-6d" d="M 3328 2828 
Q 3544 3216 3844 3400 
Q 4144 3584 4550 3584 
Q 5097 3584 5394 3201 
Q 5691 2819 5691 2113 
L 5691 0 
L 5113 0 
L 5113 2094 
Q 5113 2597 4934 2840 
Q 4756 3084 4391 3084 
Q 3944 3084 3684 2787 
Q 3425 2491 3425 1978 
L 3425 0 
L 2847 0 
L 2847 2094 
Q 2847 2600 2669 2842 
Q 2491 3084 2119 3084 
Q 1678 3084 1418 2786 
Q 1159 2488 1159 1978 
L 1159 0 
L 581 0 
L 581 3500 
L 1159 3500 
L 1159 2956 
Q 1356 3278 1631 3431 
Q 1906 3584 2284 3584 
Q 2666 3584 2933 3390 
Q 3200 3197 3328 2828 
z
" transform="scale(0.015625)"/>
       <path id="DejaVuSans-70" d="M 1159 525 
L 1159 -1331 
L 581 -1331 
L 581 3500 
L 1159 3500 
L 1159 2969 
Q 1341 3281 1617 3432 
Q 1894 3584 2278 3584 
Q 2916 3584 3314 3078 
Q 3713 2572 3713 1747 
Q 3713 922 3314 415 
Q 2916 -91 2278 -91 
Q 1894 -91 1617 61 
Q 1341 213 1159 525 
z
M 3116 1747 
Q 3116 2381 2855 2742 
Q 2594 3103 2138 3103 
Q 1681 3103 1420 2742 
Q 1159 2381 1159 1747 
Q 1159 1113 1420 752 
Q 1681 391 2138 391 
Q 2594 391 2855 752 
Q 3116 1113 3116 1747 
z
" transform="scale(0.015625)"/>
       <path id="DejaVuSans-6c" d="M 603 4863 
L 1178 4863 
L 1178 0 
L 603 0 
L 603 4863 
z
" transform="scale(0.015625)"/>
       <path id="DejaVuSans-65" d="M 3597 1894 
L 3597 1613 
L 953 1613 
Q 991 1019 1311 708 
Q 1631 397 2203 397 
Q 2534 397 2845 478 
Q 3156 559 3463 722 
L 3463 178 
Q 3153 47 2828 -22 
Q 2503 -91 2169 -91 
Q 1331 -91 842 396 
Q 353 884 353 1716 
Q 353 2575 817 3079 
Q 1281 3584 2069 3584 
Q 2775 3584 3186 3129 
Q 3597 2675 3597 1894 
z
M 3022 2063 
Q 3016 2534 2758 2815 
Q 2500 3097 2075 3097 
Q 1594 3097 1305 2825 
Q 1016 2553 972 2059 
L 3022 2063 
z
" transform="scale(0.015625)"/>
       <path id="DejaVuSans-20" transform="scale(0.015625)"/>
       <path id="DejaVuSans-64" d="M 2906 2969 
L 2906 4863 
L 3481 4863 
L 3481 0 
L 2906 0 
L 2906 525 
Q 2725 213 2448 61 
Q 2172 -91 1784 -91 
Q 1150 -91 751 415 
Q 353 922 353 1747 
Q 353 2572 751 3078 
Q 1150 3584 1784 3584 
Q 2172 3584 2448 3432 
Q 2725 3281 2906 2969 
z
M 947 1747 
Q 947 1113 1208 752 
Q 1469 391 1925 391 
Q 2381 391 2643 752 
Q 2906 1113 2906 1747 
Q 2906 2381 2643 2742 
Q 2381 3103 1925 3103 
Q 1469 3103 1208 2742 
Q 947 2381 947 1747 
z
" transform="scale(0.015625)"/>
       <path id="DejaVuSans-74" d="M 1172 4494 
L 1172 3500 
L 2356 3500 
L 2356 3053 
L 1172 3053 
L 1172 1153 
Q 1172 725 1289 603 
Q 1406 481 1766 481 
L 2356 481 
L 2356 0 
L 1766 0 
Q 1100 0 847 248 
Q 594 497 594 1153 
L 594 3053 
L 172 3053 
L 172 3500 
L 594 3500 
L 594 4494 
L 1172 4494 
z
" transform="scale(0.015625)"/>
       <path id="DejaVuSans-68" d="M 3513 2113 
L 3513 0 
L 2938 0 
L 2938 2094 
Q 2938 2591 2744 2837 
Q 2550 3084 2163 3084 
Q 1697 3084 1428 2787 
Q 1159 2491 1159 1978 
L 1159 0 
L 581 0 
L 581 4863 
L 1159 4863 
L 1159 2956 
Q 1366 3272 1645 3428 
Q 1925 3584 2291 3584 
Q 2894 3584 3203 3211 
Q 3513 2838 3513 2113 
z
" transform="scale(0.015625)"/>
       <path id="DejaVuSans-5b" d="M 550 4863 
L 1875 4863 
L 1875 4416 
L 1125 4416 
L 1125 -397 
L 1875 -397 
L 1875 -844 
L 550 -844 
L 550 4863 
z
" transform="scale(0.015625)"/>
       <path id="DejaVuSans-c5" d="M 2663 5081 
Q 2663 5278 2523 5417 
Q 2384 5556 2188 5556 
Q 1988 5556 1852 5420 
Q 1716 5284 1716 5081 
Q 1716 4884 1853 4746 
Q 1991 4609 2188 4609 
Q 2384 4609 2523 4746 
Q 2663 4884 2663 5081 
z
M 2188 4044 
L 1338 1722 
L 3041 1722 
L 2188 4044 
z
M 1716 4366 
Q 1525 4494 1428 4673 
Q 1331 4853 1331 5081 
Q 1331 5441 1579 5691 
Q 1828 5941 2188 5941 
Q 2544 5941 2795 5689 
Q 3047 5438 3047 5081 
Q 3047 4863 2948 4678 
Q 2850 4494 2663 4366 
L 4325 0 
L 3669 0 
L 3244 1197 
L 1141 1197 
L 716 0 
L 50 0 
L 1716 4366 
z
" transform="scale(0.015625)"/>
       <path id="DejaVuSans-5d" d="M 1947 4863 
L 1947 -844 
L 622 -844 
L 622 -397 
L 1369 -397 
L 1369 4416 
L 622 4416 
L 622 4863 
L 1947 4863 
z
" transform="scale(0.015625)"/>
      </defs>
      <use xlink:href="#DejaVuSans-53"/>
      <use xlink:href="#DejaVuSans-61" transform="translate(63.476562 0)"/>
      <use xlink:href="#DejaVuSans-6d" transform="translate(124.755859 0)"/>
      <use xlink:href="#DejaVuSans-70" transform="translate(222.167969 0)"/>
      <use xlink:href="#DejaVuSans-6c" transform="translate(285.644531 0)"/>
      <use xlink:href="#DejaVuSans-65" transform="translate(313.427734 0)"/>
      <use xlink:href="#DejaVuSans-20" transform="translate(374.951172 0)"/>
      <use xlink:href="#DejaVuSans-64" transform="translate(406.738281 0)"/>
      <use xlink:href="#DejaVuSans-65" transform="translate(470.214844 0)"/>
      <use xlink:href="#DejaVuSans-70" transform="translate(531.738281 0)"/>
      <use xlink:href="#DejaVuSans-74" transform="translate(595.214844 0)"/>
      <use xlink:href="#DejaVuSans-68" transform="translate(634.423828 0)"/>
      <use xlink:href="#DejaVuSans-20" transform="translate(697.802734 0)"/>
      <use xlink:href="#DejaVuSans-5b" transform="translate(729.589844 0)"/>
      <use xlink:href="#DejaVuSans-c5" transform="translate(768.603516 0)"/>
      <use xlink:href="#DejaVuSans-5d" transform="translate(837.011719 0)"/>
     </g>
    </g>
   </g>
   <g id="matplotlib.axis_2">
    <g id="ytick_1">
     <g id="line2d_10">
      <defs>
       <path id="m30eca03893" d="M 0 0 
L -7 0 
" style="stroke: #000000; stroke-width: 1.28"/>
      </defs>
      <g>
       <use xlink:href="#m30eca03893" x="80.64" y="318.958901" style="stroke: #000000; stroke-width: 1.28"/>
      </g>
     </g>
     <g id="text_10">
      <!-- 2 -->
      <g transform="translate(59.96 325.037651) scale(0.16 -0.16)">
       <use xlink:href="#DejaVuSans-32"/>
      </g>
     </g>
    </g>
    <g id="ytick_2">
     <g id="line2d_11">
      <g>
       <use xlink:href="#m30eca03893" x="80.64" y="263.147954" style="stroke: #000000; stroke-width: 1.28"/>
      </g>
     </g>
     <g id="text_11">
      <!-- 4 -->
      <g transform="translate(59.96 269.226704) scale(0.16 -0.16)">
       <use xlink:href="#DejaVuSans-34"/>
      </g>
     </g>
    </g>
    <g id="ytick_3">
     <g id="line2d_12">
      <g>
       <use xlink:href="#m30eca03893" x="80.64" y="207.337008" style="stroke: #000000; stroke-width: 1.28"/>
      </g>
     </g>
     <g id="text_12">
      <!-- 6 -->
      <g transform="translate(59.96 213.415758) scale(0.16 -0.16)">
       <use xlink:href="#DejaVuSans-36"/>
      </g>
     </g>
    </g>
    <g id="ytick_4">
     <g id="line2d_13">
      <g>
       <use xlink:href="#m30eca03893" x="80.64" y="151.526061" style="stroke: #000000; stroke-width: 1.28"/>
      </g>
     </g>
     <g id="text_13">
      <!-- 8 -->
      <g transform="translate(59.96 157.604811) scale(0.16 -0.16)">
       <use xlink:href="#DejaVuSans-38"/>
      </g>
     </g>
    </g>
    <g id="ytick_5">
     <g id="line2d_14">
      <g>
       <use xlink:href="#m30eca03893" x="80.64" y="95.715114" style="stroke: #000000; stroke-width: 1.28"/>
      </g>
     </g>
     <g id="text_14">
      <!-- 10 -->
      <g transform="translate(49.78 101.793864) scale(0.16 -0.16)">
       <use xlink:href="#DejaVuSans-31"/>
       <use xlink:href="#DejaVuSans-30" transform="translate(63.623047 0)"/>
      </g>
     </g>
    </g>
    <g id="ytick_6">
     <g id="line2d_15">
      <g>
       <use xlink:href="#m30eca03893" x="80.64" y="39.904168" style="stroke: #000000; stroke-width: 1.28"/>
      </g>
     </g>
     <g id="text_15">
      <!-- 12 -->
      <g transform="translate(49.78 45.982918) scale(0.16 -0.16)">
       <use xlink:href="#DejaVuSans-31"/>
       <use xlink:href="#DejaVuSans-32" transform="translate(63.623047 0)"/>
      </g>
     </g>
    </g>
    <g id="text_16">
     <!-- SLD, $\rho\ [\times 10^{-6}\ \mathrm{\AA^{-2}}]$ -->
     <g transform="translate(42.42 269.04) rotate(-90) scale(0.16 -0.16)">
      <defs>
       <path id="DejaVuSans-4c" d="M 628 4666 
L 1259 4666 
L 1259 531 
L 3531 531 
L 3531 0 
L 628 0 
L 628 4666 
z
" transform="scale(0.015625)"/>
       <path id="DejaVuSans-44" d="M 1259 4147 
L 1259 519 
L 2022 519 
Q 2988 519 3436 956 
Q 3884 1394 3884 2338 
Q 3884 3275 3436 3711 
Q 2988 4147 2022 4147 
L 1259 4147 
z
M 628 4666 
L 1925 4666 
Q 3281 4666 3915 4102 
Q 4550 3538 4550 2338 
Q 4550 1131 3912 565 
Q 3275 0 1925 0 
L 628 0 
L 628 4666 
z
" transform="scale(0.015625)"/>
       <path id="DejaVuSans-2c" d="M 750 794 
L 1409 794 
L 1409 256 
L 897 -744 
L 494 -744 
L 750 256 
L 750 794 
z
" transform="scale(0.015625)"/>
       <path id="DejaVuSans-Oblique-3c1" d="M 1203 2875 
Q 1453 3194 1981 3475 
Q 2188 3584 2756 3584 
Q 3394 3584 3694 3078 
Q 3994 2572 3834 1747 
Q 3672 922 3175 415 
Q 2678 -91 2041 -91 
Q 1656 -91 1409 63 
Q 1163 213 1044 525 
L 681 -1331 
L 103 -1331 
L 697 1716 
Q 838 2438 1203 2875 
z
M 3238 1747 
Q 3359 2381 3169 2744 
Q 2978 3103 2522 3103 
Q 2066 3103 1734 2744 
Q 1403 2381 1281 1747 
Q 1156 1113 1347 750 
Q 1538 391 1994 391 
Q 2450 391 2781 750 
Q 3113 1113 3238 1747 
z
" transform="scale(0.015625)"/>
       <path id="DejaVuSans-d7" d="M 4488 3438 
L 3059 2003 
L 4488 575 
L 4116 197 
L 2681 1631 
L 1247 197 
L 878 575 
L 2303 2003 
L 878 3438 
L 1247 3816 
L 2681 2381 
L 4116 3816 
L 4488 3438 
z
" transform="scale(0.015625)"/>
       <path id="DejaVuSans-2212" d="M 678 2272 
L 4684 2272 
L 4684 1741 
L 678 1741 
L 678 2272 
z
" transform="scale(0.015625)"/>
      </defs>
      <use xlink:href="#DejaVuSans-53" transform="translate(0 0.171875)"/>
      <use xlink:href="#DejaVuSans-4c" transform="translate(63.476562 0.171875)"/>
      <use xlink:href="#DejaVuSans-44" transform="translate(119.189453 0.171875)"/>
      <use xlink:href="#DejaVuSans-2c" transform="translate(196.191406 0.171875)"/>
      <use xlink:href="#DejaVuSans-20" transform="translate(227.978516 0.171875)"/>
      <use xlink:href="#DejaVuSans-Oblique-3c1" transform="translate(259.765625 0.171875)"/>
      <use xlink:href="#DejaVuSans-5b" transform="translate(355.712566 0.171875)"/>
      <use xlink:href="#DejaVuSans-d7" transform="translate(394.726238 0.171875)"/>
      <use xlink:href="#DejaVuSans-31" transform="translate(478.5153 0.171875)"/>
      <use xlink:href="#DejaVuSans-30" transform="translate(542.138347 0.171875)"/>
      <use xlink:href="#DejaVuSans-2212" transform="translate(606.718425 38.453125) scale(0.7)"/>
      <use xlink:href="#DejaVuSans-36" transform="translate(665.370769 38.453125) scale(0.7)"/>
      <use xlink:href="#DejaVuSans-c5" transform="translate(745.111655 0.171875)"/>
      <use xlink:href="#DejaVuSans-2212" transform="translate(814.47689 38.453125) scale(0.7)"/>
      <use xlink:href="#DejaVuSans-32" transform="translate(873.129233 38.453125) scale(0.7)"/>
      <use xlink:href="#DejaVuSans-5d" transform="translate(920.399741 0.171875)"/>
     </g>
    </g>
   </g>
   <g id="line2d_16">
    <path d="M 102.370909 316.893896 
L 123.274389 316.818843 
L 125.887324 316.606536 
L 127.62928 316.25903 
L 129.371237 315.599608 
L 130.242215 315.099875 
L 131.113194 314.455128 
L 131.984172 313.641739 
L 132.85515 312.638363 
L 133.726129 311.428077 
L 134.597107 310.000601 
L 136.339064 306.497767 
L 138.08102 302.243235 
L 144.177868 286.255679 
L 145.919825 282.873087 
L 146.790803 281.508024 
L 147.661782 280.358024 
L 148.53276 279.410695 
L 149.403738 278.647632 
L 150.274717 278.046627 
L 152.016673 277.235195 
L 153.75863 276.793715 
L 156.371565 276.513723 
L 160.726457 276.416561 
L 189.468741 276.408595 
L 229.533744 276.514147 
L 232.146679 276.715809 
L 234.759614 277.158373 
L 236.50157 277.645424 
L 238.243527 278.306682 
L 240.856462 279.584434 
L 246.082332 282.36837 
L 247.824289 283.089579 
L 249.566245 283.637811 
L 252.17918 284.15518 
L 254.792115 284.401774 
L 259.147007 284.514134 
L 263.501898 284.442423 
L 266.114833 284.229513 
L 267.85679 283.923782 
L 269.598747 283.40212 
L 271.340703 282.580823 
L 273.08266 281.38395 
L 274.824617 279.76188 
L 276.566573 277.703076 
L 278.30853 275.231143 
L 280.050486 272.386194 
L 281.792443 269.198952 
L 283.5344 265.671771 
L 285.276356 261.778307 
L 287.018313 257.484139 
L 289.631248 250.286482 
L 293.115161 239.729863 
L 295.728096 231.945132 
L 297.470053 227.31785 
L 299.212009 223.453967 
L 300.082988 221.879206 
L 300.953966 220.571704 
L 301.824944 219.546657 
L 302.695923 218.813389 
L 303.566901 218.375143 
L 304.437879 218.229073 
L 305.308858 218.36644 
L 306.179836 218.772987 
L 307.050814 219.42949 
L 307.921793 220.312437 
L 309.663749 222.647032 
L 311.405706 225.534835 
L 317.502554 236.515901 
L 319.244511 239.137014 
L 320.986467 241.344557 
L 322.728424 243.12534 
L 324.470381 244.507772 
L 326.212337 245.549953 
L 327.954294 246.328861 
L 330.567229 247.198636 
L 334.051142 248.325705 
L 335.793099 249.131163 
L 337.535056 250.274983 
L 339.277012 251.908258 
L 340.147991 252.958201 
L 341.018969 254.190249 
L 341.889947 255.623438 
L 343.631904 259.161274 
L 345.37386 263.681182 
L 347.115817 269.233592 
L 348.857774 275.789506 
L 350.59973 283.228692 
L 353.212665 295.562576 
L 357.567557 316.685384 
L 359.309514 324.388354 
L 361.05147 331.271758 
L 362.793427 337.18266 
L 364.535383 342.060297 
L 366.27734 345.928156 
L 368.019297 348.87554 
L 369.761253 351.033823 
L 371.50321 352.552567 
L 373.245167 353.579558 
L 374.987123 354.246906 
L 376.72908 354.663626 
L 379.342015 354.996017 
L 382.825928 355.162483 
L 390.664733 355.220151 
L 416.794083 355.132929 
L 420.277996 354.897893 
L 422.890931 354.446281 
L 424.632888 353.895564 
L 426.374844 353.033826 
L 428.116801 351.738059 
L 428.987779 350.883375 
L 429.858758 349.865724 
L 430.729736 348.666067 
L 431.600714 347.265895 
L 433.342671 343.796837 
L 435.084627 339.348647 
L 436.826584 333.86764 
L 438.568541 327.377668 
L 440.310497 319.993009 
L 442.923432 307.70761 
L 448.149302 282.591592 
L 449.891259 275.217906 
L 451.633216 268.74082 
L 453.375172 263.27295 
L 455.117129 258.836204 
L 456.859085 255.374481 
L 458.601042 252.774512 
L 460.342999 250.889392 
L 462.084955 249.559913 
L 463.826912 248.630391 
L 465.568869 247.957719 
L 471.665717 245.89624 
L 473.407674 244.966532 
L 475.14963 243.719022 
L 476.891587 242.079607 
L 478.633543 239.994225 
L 480.3755 237.438185 
L 482.117457 234.424526 
L 483.859413 231.008751 
L 486.472348 225.352831 
L 490.82724 215.685478 
L 492.569197 212.166063 
L 494.311153 209.024153 
L 496.05311 206.328756 
L 497.795066 204.10669 
L 499.537023 202.34635 
L 501.27898 201.006238 
L 503.020936 200.025865 
L 504.762893 199.336663 
L 506.50485 198.871071 
L 509.117785 198.462978 
L 512.601698 198.230036 
L 518.698546 198.137081 
L 536.989091 198.128202 
L 536.989091 198.128202 
" clip-path="url(#p692121f910)" style="fill: none; stroke-dasharray: 6.66,2.88; stroke-dashoffset: 0; stroke: #1f77b4; stroke-width: 1.8"/>
   </g>
   <g id="line2d_17">
    <path d="M 102.370909 316.893896 
L 123.274389 316.818843 
L 125.887324 316.606536 
L 127.62928 316.25903 
L 129.371237 315.599608 
L 130.242215 315.099875 
L 131.113194 314.455128 
L 131.984172 313.641739 
L 132.85515 312.638363 
L 133.726129 311.428077 
L 134.597107 310.000601 
L 136.339064 306.497767 
L 138.08102 302.243235 
L 144.177868 286.255679 
L 145.919825 282.873087 
L 146.790803 281.508024 
L 147.661782 280.358024 
L 148.53276 279.410695 
L 149.403738 278.647632 
L 150.274717 278.046627 
L 152.016673 277.235195 
L 153.75863 276.793715 
L 156.371565 276.513723 
L 160.726457 276.416561 
L 189.468741 276.408595 
L 222.565917 276.332771 
L 224.307874 276.189361 
L 226.049831 275.82572 
L 226.920809 275.487378 
L 227.791787 274.982374 
L 228.662766 274.245334 
L 229.533744 273.193506 
L 230.404722 271.725742 
L 231.2757 269.723002 
L 232.146679 267.050912 
L 233.017657 263.564853 
L 233.888635 259.117762 
L 234.759614 253.570549 
L 235.630592 246.80456 
L 236.50157 238.735085 
L 237.372549 229.324496 
L 239.114505 206.627806 
L 240.856462 179.673367 
L 245.211354 107.625046 
L 246.95331 83.258075 
L 247.824289 72.907444 
L 248.695267 63.889941 
L 249.566245 56.208157 
L 250.437224 49.809447 
L 251.308202 44.597827 
L 252.17918 40.447415 
L 253.050158 37.215803 
L 253.921137 34.756096 
L 254.792115 32.926726 
L 255.663093 31.598679 
L 256.534072 30.660128 
L 257.40505 30.018839 
L 258.276028 29.602887 
L 259.147007 29.36029 
L 260.017985 29.258182 
L 260.888963 29.281994 
L 261.759942 29.434997 
L 262.63092 29.738348 
L 263.501898 30.231605 
L 264.372877 30.973476 
L 265.243855 32.042386 
L 266.114833 33.536343 
L 266.985812 35.571466 
L 267.85679 38.278614 
L 268.727768 41.797625 
L 269.598747 46.268983 
L 270.469725 51.823041 
L 271.340703 58.567415 
L 272.211682 66.573574 
L 273.08266 75.864075 
L 274.824617 98.084713 
L 276.566573 124.140929 
L 280.050486 179.059189 
L 281.792443 202.860466 
L 282.663421 212.938332 
L 283.5344 221.605157 
L 284.405378 228.799023 
L 285.276356 234.522265 
L 286.147335 238.83295 
L 287.018313 241.833378 
L 287.889291 243.65727 
L 288.76027 244.457131 
L 289.631248 244.392984 
L 290.502226 243.623249 
L 291.373205 242.298096 
L 292.244183 240.555219 
L 293.98614 236.29363 
L 297.470053 227.212203 
L 299.212009 223.419602 
L 300.082988 221.860221 
L 300.953966 220.561437 
L 301.824944 219.541222 
L 302.695923 218.810573 
L 303.566901 218.373715 
L 304.437879 218.228365 
L 305.308858 218.366095 
L 306.179836 218.772824 
L 307.050814 219.429414 
L 307.921793 220.312402 
L 309.663749 222.647026 
L 311.405706 225.534834 
L 317.502554 236.515901 
L 319.244511 239.137014 
L 320.986467 241.344557 
L 322.728424 243.12534 
L 324.470381 244.507772 
L 326.212337 245.549953 
L 327.954294 246.328861 
L 330.567229 247.198636 
L 334.051142 248.325705 
L 335.793099 249.131163 
L 337.535056 250.274983 
L 339.277012 251.908258 
L 340.147991 252.958201 
L 341.018969 254.190249 
L 341.889947 255.623438 
L 343.631904 259.161274 
L 345.37386 263.681182 
L 347.115817 269.233592 
L 348.857774 275.789506 
L 350.59973 283.228692 
L 353.212665 295.562576 
L 357.567557 316.685384 
L 359.309514 324.388354 
L 361.05147 331.271758 
L 362.793427 337.18266 
L 364.535383 342.060297 
L 366.27734 345.928156 
L 368.019297 348.87554 
L 369.761253 351.033823 
L 371.50321 352.552567 
L 373.245167 353.579558 
L 374.987123 354.246906 
L 376.72908 354.663626 
L 379.342015 354.996017 
L 382.825928 355.162483 
L 390.664733 355.220151 
L 416.794083 355.132929 
L 420.277996 354.897893 
L 422.890931 354.446281 
L 424.632888 353.895564 
L 426.374844 353.033826 
L 428.116801 351.738059 
L 428.987779 350.883375 
L 429.858758 349.865724 
L 430.729736 348.666067 
L 431.600714 347.265895 
L 433.342671 343.796837 
L 435.084627 339.348647 
L 436.826584 333.86764 
L 438.568541 327.377668 
L 440.310497 319.993009 
L 442.923432 307.70761 
L 448.149302 282.591592 
L 449.891259 275.217906 
L 451.633216 268.74082 
L 453.375172 263.27295 
L 455.117129 258.836204 
L 456.859085 255.374481 
L 458.601042 252.774512 
L 460.342999 250.889392 
L 462.084955 249.559913 
L 463.826912 248.630391 
L 465.568869 247.957719 
L 471.665717 245.89624 
L 473.407674 244.966532 
L 475.14963 243.719022 
L 476.891587 242.079607 
L 478.633543 239.994225 
L 480.3755 237.438185 
L 482.117457 234.424526 
L 483.859413 231.008751 
L 486.472348 225.352831 
L 490.82724 215.685478 
L 492.569197 212.166063 
L 494.311153 209.024153 
L 496.05311 206.328756 
L 497.795066 204.10669 
L 499.537023 202.34635 
L 501.27898 201.006238 
L 503.020936 200.025865 
L 504.762893 199.336663 
L 506.50485 198.871071 
L 509.117785 198.462978 
L 512.601698 198.230036 
L 518.698546 198.137081 
L 536.989091 198.128202 
L 536.989091 198.128202 
" clip-path="url(#p692121f910)" style="fill: none; stroke: #1f77b4; stroke-width: 1.8; stroke-linecap: square"/>
   </g>
   <g id="patch_3">
    <path d="M 80.64 371.52 
L 80.64 12.96 
" style="fill: none; stroke: #000000; stroke-width: 1.6; stroke-linejoin: miter; stroke-linecap: square"/>
   </g>
   <g id="patch_4">
    <path d="M 558.72 371.52 
L 558.72 12.96 
" style="fill: none; stroke: #000000; stroke-width: 1.6; stroke-linejoin: miter; stroke-linecap: square"/>
   </g>
   <g id="patch_5">
    <path d="M 80.64 371.52 
L 558.72 371.52 
" style="fill: none; stroke: #000000; stroke-width: 1.6; stroke-linejoin: miter; stroke-linecap: square"/>
   </g>
   <g id="patch_6">
    <path d="M 80.64 12.96 
L 558.72 12.96 
" style="fill: none; stroke: #000000; stroke-width: 1.6; stroke-linejoin: miter; stroke-linecap: square"/>
   </g>
   <g id="legend_1">
    <g id="patch_7">
     <path d="M 396.51824 62.80672 
L 549.3904 62.80672 
Q 552.056 62.80672 552.056 60.14112 
L 552.056 22.2896 
Q 552.056 19.624 549.3904 19.624 
L 396.51824 19.624 
Q 393.85264 19.624 393.85264 22.2896 
L 393.85264 60.14112 
Q 393.85264 62.80672 396.51824 62.80672 
z
" style="fill: #ffffff; opacity: 0.8; stroke: #cccccc; stroke-linejoin: miter"/>
    </g>
    <g id="line2d_18">
     <path d="M 399.18384 30.41968 
L 407.84704 30.41968 
L 416.51024 30.41968 
" style="fill: none; stroke: #1f77b4; stroke-width: 1.8; stroke-linecap: square"/>
    </g>
    <g id="text_17">
     <!-- Lipids TRIS D$_2$O ↑ -->
     <g transform="translate(427.17264 35.08448) scale(0.13328 -0.13328)">
      <defs>
       <path id="DejaVuSans-69" d="M 603 3500 
L 1178 3500 
L 1178 0 
L 603 0 
L 603 3500 
z
M 603 4863 
L 1178 4863 
L 1178 4134 
L 603 4134 
L 603 4863 
z
" transform="scale(0.015625)"/>
       <path id="DejaVuSans-73" d="M 2834 3397 
L 2834 2853 
Q 2591 2978 2328 3040 
Q 2066 3103 1784 3103 
Q 1356 3103 1142 2972 
Q 928 2841 928 2578 
Q 928 2378 1081 2264 
Q 1234 2150 1697 2047 
L 1894 2003 
Q 2506 1872 2764 1633 
Q 3022 1394 3022 966 
Q 3022 478 2636 193 
Q 2250 -91 1575 -91 
Q 1294 -91 989 -36 
Q 684 19 347 128 
L 347 722 
Q 666 556 975 473 
Q 1284 391 1588 391 
Q 1994 391 2212 530 
Q 2431 669 2431 922 
Q 2431 1156 2273 1281 
Q 2116 1406 1581 1522 
L 1381 1569 
Q 847 1681 609 1914 
Q 372 2147 372 2553 
Q 372 3047 722 3315 
Q 1072 3584 1716 3584 
Q 2034 3584 2315 3537 
Q 2597 3491 2834 3397 
z
" transform="scale(0.015625)"/>
       <path id="DejaVuSans-54" d="M -19 4666 
L 3928 4666 
L 3928 4134 
L 2272 4134 
L 2272 0 
L 1638 0 
L 1638 4134 
L -19 4134 
L -19 4666 
z
" transform="scale(0.015625)"/>
       <path id="DejaVuSans-52" d="M 2841 2188 
Q 3044 2119 3236 1894 
Q 3428 1669 3622 1275 
L 4263 0 
L 3584 0 
L 2988 1197 
Q 2756 1666 2539 1819 
Q 2322 1972 1947 1972 
L 1259 1972 
L 1259 0 
L 628 0 
L 628 4666 
L 2053 4666 
Q 2853 4666 3247 4331 
Q 3641 3997 3641 3322 
Q 3641 2881 3436 2590 
Q 3231 2300 2841 2188 
z
M 1259 4147 
L 1259 2491 
L 2053 2491 
Q 2509 2491 2742 2702 
Q 2975 2913 2975 3322 
Q 2975 3731 2742 3939 
Q 2509 4147 2053 4147 
L 1259 4147 
z
" transform="scale(0.015625)"/>
       <path id="DejaVuSans-49" d="M 628 4666 
L 1259 4666 
L 1259 0 
L 628 0 
L 628 4666 
z
" transform="scale(0.015625)"/>
       <path id="DejaVuSans-4f" d="M 2522 4238 
Q 1834 4238 1429 3725 
Q 1025 3213 1025 2328 
Q 1025 1447 1429 934 
Q 1834 422 2522 422 
Q 3209 422 3611 934 
Q 4013 1447 4013 2328 
Q 4013 3213 3611 3725 
Q 3209 4238 2522 4238 
z
M 2522 4750 
Q 3503 4750 4090 4092 
Q 4678 3434 4678 2328 
Q 4678 1225 4090 567 
Q 3503 -91 2522 -91 
Q 1538 -91 948 565 
Q 359 1222 359 2328 
Q 359 3434 948 4092 
Q 1538 4750 2522 4750 
z
" transform="scale(0.015625)"/>
       <path id="DejaVuSans-2191" d="M 2541 4688 
L 2822 4688 
L 4047 3456 
L 3672 3081 
L 2947 3813 
L 2947 0 
L 2416 0 
L 2416 3813 
L 1684 3081 
L 1309 3456 
L 2541 4688 
z
" transform="scale(0.015625)"/>
      </defs>
      <use xlink:href="#DejaVuSans-4c" transform="translate(0 0.015625)"/>
      <use xlink:href="#DejaVuSans-69" transform="translate(55.712891 0.015625)"/>
      <use xlink:href="#DejaVuSans-70" transform="translate(83.496094 0.015625)"/>
      <use xlink:href="#DejaVuSans-69" transform="translate(146.972656 0.015625)"/>
      <use xlink:href="#DejaVuSans-64" transform="translate(174.755859 0.015625)"/>
      <use xlink:href="#DejaVuSans-73" transform="translate(238.232422 0.015625)"/>
      <use xlink:href="#DejaVuSans-20" transform="translate(290.332031 0.015625)"/>
      <use xlink:href="#DejaVuSans-54" transform="translate(322.119141 0.015625)"/>
      <use xlink:href="#DejaVuSans-52" transform="translate(383.203125 0.015625)"/>
      <use xlink:href="#DejaVuSans-49" transform="translate(452.685547 0.015625)"/>
      <use xlink:href="#DejaVuSans-53" transform="translate(482.177734 0.015625)"/>
      <use xlink:href="#DejaVuSans-20" transform="translate(545.654297 0.015625)"/>
      <use xlink:href="#DejaVuSans-44" transform="translate(577.441406 0.015625)"/>
      <use xlink:href="#DejaVuSans-32" transform="translate(655.400391 -16.390625) scale(0.7)"/>
      <use xlink:href="#DejaVuSans-4f" transform="translate(702.670898 0.015625)"/>
      <use xlink:href="#DejaVuSans-20" transform="translate(781.381836 0.015625)"/>
      <use xlink:href="#DejaVuSans-2191" transform="translate(813.168945 0.015625)"/>
     </g>
    </g>
    <g id="line2d_19">
     <path d="M 399.18384 50.01184 
L 407.84704 50.01184 
L 416.51024 50.01184 
" style="fill: none; stroke-dasharray: 6.66,2.88; stroke-dashoffset: 0; stroke: #1f77b4; stroke-width: 1.8"/>
    </g>
    <g id="text_18">
     <!-- Lipids TRIS D$_2$O ↓ -->
     <g transform="translate(427.17264 54.67664) scale(0.13328 -0.13328)">
      <defs>
       <path id="DejaVuSans-2193" d="M 2822 -22 
L 2541 -22 
L 1309 1209 
L 1684 1584 
L 2416 853 
L 2416 4666 
L 2947 4666 
L 2947 853 
L 3672 1584 
L 4047 1209 
L 2822 -22 
z
" transform="scale(0.015625)"/>
      </defs>
      <use xlink:href="#DejaVuSans-4c" transform="translate(0 0.015625)"/>
      <use xlink:href="#DejaVuSans-69" transform="translate(55.712891 0.015625)"/>
      <use xlink:href="#DejaVuSans-70" transform="translate(83.496094 0.015625)"/>
      <use xlink:href="#DejaVuSans-69" transform="translate(146.972656 0.015625)"/>
      <use xlink:href="#DejaVuSans-64" transform="translate(174.755859 0.015625)"/>
      <use xlink:href="#DejaVuSans-73" transform="translate(238.232422 0.015625)"/>
      <use xlink:href="#DejaVuSans-20" transform="translate(290.332031 0.015625)"/>
      <use xlink:href="#DejaVuSans-54" transform="translate(322.119141 0.015625)"/>
      <use xlink:href="#DejaVuSans-52" transform="translate(383.203125 0.015625)"/>
      <use xlink:href="#DejaVuSans-49" transform="translate(452.685547 0.015625)"/>
      <use xlink:href="#DejaVuSans-53" transform="translate(482.177734 0.015625)"/>
      <use xlink:href="#DejaVuSans-20" transform="translate(545.654297 0.015625)"/>
      <use xlink:href="#DejaVuSans-44" transform="translate(577.441406 0.015625)"/>
      <use xlink:href="#DejaVuSans-32" transform="translate(655.400391 -16.390625) scale(0.7)"/>
      <use xlink:href="#DejaVuSans-4f" transform="translate(702.670898 0.015625)"/>
      <use xlink:href="#DejaVuSans-20" transform="translate(781.381836 0.015625)"/>
      <use xlink:href="#DejaVuSans-2193" transform="translate(813.168945 0.015625)"/>
     </g>
    </g>
   </g>
  </g>
 </g>
 <defs>
  <clipPath id="p692121f910">
   <rect x="80.64" y="12.96" width="478.08" height="358.56"/>
  </clipPath>
 </defs>
</svg>
