<?xml version="1.0" encoding="utf-8" standalone="no"?>
<!DOCTYPE svg PUBLIC "-//W3C//DTD SVG 1.1//EN"
  "http://www.w3.org/Graphics/SVG/1.1/DTD/svg11.dtd">
<svg xmlns:xlink="http://www.w3.org/1999/xlink" width="576pt" height="432pt" viewBox="0 0 576 432" xmlns="http://www.w3.org/2000/svg" version="1.1">
 <metadata>
  <rdf:RDF xmlns:dc="http://purl.org/dc/elements/1.1/" xmlns:cc="http://creativecommons.org/ns#" xmlns:rdf="http://www.w3.org/1999/02/22-rdf-syntax-ns#">
   <cc:Work>
    <dc:type rdf:resource="http://purl.org/dc/dcmitype/StillImage"/>
    <dc:date>2026-03-23T18:36:40.190300</dc:date>
    <dc:format>image/svg+xml</dc:format>
    <dc:creator>
     <cc:Agent>
      <dc:title>Matplotlib v3.10.8, https://matplotlib.org/</dc:title>
     </cc:Agent>
    </dc:creator>
   </cc:Work>
  </rdf:RDF>
 </metadata>
 <defs>
  <style type="text/css">*{stroke-linejoin: round; stroke-linecap: butt}</style>
 </defs>
 <g id="figure_1">
  <g id="patch_1">
   <path d="M 0 432 
L 576 432 
L 576 0 
L 0 0 
z
" style="fill: #ffffff"/>
  </g>
  <g id="axes_1">
   <g id="patch_2">
    <path d="M 80.64 371.52 
L 558.72 371.52 
L 558.72 12.96 
L 80.64 12.96 
z
" style="fill: #ffffff"/>
   </g>
   <g id="matplotlib.axis_1">
    <g id="xtick_1">
     <g id="line2d_1">
      <defs>
       <path id="mb1b21b123c" d="M 0 0 
L 0 7 
" style="stroke: #000000; stroke-width: 1.28"/>
      </defs>
      <g>
       <use xlink:href="#mb1b21b123c" x="81.544518" y="371.52" style="stroke: #000000; stroke-width: 1.28"/>
      </g>
     </g>
    </g>
    <g id="xtick_2">
     <g id="line2d_2">
      <g>
       <use xlink:href="#mb1b21b123c" x="141.048492" y="371.52" style="stroke: #000000; stroke-width: 1.28"/>
      </g>
     </g>
     <g id="text_1">
      <!-- 0 -->
      <g transform="translate(135.958492 394.1775) scale(0.16 -0.16)">
       <defs>
        <path id="DejaVuSans-30" d="M 2034 4250 
Q 1547 4250 1301 3770 
Q 1056 3291 1056 2328 
Q 1056 1369 1301 889 
Q 1547 409 2034 409 
Q 2525 409 2770 889 
Q 3016 1369 3016 2328 
Q 3016 3291 2770 3770 
Q 2525 4250 2034 4250 
z
M 2034 4750 
Q 2819 4750 3233 4129 
Q 3647 3509 3647 2328 
Q 3647 1150 3233 529 
Q 2819 -91 2034 -91 
Q 1250 -91 836 529 
Q 422 1150 422 2328 
Q 422 3509 836 4129 
Q 1250 4750 2034 4750 
z
" transform="scale(0.015625)"/>
       </defs>
       <use xlink:href="#DejaVuSans-30"/>
      </g>
     </g>
    </g>
    <g id="xtick_3">
     <g id="line2d_3">
      <g>
       <use xlink:href="#mb1b21b123c" x="200.552466" y="371.52" style="stroke: #000000; stroke-width: 1.28"/>
      </g>
     </g>
     <g id="text_2">
      <!-- 20 -->
      <g transform="translate(190.372466 394.1775) scale(0.16 -0.16)">
       <defs>
        <path id="DejaVuSans-32" d="M 1228 531 
L 3431 531 
L 3431 0 
L 469 0 
L 469 531 
Q 828 903 1448 1529 
Q 2069 2156 2228 2338 
Q 2531 2678 2651 2914 
Q 2772 3150 2772 3378 
Q 2772 3750 2511 3984 
Q 2250 4219 1831 4219 
Q 1534 4219 1204 4116 
Q 875 4013 500 3803 
L 500 4441 
Q 881 4594 1212 4672 
Q 1544 4750 1819 4750 
Q 2544 4750 2975 4387 
Q 3406 4025 3406 3419 
Q 3406 3131 3298 2873 
Q 3191 2616 2906 2266 
Q 2828 2175 2409 1742 
Q 1991 1309 1228 531 
z
" transform="scale(0.015625)"/>
       </defs>
       <use xlink:href="#DejaVuSans-32"/>
       <use xlink:href="#DejaVuSans-30" transform="translate(63.623047 0)"/>
      </g>
     </g>
    </g>
    <g id="xtick_4">
     <g id="line2d_4">
      <g>
       <use xlink:href="#mb1b21b123c" x="260.056441" y="371.52" style="stroke: #000000; stroke-width: 1.28"/>
      </g>
     </g>
     <g id="text_3">
      <!-- 40 -->
      <g transform="translate(249.876441 394.1775) scale(0.16 -0.16)">
       <defs>
        <path id="DejaVuSans-34" d="M 2419 4116 
L 825 1625 
L 2419 1625 
L 2419 4116 
z
M 2253 4666 
L 3047 4666 
L 3047 1625 
L 3713 1625 
L 3713 1100 
L 3047 1100 
L 3047 0 
L 2419 0 
L 2419 1100 
L 313 1100 
L 313 1709 
L 2253 4666 
z
" transform="scale(0.015625)"/>
       </defs>
       <use xlink:href="#DejaVuSans-34"/>
       <use xlink:href="#DejaVuSans-30" transform="translate(63.623047 0)"/>
      </g>
     </g>
    </g>
    <g id="xtick_5">
     <g id="line2d_5">
      <g>
       <use xlink:href="#mb1b21b123c" x="319.560415" y="371.52" style="stroke: #000000; stroke-width: 1.28"/>
      </g>
     </g>
     <g id="text_4">
      <!-- 60 -->
      <g transform="translate(309.380415 394.1775) scale(0.16 -0.16)">
       <defs>
        <path id="DejaVuSans-36" d="M 2113 2584 
Q 1688 2584 1439 2293 
Q 1191 2003 1191 1497 
Q 1191 994 1439 701 
Q 1688 409 2113 409 
Q 2538 409 2786 701 
Q 3034 994 3034 1497 
Q 3034 2003 2786 2293 
Q 2538 2584 2113 2584 
z
M 3366 4563 
L 3366 3988 
Q 3128 4100 2886 4159 
Q 2644 4219 2406 4219 
Q 1781 4219 1451 3797 
Q 1122 3375 1075 2522 
Q 1259 2794 1537 2939 
Q 1816 3084 2150 3084 
Q 2853 3084 3261 2657 
Q 3669 2231 3669 1497 
Q 3669 778 3244 343 
Q 2819 -91 2113 -91 
Q 1303 -91 875 529 
Q 447 1150 447 2328 
Q 447 3434 972 4092 
Q 1497 4750 2381 4750 
Q 2619 4750 2861 4703 
Q 3103 4656 3366 4563 
z
" transform="scale(0.015625)"/>
       </defs>
       <use xlink:href="#DejaVuSans-36"/>
       <use xlink:href="#DejaVuSans-30" transform="translate(63.623047 0)"/>
      </g>
     </g>
    </g>
    <g id="xtick_6">
     <g id="line2d_6">
      <g>
       <use xlink:href="#mb1b21b123c" x="379.064389" y="371.52" style="stroke: #000000; stroke-width: 1.28"/>
      </g>
     </g>
     <g id="text_5">
      <!-- 80 -->
      <g transform="translate(368.884389 394.1775) scale(0.16 -0.16)">
       <defs>
        <path id="DejaVuSans-38" d="M 2034 2216 
Q 1584 2216 1326 1975 
Q 1069 1734 1069 1313 
Q 1069 891 1326 650 
Q 1584 409 2034 409 
Q 2484 409 2743 651 
Q 3003 894 3003 1313 
Q 3003 1734 2745 1975 
Q 2488 2216 2034 2216 
z
M 1403 2484 
Q 997 2584 770 2862 
Q 544 3141 544 3541 
Q 544 4100 942 4425 
Q 1341 4750 2034 4750 
Q 2731 4750 3128 4425 
Q 3525 4100 3525 3541 
Q 3525 3141 3298 2862 
Q 3072 2584 2669 2484 
Q 3125 2378 3379 2068 
Q 3634 1759 3634 1313 
Q 3634 634 3220 271 
Q 2806 -91 2034 -91 
Q 1263 -91 848 271 
Q 434 634 434 1313 
Q 434 1759 690 2068 
Q 947 2378 1403 2484 
z
M 1172 3481 
Q 1172 3119 1398 2916 
Q 1625 2713 2034 2713 
Q 2441 2713 2670 2916 
Q 2900 3119 2900 3481 
Q 2900 3844 2670 4047 
Q 2441 4250 2034 4250 
Q 1625 4250 1398 4047 
Q 1172 3844 1172 3481 
z
" transform="scale(0.015625)"/>
       </defs>
       <use xlink:href="#DejaVuSans-38"/>
       <use xlink:href="#DejaVuSans-30" transform="translate(63.623047 0)"/>
      </g>
     </g>
    </g>
    <g id="xtick_7">
     <g id="line2d_7">
      <g>
       <use xlink:href="#mb1b21b123c" x="438.568363" y="371.52" style="stroke: #000000; stroke-width: 1.28"/>
      </g>
     </g>
     <g id="text_6">
      <!-- 100 -->
      <g transform="translate(423.298363 394.1775) scale(0.16 -0.16)">
       <defs>
        <path id="DejaVuSans-31" d="M 794 531 
L 1825 531 
L 1825 4091 
L 703 3866 
L 703 4441 
L 1819 4666 
L 2450 4666 
L 2450 531 
L 3481 531 
L 3481 0 
L 794 0 
L 794 531 
z
" transform="scale(0.015625)"/>
       </defs>
       <use xlink:href="#DejaVuSans-31"/>
       <use xlink:href="#DejaVuSans-30" transform="translate(63.623047 0)"/>
       <use xlink:href="#DejaVuSans-30" transform="translate(127.246094 0)"/>
      </g>
     </g>
    </g>
    <g id="xtick_8">
     <g id="line2d_8">
      <g>
       <use xlink:href="#mb1b21b123c" x="498.072337" y="371.52" style="stroke: #000000; stroke-width: 1.28"/>
      </g>
     </g>
     <g id="text_7">
      <!-- 120 -->
      <g transform="translate(482.802337 394.1775) scale(0.16 -0.16)">
       <use xlink:href="#DejaVuSans-31"/>
       <use xlink:href="#DejaVuSans-32" transform="translate(63.623047 0)"/>
       <use xlink:href="#DejaVuSans-30" transform="translate(127.246094 0)"/>
      </g>
     </g>
    </g>
    <g id="xtick_9">
     <g id="line2d_9">
      <g>
       <use xlink:href="#mb1b21b123c" x="557.576311" y="371.52" style="stroke: #000000; stroke-width: 1.28"/>
      </g>
     </g>
     <g id="text_8">
      <!-- 140 -->
      <g transform="translate(542.306311 394.1775) scale(0.16 -0.16)">
       <use xlink:href="#DejaVuSans-31"/>
       <use xlink:href="#DejaVuSans-34" transform="translate(63.623047 0)"/>
       <use xlink:href="#DejaVuSans-30" transform="translate(127.246094 0)"/>
      </g>
     </g>
    </g>
    <g id="text_9">
     <!-- Sample depth [Å] -->
     <g transform="translate(249.59625 416.3575) scale(0.16 -0.16)">
      <defs>
       <path id="DejaVuSans-53" d="M 3425 4513 
L 3425 3897 
Q 3066 4069 2747 4153 
Q 2428 4238 2131 4238 
Q 1616 4238 1336 4038 
Q 1056 3838 1056 3469 
Q 1056 3159 1242 3001 
Q 1428 2844 1947 2747 
L 2328 2669 
Q 3034 2534 3370 2195 
Q 3706 1856 3706 1288 
Q 3706 609 3251 259 
Q 2797 -91 1919 -91 
Q 1588 -91 1214 -16 
Q 841 59 441 206 
L 441 856 
Q 825 641 1194 531 
Q 1563 422 1919 422 
Q 2459 422 2753 634 
Q 3047 847 3047 1241 
Q 3047 1584 2836 1778 
Q 2625 1972 2144 2069 
L 1759 2144 
Q 1053 2284 737 2584 
Q 422 2884 422 3419 
Q 422 4038 858 4394 
Q 1294 4750 2059 4750 
Q 2388 4750 2728 4690 
Q 3069 4631 3425 4513 
z
" transform="scale(0.015625)"/>
       <path id="DejaVuSans-61" d="M 2194 1759 
Q 1497 1759 1228 1600 
Q 959 1441 959 1056 
Q 959 750 1161 570 
Q 1363 391 1709 391 
Q 2188 391 2477 730 
Q 2766 1069 2766 1631 
L 2766 1759 
L 2194 1759 
z
M 3341 1997 
L 3341 0 
L 2766 0 
L 2766 531 
Q 2569 213 2275 61 
Q 1981 -91 1556 -91 
Q 1019 -91 701 211 
Q 384 513 384 1019 
Q 384 1609 779 1909 
Q 1175 2209 1959 2209 
L 2766 2209 
L 2766 2266 
Q 2766 2663 2505 2880 
Q 2244 3097 1772 3097 
Q 1472 3097 1187 3025 
Q 903 2953 641 2809 
L 641 3341 
Q 956 3463 1253 3523 
Q 1550 3584 1831 3584 
Q 2591 3584 2966 3190 
Q 3341 2797 3341 1997 
z
" transform="scale(0.015625)"/>
       <path id="DejaVuSans-6d" d="M 3328 2828 
Q 3544 3216 3844 3400 
Q 4144 3584 4550 3584 
Q 5097 3584 5394 3201 
Q 5691 2819 5691 2113 
L 5691 0 
L 5113 0 
L 5113 2094 
Q 5113 2597 4934 2840 
Q 4756 3084 4391 3084 
Q 3944 3084 3684 2787 
Q 3425 2491 3425 1978 
L 3425 0 
L 2847 0 
L 2847 2094 
Q 2847 2600 2669 2842 
Q 2491 3084 2119 3084 
Q 1678 3084 1418 2786 
Q 1159 2488 1159 1978 
L 1159 0 
L 581 0 
L 581 3500 
L 1159 3500 
L 1159 2956 
Q 1356 3278 1631 3431 
Q 1906 3584 2284 3584 
Q 2666 3584 2933 3390 
Q 3200 3197 3328 2828 
z
" transform="scale(0.015625)"/>
       <path id="DejaVuSans-70" d="M 1159 525 
L 1159 -1331 
L 581 -1331 
L 581 3500 
L 1159 3500 
L 1159 2969 
Q 1341 3281 1617 3432 
Q 1894 3584 2278 3584 
Q 2916 3584 3314 3078 
Q 3713 2572 3713 1747 
Q 3713 922 3314 415 
Q 2916 -91 2278 -91 
Q 1894 -91 1617 61 
Q 1341 213 1159 525 
z
M 3116 1747 
Q 3116 2381 2855 2742 
Q 2594 3103 2138 3103 
Q 1681 3103 1420 2742 
Q 1159 2381 1159 1747 
Q 1159 1113 1420 752 
Q 1681 391 2138 391 
Q 2594 391 2855 752 
Q 3116 1113 3116 1747 
z
" transform="scale(0.015625)"/>
       <path id="DejaVuSans-6c" d="M 603 4863 
L 1178 4863 
L 1178 0 
L 603 0 
L 603 4863 
z
" transform="scale(0.015625)"/>
       <path id="DejaVuSans-65" d="M 3597 1894 
L 3597 1613 
L 953 1613 
Q 991 1019 1311 708 
Q 1631 397 2203 397 
Q 2534 397 2845 478 
Q 3156 559 3463 722 
L 3463 178 
Q 3153 47 2828 -22 
Q 2503 -91 2169 -91 
Q 1331 -91 842 396 
Q 353 884 353 1716 
Q 353 2575 817 3079 
Q 1281 3584 2069 3584 
Q 2775 3584 3186 3129 
Q 3597 2675 3597 1894 
z
M 3022 2063 
Q 3016 2534 2758 2815 
Q 2500 3097 2075 3097 
Q 1594 3097 1305 2825 
Q 1016 2553 972 2059 
L 3022 2063 
z
" transform="scale(0.015625)"/>
       <path id="DejaVuSans-20" transform="scale(0.015625)"/>
       <path id="DejaVuSans-64" d="M 2906 2969 
L 2906 4863 
L 3481 4863 
L 3481 0 
L 2906 0 
L 2906 525 
Q 2725 213 2448 61 
Q 2172 -91 1784 -91 
Q 1150 -91 751 415 
Q 353 922 353 1747 
Q 353 2572 751 3078 
Q 1150 3584 1784 3584 
Q 2172 3584 2448 3432 
Q 2725 3281 2906 2969 
z
M 947 1747 
Q 947 1113 1208 752 
Q 1469 391 1925 391 
Q 2381 391 2643 752 
Q 2906 1113 2906 1747 
Q 2906 2381 2643 2742 
Q 2381 3103 1925 3103 
Q 1469 3103 1208 2742 
Q 947 2381 947 1747 
z
" transform="scale(0.015625)"/>
       <path id="DejaVuSans-74" d="M 1172 4494 
L 1172 3500 
L 2356 3500 
L 2356 3053 
L 1172 3053 
L 1172 1153 
Q 1172 725 1289 603 
Q 1406 481 1766 481 
L 2356 481 
L 2356 0 
L 1766 0 
Q 1100 0 847 248 
Q 594 497 594 1153 
L 594 3053 
L 172 3053 
L 172 3500 
L 594 3500 
L 594 4494 
L 1172 4494 
z
" transform="scale(0.015625)"/>
       <path id="DejaVuSans-68" d="M 3513 2113 
L 3513 0 
L 2938 0 
L 2938 2094 
Q 2938 2591 2744 2837 
Q 2550 3084 2163 3084 
Q 1697 3084 1428 2787 
Q 1159 2491 1159 1978 
L 1159 0 
L 581 0 
L 581 4863 
L 1159 4863 
L 1159 2956 
Q 1366 3272 1645 3428 
Q 1925 3584 2291 3584 
Q 2894 3584 3203 3211 
Q 3513 2838 3513 2113 
z
" transform="scale(0.015625)"/>
       <path id="DejaVuSans-5b" d="M 550 4863 
L 1875 4863 
L 1875 4416 
L 1125 4416 
L 1125 -397 
L 1875 -397 
L 1875 -844 
L 550 -844 
L 550 4863 
z
" transform="scale(0.015625)"/>
       <path id="DejaVuSans-c5" d="M 2663 5081 
Q 2663 5278 2523 5417 
Q 2384 5556 2188 5556 
Q 1988 5556 1852 5420 
Q 1716 5284 1716 5081 
Q 1716 4884 1853 4746 
Q 1991 4609 2188 4609 
Q 2384 4609 2523 4746 
Q 2663 4884 2663 5081 
z
M 2188 4044 
L 1338 1722 
L 3041 1722 
L 2188 4044 
z
M 1716 4366 
Q 1525 4494 1428 4673 
Q 1331 4853 1331 5081 
Q 1331 5441 1579 5691 
Q 1828 5941 2188 5941 
Q 2544 5941 2795 5689 
Q 3047 5438 3047 5081 
Q 3047 4863 2948 4678 
Q 2850 4494 2663 4366 
L 4325 0 
L 3669 0 
L 3244 1197 
L 1141 1197 
L 716 0 
L 50 0 
L 1716 4366 
z
" transform="scale(0.015625)"/>
       <path id="DejaVuSans-5d" d="M 1947 4863 
L 1947 -844 
L 622 -844 
L 622 -397 
L 1369 -397 
L 1369 4416 
L 622 4416 
L 622 4863 
L 1947 4863 
z
" transform="scale(0.015625)"/>
      </defs>
      <use xlink:href="#DejaVuSans-53"/>
      <use xlink:href="#DejaVuSans-61" transform="translate(63.476562 0)"/>
      <use xlink:href="#DejaVuSans-6d" transform="translate(124.755859 0)"/>
      <use xlink:href="#DejaVuSans-70" transform="translate(222.167969 0)"/>
      <use xlink:href="#DejaVuSans-6c" transform="translate(285.644531 0)"/>
      <use xlink:href="#DejaVuSans-65" transform="translate(313.427734 0)"/>
      <use xlink:href="#DejaVuSans-20" transform="translate(374.951172 0)"/>
      <use xlink:href="#DejaVuSans-64" transform="translate(406.738281 0)"/>
      <use xlink:href="#DejaVuSans-65" transform="translate(470.214844 0)"/>
      <use xlink:href="#DejaVuSans-70" transform="translate(531.738281 0)"/>
      <use xlink:href="#DejaVuSans-74" transform="translate(595.214844 0)"/>
      <use xlink:href="#DejaVuSans-68" transform="translate(634.423828 0)"/>
      <use xlink:href="#DejaVuSans-20" transform="translate(697.802734 0)"/>
      <use xlink:href="#DejaVuSans-5b" transform="translate(729.589844 0)"/>
      <use xlink:href="#DejaVuSans-c5" transform="translate(768.603516 0)"/>
      <use xlink:href="#DejaVuSans-5d" transform="translate(837.011719 0)"/>
     </g>
    </g>
   </g>
   <g id="matplotlib.axis_2">
    <g id="ytick_1">
     <g id="line2d_10">
      <defs>
       <path id="mf01686bbfa" d="M 0 0 
L -7 0 
" style="stroke: #000000; stroke-width: 1.28"/>
      </defs>
      <g>
       <use xlink:href="#mf01686bbfa" x="80.64" y="330.762558" style="stroke: #000000; stroke-width: 1.28"/>
      </g>
     </g>
     <g id="text_10">
      <!-- 0 -->
      <g transform="translate(59.96 336.841308) scale(0.16 -0.16)">
       <use xlink:href="#DejaVuSans-30"/>
      </g>
     </g>
    </g>
    <g id="ytick_2">
     <g id="line2d_11">
      <g>
       <use xlink:href="#mf01686bbfa" x="80.64" y="276.301284" style="stroke: #000000; stroke-width: 1.28"/>
      </g>
     </g>
     <g id="text_11">
      <!-- 2 -->
      <g transform="translate(59.96 282.380034) scale(0.16 -0.16)">
       <use xlink:href="#DejaVuSans-32"/>
      </g>
     </g>
    </g>
    <g id="ytick_3">
     <g id="line2d_12">
      <g>
       <use xlink:href="#mf01686bbfa" x="80.64" y="221.84001" style="stroke: #000000; stroke-width: 1.28"/>
      </g>
     </g>
     <g id="text_12">
      <!-- 4 -->
      <g transform="translate(59.96 227.91876) scale(0.16 -0.16)">
       <use xlink:href="#DejaVuSans-34"/>
      </g>
     </g>
    </g>
    <g id="ytick_4">
     <g id="line2d_13">
      <g>
       <use xlink:href="#mf01686bbfa" x="80.64" y="167.378736" style="stroke: #000000; stroke-width: 1.28"/>
      </g>
     </g>
     <g id="text_13">
      <!-- 6 -->
      <g transform="translate(59.96 173.457486) scale(0.16 -0.16)">
       <use xlink:href="#DejaVuSans-36"/>
      </g>
     </g>
    </g>
    <g id="ytick_5">
     <g id="line2d_14">
      <g>
       <use xlink:href="#mf01686bbfa" x="80.64" y="112.917462" style="stroke: #000000; stroke-width: 1.28"/>
      </g>
     </g>
     <g id="text_14">
      <!-- 8 -->
      <g transform="translate(59.96 118.996212) scale(0.16 -0.16)">
       <use xlink:href="#DejaVuSans-38"/>
      </g>
     </g>
    </g>
    <g id="ytick_6">
     <g id="line2d_15">
      <g>
       <use xlink:href="#mf01686bbfa" x="80.64" y="58.456188" style="stroke: #000000; stroke-width: 1.28"/>
      </g>
     </g>
     <g id="text_15">
      <!-- 10 -->
      <g transform="translate(49.78 64.534938) scale(0.16 -0.16)">
       <use xlink:href="#DejaVuSans-31"/>
       <use xlink:href="#DejaVuSans-30" transform="translate(63.623047 0)"/>
      </g>
     </g>
    </g>
    <g id="text_16">
     <!-- SLD, $\rho\ [\times 10^{-6}\ \mathrm{\AA^{-2}}]$ -->
     <g transform="translate(42.42 269.04) rotate(-90) scale(0.16 -0.16)">
      <defs>
       <path id="DejaVuSans-4c" d="M 628 4666 
L 1259 4666 
L 1259 531 
L 3531 531 
L 3531 0 
L 628 0 
L 628 4666 
z
" transform="scale(0.015625)"/>
       <path id="DejaVuSans-44" d="M 1259 4147 
L 1259 519 
L 2022 519 
Q 2988 519 3436 956 
Q 3884 1394 3884 2338 
Q 3884 3275 3436 3711 
Q 2988 4147 2022 4147 
L 1259 4147 
z
M 628 4666 
L 1925 4666 
Q 3281 4666 3915 4102 
Q 4550 3538 4550 2338 
Q 4550 1131 3912 565 
Q 3275 0 1925 0 
L 628 0 
L 628 4666 
z
" transform="scale(0.015625)"/>
       <path id="DejaVuSans-2c" d="M 750 794 
L 1409 794 
L 1409 256 
L 897 -744 
L 494 -744 
L 750 256 
L 750 794 
z
" transform="scale(0.015625)"/>
       <path id="DejaVuSans-Oblique-3c1" d="M 1203 2875 
Q 1453 3194 1981 3475 
Q 2188 3584 2756 3584 
Q 3394 3584 3694 3078 
Q 3994 2572 3834 1747 
Q 3672 922 3175 415 
Q 2678 -91 2041 -91 
Q 1656 -91 1409 63 
Q 1163 213 1044 525 
L 681 -1331 
L 103 -1331 
L 697 1716 
Q 838 2438 1203 2875 
z
M 3238 1747 
Q 3359 2381 3169 2744 
Q 2978 3103 2522 3103 
Q 2066 3103 1734 2744 
Q 1403 2381 1281 1747 
Q 1156 1113 1347 750 
Q 1538 391 1994 391 
Q 2450 391 2781 750 
Q 3113 1113 3238 1747 
z
" transform="scale(0.015625)"/>
       <path id="DejaVuSans-d7" d="M 4488 3438 
L 3059 2003 
L 4488 575 
L 4116 197 
L 2681 1631 
L 1247 197 
L 878 575 
L 2303 2003 
L 878 3438 
L 1247 3816 
L 2681 2381 
L 4116 3816 
L 4488 3438 
z
" transform="scale(0.015625)"/>
       <path id="DejaVuSans-2212" d="M 678 2272 
L 4684 2272 
L 4684 1741 
L 678 1741 
L 678 2272 
z
" transform="scale(0.015625)"/>
      </defs>
      <use xlink:href="#DejaVuSans-53" transform="translate(0 0.171875)"/>
      <use xlink:href="#DejaVuSans-4c" transform="translate(63.476562 0.171875)"/>
      <use xlink:href="#DejaVuSans-44" transform="translate(119.189453 0.171875)"/>
      <use xlink:href="#DejaVuSans-2c" transform="translate(196.191406 0.171875)"/>
      <use xlink:href="#DejaVuSans-20" transform="translate(227.978516 0.171875)"/>
      <use xlink:href="#DejaVuSans-Oblique-3c1" transform="translate(259.765625 0.171875)"/>
      <use xlink:href="#DejaVuSans-5b" transform="translate(355.712566 0.171875)"/>
      <use xlink:href="#DejaVuSans-d7" transform="translate(394.726238 0.171875)"/>
      <use xlink:href="#DejaVuSans-31" transform="translate(478.5153 0.171875)"/>
      <use xlink:href="#DejaVuSans-30" transform="translate(542.138347 0.171875)"/>
      <use xlink:href="#DejaVuSans-2212" transform="translate(606.718425 38.453125) scale(0.7)"/>
      <use xlink:href="#DejaVuSans-36" transform="translate(665.370769 38.453125) scale(0.7)"/>
      <use xlink:href="#DejaVuSans-c5" transform="translate(745.111655 0.171875)"/>
      <use xlink:href="#DejaVuSans-2212" transform="translate(814.47689 38.453125) scale(0.7)"/>
      <use xlink:href="#DejaVuSans-32" transform="translate(873.129233 38.453125) scale(0.7)"/>
      <use xlink:href="#DejaVuSans-5d" transform="translate(920.399741 0.171875)"/>
     </g>
    </g>
   </g>
   <g id="line2d_16">
    <path d="M 102.370909 274.286217 
L 124.145367 274.197258 
L 126.758302 273.963615 
L 128.500259 273.595367 
L 130.242215 272.915612 
L 131.113194 272.409347 
L 131.984172 271.763203 
L 132.85515 270.955983 
L 133.726129 269.968871 
L 134.597107 268.787318 
L 136.339064 265.815276 
L 138.08102 262.074496 
L 140.693955 255.464667 
L 143.30689 248.682452 
L 145.048847 244.67335 
L 146.790803 241.375867 
L 148.53276 238.884928 
L 149.403738 237.93251 
L 150.274717 237.156752 
L 152.016673 236.055576 
L 153.75863 235.411158 
L 155.500587 235.064804 
L 158.113522 234.84708 
L 163.339392 234.768973 
L 222.565917 234.770849 
L 226.920809 234.852965 
L 229.533744 235.13038 
L 231.2757 235.621834 
L 232.146679 236.039477 
L 233.017657 236.624509 
L 233.888635 237.426676 
L 234.759614 238.503294 
L 235.630592 239.917689 
L 236.50157 241.736515 
L 237.372549 244.025925 
L 238.243527 246.846695 
L 239.114505 250.248609 
L 239.985484 254.264585 
L 240.856462 258.905145 
L 242.598419 269.965145 
L 244.340375 282.943249 
L 248.695267 317.284164 
L 250.437224 328.906094 
L 252.17918 338.204521 
L 253.050158 341.920856 
L 253.921137 345.036075 
L 254.792115 347.591742 
L 255.663093 349.643366 
L 256.534072 351.254537 
L 257.40505 352.491557 
L 258.276028 353.418946 
L 259.147007 354.096032 
L 260.017985 354.574632 
L 260.888963 354.897704 
L 262.63092 355.201904 
L 264.372877 355.164208 
L 266.114833 354.794332 
L 266.985812 354.448132 
L 267.85679 353.955801 
L 268.727768 353.275748 
L 269.598747 352.356041 
L 270.469725 351.134759 
L 271.340703 349.541133 
L 272.211682 347.497716 
L 273.08266 344.923754 
L 273.953638 341.739766 
L 274.824617 337.873203 
L 275.695595 333.264818 
L 276.566573 327.87523 
L 278.30853 314.729322 
L 280.050486 298.711029 
L 282.663421 271.154623 
L 285.276356 243.126501 
L 287.018313 226.261711 
L 288.76027 211.861168 
L 290.502226 200.287667 
L 291.373205 195.565005 
L 292.244183 191.517683 
L 293.115161 188.106487 
L 293.98614 185.286828 
L 294.857118 183.012388 
L 295.728096 181.237703 
L 296.599075 179.919704 
L 297.470053 179.018371 
L 298.341031 178.496684 
L 299.212009 178.320143 
L 300.082988 178.456065 
L 300.953966 178.872855 
L 301.824944 179.539385 
L 302.695923 180.424573 
L 304.437879 182.725848 
L 306.179836 185.52667 
L 312.276684 196.010373 
L 314.018641 198.508126 
L 315.760598 200.619755 
L 317.502554 202.333022 
L 319.244511 203.672855 
L 320.986467 204.690989 
L 322.728424 205.456456 
L 325.341359 206.306538 
L 328.825272 207.354955 
L 330.567229 208.070938 
L 332.309186 209.071779 
L 334.051142 210.491892 
L 335.793099 212.474874 
L 337.535056 215.16375 
L 339.277012 218.68563 
L 341.018969 223.13234 
L 342.760925 228.540167 
L 344.502882 234.872979 
L 346.244839 242.013193 
L 348.857774 253.788658 
L 353.212665 273.909125 
L 354.954622 281.271597 
L 356.696579 287.881879 
L 358.438535 293.595704 
L 360.180492 298.350636 
L 361.922449 302.160173 
L 363.664405 305.098571 
L 365.406362 307.280593 
L 367.148318 308.840571 
L 368.890275 309.914282 
L 370.632232 310.625769 
L 372.374188 311.079665 
L 374.987123 311.452036 
L 378.471037 311.646802 
L 385.438863 311.718104 
L 413.310169 311.652365 
L 416.794083 311.470011 
L 419.407018 311.118858 
L 421.148974 310.688609 
L 422.890931 310.011273 
L 424.632888 308.984676 
L 426.374844 307.486699 
L 427.245823 306.518951 
L 428.116801 305.382335 
L 429.858758 302.536256 
L 431.600714 298.830445 
L 433.342671 294.184971 
L 435.084627 288.578529 
L 436.826584 282.06442 
L 438.568541 274.777678 
L 442.052454 258.794134 
L 445.536367 242.868007 
L 447.278324 235.647078 
L 449.020281 229.215001 
L 450.762237 223.698712 
L 452.504194 219.143335 
L 454.24615 215.520073 
L 455.988107 212.742416 
L 457.730064 210.686238 
L 459.47202 209.209447 
L 461.213977 208.167892 
L 462.955934 207.425763 
L 465.568869 206.609212 
L 469.052782 205.526921 
L 470.794739 204.780526 
L 472.536695 203.785103 
L 474.278652 202.465726 
L 476.020608 200.760596 
L 477.762565 198.628571 
L 479.504522 196.057259 
L 481.246478 193.069547 
L 483.859413 187.950614 
L 491.698218 171.749978 
L 493.440175 168.791025 
L 495.182132 166.252411 
L 496.924088 164.155568 
L 498.666045 162.488145 
L 500.408001 161.211601 
L 502.149958 160.270717 
L 503.891915 159.60307 
L 505.633871 159.146962 
L 508.246806 158.740727 
L 511.73072 158.502581 
L 517.827568 158.403044 
L 536.989091 158.392626 
L 536.989091 158.392626 
" clip-path="url(#p114c615b3d)" style="fill: none; stroke-dasharray: 6.66,2.88; stroke-dashoffset: 0; stroke: #1f77b4; stroke-width: 1.8"/>
   </g>
   <g id="line2d_17">
    <path d="M 102.370909 274.286217 
L 124.145367 274.197258 
L 126.758302 273.963615 
L 128.500259 273.595367 
L 130.242215 272.915612 
L 131.113194 272.409347 
L 131.984172 271.763203 
L 132.85515 270.955983 
L 133.726129 269.968871 
L 134.597107 268.787318 
L 136.339064 265.815276 
L 138.08102 262.074496 
L 140.693955 255.464667 
L 143.30689 248.682452 
L 145.048847 244.67335 
L 146.790803 241.375867 
L 148.53276 238.884928 
L 149.403738 237.93251 
L 150.274717 237.156752 
L 152.016673 236.055576 
L 153.75863 235.411158 
L 155.500587 235.064804 
L 158.113522 234.84708 
L 163.339392 234.768973 
L 226.920809 234.6165 
L 228.662766 234.371924 
L 230.404722 233.804986 
L 231.2757 233.308515 
L 232.146679 232.598027 
L 233.017657 231.602782 
L 233.888635 230.23815 
L 234.759614 228.406626 
L 235.630592 226.000483 
L 236.50157 222.906328 
L 237.372549 219.011625 
L 238.243527 214.212982 
L 239.114505 208.425704 
L 239.985484 201.593796 
L 240.856462 193.699354 
L 242.598419 174.884263 
L 244.340375 152.806099 
L 248.695267 94.385219 
L 250.437224 74.613043 
L 252.17918 58.79207 
L 253.050158 52.467538 
L 253.921137 47.164491 
L 254.792115 42.811741 
L 255.663093 39.314185 
L 256.534072 36.562731 
L 257.40505 34.443347 
L 258.276028 32.844603 
L 259.147007 31.663359 
L 260.017985 30.808558 
L 260.888963 30.203331 
L 261.759942 29.785759 
L 263.501898 29.339349 
L 265.243855 29.258775 
L 266.985812 29.543523 
L 267.85679 29.879714 
L 268.727768 30.402695 
L 269.598747 31.173263 
L 270.469725 32.265849 
L 271.340703 33.766902 
L 272.211682 35.771773 
L 273.08266 38.379876 
L 273.953638 41.688065 
L 274.824617 45.782488 
L 275.695595 50.729436 
L 276.566573 56.566046 
L 278.30853 70.862671 
L 280.050486 88.126719 
L 284.405378 134.944523 
L 286.147335 150.580954 
L 287.018313 157.05698 
L 287.889291 162.541362 
L 288.76027 167.025851 
L 289.631248 170.549369 
L 290.502226 173.190458 
L 291.373205 175.057585 
L 292.244183 176.278534 
L 293.115161 176.989985 
L 293.98614 177.328211 
L 294.857118 177.421479 
L 298.341031 177.373766 
L 299.212009 177.604289 
L 300.082988 178.008662 
L 300.953966 178.598743 
L 301.824944 179.374771 
L 303.566901 181.441293 
L 305.308858 184.061786 
L 307.921793 188.582361 
L 311.405706 194.63279 
L 313.147663 197.305 
L 314.889619 199.613953 
L 316.631576 201.525375 
L 318.373533 203.046892 
L 320.115489 204.218129 
L 321.857446 205.100527 
L 324.470381 206.048672 
L 329.696251 207.685233 
L 331.438207 208.52764 
L 333.180164 209.720581 
L 334.922121 211.403917 
L 335.793099 212.474874 
L 337.535056 215.16375 
L 339.277012 218.68563 
L 341.018969 223.13234 
L 342.760925 228.540167 
L 344.502882 234.872979 
L 346.244839 242.013193 
L 348.857774 253.788658 
L 353.212665 273.909125 
L 354.954622 281.271597 
L 356.696579 287.881879 
L 358.438535 293.595704 
L 360.180492 298.350636 
L 361.922449 302.160173 
L 363.664405 305.098571 
L 365.406362 307.280593 
L 367.148318 308.840571 
L 368.890275 309.914282 
L 370.632232 310.625769 
L 372.374188 311.079665 
L 374.987123 311.452036 
L 378.471037 311.646802 
L 385.438863 311.718104 
L 413.310169 311.652365 
L 416.794083 311.470011 
L 419.407018 311.118858 
L 421.148974 310.688609 
L 422.890931 310.011273 
L 424.632888 308.984676 
L 426.374844 307.486699 
L 427.245823 306.518951 
L 428.116801 305.382335 
L 429.858758 302.536256 
L 431.600714 298.830445 
L 433.342671 294.184971 
L 435.084627 288.578529 
L 436.826584 282.06442 
L 438.568541 274.777678 
L 442.052454 258.794134 
L 445.536367 242.868007 
L 447.278324 235.647078 
L 449.020281 229.215001 
L 450.762237 223.698712 
L 452.504194 219.143335 
L 454.24615 215.520073 
L 455.988107 212.742416 
L 457.730064 210.686238 
L 459.47202 209.209447 
L 461.213977 208.167892 
L 462.955934 207.425763 
L 465.568869 206.609212 
L 469.052782 205.526921 
L 470.794739 204.780526 
L 472.536695 203.785103 
L 474.278652 202.465726 
L 476.020608 200.760596 
L 477.762565 198.628571 
L 479.504522 196.057259 
L 481.246478 193.069547 
L 483.859413 187.950614 
L 491.698218 171.749978 
L 493.440175 168.791025 
L 495.182132 166.252411 
L 496.924088 164.155568 
L 498.666045 162.488145 
L 500.408001 161.211601 
L 502.149958 160.270717 
L 503.891915 159.60307 
L 505.633871 159.146962 
L 508.246806 158.740727 
L 511.73072 158.502581 
L 517.827568 158.403044 
L 536.989091 158.392626 
L 536.989091 158.392626 
" clip-path="url(#p114c615b3d)" style="fill: none; stroke: #1f77b4; stroke-width: 1.8; stroke-linecap: square"/>
   </g>
   <g id="patch_3">
    <path d="M 80.64 371.52 
L 80.64 12.96 
" style="fill: none; stroke: #000000; stroke-width: 1.6; stroke-linejoin: miter; stroke-linecap: square"/>
   </g>
   <g id="patch_4">
    <path d="M 558.72 371.52 
L 558.72 12.96 
" style="fill: none; stroke: #000000; stroke-width: 1.6; stroke-linejoin: miter; stroke-linecap: square"/>
   </g>
   <g id="patch_5">
    <path d="M 80.64 371.52 
L 558.72 371.52 
" style="fill: none; stroke: #000000; stroke-width: 1.6; stroke-linejoin: miter; stroke-linecap: square"/>
   </g>
   <g id="patch_6">
    <path d="M 80.64 12.96 
L 558.72 12.96 
" style="fill: none; stroke: #000000; stroke-width: 1.6; stroke-linejoin: miter; stroke-linecap: square"/>
   </g>
   <g id="legend_1">
    <g id="patch_7">
     <path d="M 396.51824 62.80672 
L 549.3904 62.80672 
Q 552.056 62.80672 552.056 60.14112 
L 552.056 22.2896 
Q 552.056 19.624 549.3904 19.624 
L 396.51824 19.624 
Q 393.85264 19.624 393.85264 22.2896 
L 393.85264 60.14112 
Q 393.85264 62.80672 396.51824 62.80672 
z
" style="fill: #ffffff; opacity: 0.8; stroke: #cccccc; stroke-linejoin: miter"/>
    </g>
    <g id="line2d_18">
     <path d="M 399.18384 30.41968 
L 407.84704 30.41968 
L 416.51024 30.41968 
" style="fill: none; stroke: #1f77b4; stroke-width: 1.8; stroke-linecap: square"/>
    </g>
    <g id="text_17">
     <!-- Lipids TRIS D$_2$O ↑ -->
     <g transform="translate(427.17264 35.08448) scale(0.13328 -0.13328)">
      <defs>
       <path id="DejaVuSans-69" d="M 603 3500 
L 1178 3500 
L 1178 0 
L 603 0 
L 603 3500 
z
M 603 4863 
L 1178 4863 
L 1178 4134 
L 603 4134 
L 603 4863 
z
" transform="scale(0.015625)"/>
       <path id="DejaVuSans-73" d="M 2834 3397 
L 2834 2853 
Q 2591 2978 2328 3040 
Q 2066 3103 1784 3103 
Q 1356 3103 1142 2972 
Q 928 2841 928 2578 
Q 928 2378 1081 2264 
Q 1234 2150 1697 2047 
L 1894 2003 
Q 2506 1872 2764 1633 
Q 3022 1394 3022 966 
Q 3022 478 2636 193 
Q 2250 -91 1575 -91 
Q 1294 -91 989 -36 
Q 684 19 347 128 
L 347 722 
Q 666 556 975 473 
Q 1284 391 1588 391 
Q 1994 391 2212 530 
Q 2431 669 2431 922 
Q 2431 1156 2273 1281 
Q 2116 1406 1581 1522 
L 1381 1569 
Q 847 1681 609 1914 
Q 372 2147 372 2553 
Q 372 3047 722 3315 
Q 1072 3584 1716 3584 
Q 2034 3584 2315 3537 
Q 2597 3491 2834 3397 
z
" transform="scale(0.015625)"/>
       <path id="DejaVuSans-54" d="M -19 4666 
L 3928 4666 
L 3928 4134 
L 2272 4134 
L 2272 0 
L 1638 0 
L 1638 4134 
L -19 4134 
L -19 4666 
z
" transform="scale(0.015625)"/>
       <path id="DejaVuSans-52" d="M 2841 2188 
Q 3044 2119 3236 1894 
Q 3428 1669 3622 1275 
L 4263 0 
L 3584 0 
L 2988 1197 
Q 2756 1666 2539 1819 
Q 2322 1972 1947 1972 
L 1259 1972 
L 1259 0 
L 628 0 
L 628 4666 
L 2053 4666 
Q 2853 4666 3247 4331 
Q 3641 3997 3641 3322 
Q 3641 2881 3436 2590 
Q 3231 2300 2841 2188 
z
M 1259 4147 
L 1259 2491 
L 2053 2491 
Q 2509 2491 2742 2702 
Q 2975 2913 2975 3322 
Q 2975 3731 2742 3939 
Q 2509 4147 2053 4147 
L 1259 4147 
z
" transform="scale(0.015625)"/>
       <path id="DejaVuSans-49" d="M 628 4666 
L 1259 4666 
L 1259 0 
L 628 0 
L 628 4666 
z
" transform="scale(0.015625)"/>
       <path id="DejaVuSans-4f" d="M 2522 4238 
Q 1834 4238 1429 3725 
Q 1025 3213 1025 2328 
Q 1025 1447 1429 934 
Q 1834 422 2522 422 
Q 3209 422 3611 934 
Q 4013 1447 4013 2328 
Q 4013 3213 3611 3725 
Q 3209 4238 2522 4238 
z
M 2522 4750 
Q 3503 4750 4090 4092 
Q 4678 3434 4678 2328 
Q 4678 1225 4090 567 
Q 3503 -91 2522 -91 
Q 1538 -91 948 565 
Q 359 1222 359 2328 
Q 359 3434 948 4092 
Q 1538 4750 2522 4750 
z
" transform="scale(0.015625)"/>
       <path id="DejaVuSans-2191" d="M 2541 4688 
L 2822 4688 
L 4047 3456 
L 3672 3081 
L 2947 3813 
L 2947 0 
L 2416 0 
L 2416 3813 
L 1684 3081 
L 1309 3456 
L 2541 4688 
z
" transform="scale(0.015625)"/>
      </defs>
      <use xlink:href="#DejaVuSans-4c" transform="translate(0 0.015625)"/>
      <use xlink:href="#DejaVuSans-69" transform="translate(55.712891 0.015625)"/>
      <use xlink:href="#DejaVuSans-70" transform="translate(83.496094 0.015625)"/>
      <use xlink:href="#DejaVuSans-69" transform="translate(146.972656 0.015625)"/>
      <use xlink:href="#DejaVuSans-64" transform="translate(174.755859 0.015625)"/>
      <use xlink:href="#DejaVuSans-73" transform="translate(238.232422 0.015625)"/>
      <use xlink:href="#DejaVuSans-20" transform="translate(290.332031 0.015625)"/>
      <use xlink:href="#DejaVuSans-54" transform="translate(322.119141 0.015625)"/>
      <use xlink:href="#DejaVuSans-52" transform="translate(383.203125 0.015625)"/>
      <use xlink:href="#DejaVuSans-49" transform="translate(452.685547 0.015625)"/>
      <use xlink:href="#DejaVuSans-53" transform="translate(482.177734 0.015625)"/>
      <use xlink:href="#DejaVuSans-20" transform="translate(545.654297 0.015625)"/>
      <use xlink:href="#DejaVuSans-44" transform="translate(577.441406 0.015625)"/>
      <use xlink:href="#DejaVuSans-32" transform="translate(655.400391 -16.390625) scale(0.7)"/>
      <use xlink:href="#DejaVuSans-4f" transform="translate(702.670898 0.015625)"/>
      <use xlink:href="#DejaVuSans-20" transform="translate(781.381836 0.015625)"/>
      <use xlink:href="#DejaVuSans-2191" transform="translate(813.168945 0.015625)"/>
     </g>
    </g>
    <g id="line2d_19">
     <path d="M 399.18384 50.01184 
L 407.84704 50.01184 
L 416.51024 50.01184 
" style="fill: none; stroke-dasharray: 6.66,2.88; stroke-dashoffset: 0; stroke: #1f77b4; stroke-width: 1.8"/>
    </g>
    <g id="text_18">
     <!-- Lipids TRIS D$_2$O ↓ -->
     <g transform="translate(427.17264 54.67664) scale(0.13328 -0.13328)">
      <defs>
       <path id="DejaVuSans-2193" d="M 2822 -22 
L 2541 -22 
L 1309 1209 
L 1684 1584 
L 2416 853 
L 2416 4666 
L 2947 4666 
L 2947 853 
L 3672 1584 
L 4047 1209 
L 2822 -22 
z
" transform="scale(0.015625)"/>
      </defs>
      <use xlink:href="#DejaVuSans-4c" transform="translate(0 0.015625)"/>
      <use xlink:href="#DejaVuSans-69" transform="translate(55.712891 0.015625)"/>
      <use xlink:href="#DejaVuSans-70" transform="translate(83.496094 0.015625)"/>
      <use xlink:href="#DejaVuSans-69" transform="translate(146.972656 0.015625)"/>
      <use xlink:href="#DejaVuSans-64" transform="translate(174.755859 0.015625)"/>
      <use xlink:href="#DejaVuSans-73" transform="translate(238.232422 0.015625)"/>
      <use xlink:href="#DejaVuSans-20" transform="translate(290.332031 0.015625)"/>
      <use xlink:href="#DejaVuSans-54" transform="translate(322.119141 0.015625)"/>
      <use xlink:href="#DejaVuSans-52" transform="translate(383.203125 0.015625)"/>
      <use xlink:href="#DejaVuSans-49" transform="translate(452.685547 0.015625)"/>
      <use xlink:href="#DejaVuSans-53" transform="translate(482.177734 0.015625)"/>
      <use xlink:href="#DejaVuSans-20" transform="translate(545.654297 0.015625)"/>
      <use xlink:href="#DejaVuSans-44" transform="translate(577.441406 0.015625)"/>
      <use xlink:href="#DejaVuSans-32" transform="translate(655.400391 -16.390625) scale(0.7)"/>
      <use xlink:href="#DejaVuSans-4f" transform="translate(702.670898 0.015625)"/>
      <use xlink:href="#DejaVuSans-20" transform="translate(781.381836 0.015625)"/>
      <use xlink:href="#DejaVuSans-2193" transform="translate(813.168945 0.015625)"/>
     </g>
    </g>
   </g>
  </g>
 </g>
 <defs>
  <clipPath id="p114c615b3d">
   <rect x="80.64" y="12.96" width="478.08" height="358.56"/>
  </clipPath>
 </defs>
</svg>
