<?xml version="1.0" encoding="utf-8" standalone="no"?>
<!DOCTYPE svg PUBLIC "-//W3C//DTD SVG 1.1//EN"
  "http://www.w3.org/Graphics/SVG/1.1/DTD/svg11.dtd">
<svg xmlns:xlink="http://www.w3.org/1999/xlink" width="510.4pt" height="391.705pt" viewBox="0 0 510.4 391.705" xmlns="http://www.w3.org/2000/svg" version="1.1">
 <metadata>
  <rdf:RDF xmlns:dc="http://purl.org/dc/elements/1.1/" xmlns:cc="http://creativecommons.org/ns#" xmlns:rdf="http://www.w3.org/1999/02/22-rdf-syntax-ns#">
   <cc:Work>
    <dc:type rdf:resource="http://purl.org/dc/dcmitype/StillImage"/>
    <dc:date>2026-03-15T23:29:18.022122</dc:date>
    <dc:format>image/svg+xml</dc:format>
    <dc:creator>
     <cc:Agent>
      <dc:title>Matplotlib v3.8.0, https://matplotlib.org/</dc:title>
     </cc:Agent>
    </dc:creator>
   </cc:Work>
  </rdf:RDF>
 </metadata>
 <defs>
  <style type="text/css">*{stroke-linejoin: round; stroke-linecap: butt}</style>
 </defs>
 <g id="figure_1">
  <g id="patch_1">
   <path d="M 0 391.705 
L 510.4 391.705 
L 510.4 0 
L 0 0 
z
" style="fill: #ffffff"/>
  </g>
  <g id="axes_1">
   <g id="patch_2">
    <path d="M 56.8 339.84 
L 503.2 339.84 
L 503.2 7.2 
L 56.8 7.2 
z
" style="fill: #ffffff"/>
   </g>
   <g id="matplotlib.axis_1">
    <g id="xtick_1">
     <g id="line2d_1">
      <defs>
       <path id="m557698ded9" d="M 0 0 
L 0 3.5 
" style="stroke: #000000; stroke-width: 0.8"/>
      </defs>
      <g>
       <use xlink:href="#m557698ded9" x="96.541503" y="339.84" style="stroke: #000000; stroke-width: 0.8"/>
      </g>
     </g>
     <g id="text_1">
      <!-- 0 -->
      <g transform="translate(91.451503 358.9975) scale(0.16 -0.16)">
       <defs>
        <path id="DejaVuSans-30" d="M 2034 4250 
Q 1547 4250 1301 3770 
Q 1056 3291 1056 2328 
Q 1056 1369 1301 889 
Q 1547 409 2034 409 
Q 2525 409 2770 889 
Q 3016 1369 3016 2328 
Q 3016 3291 2770 3770 
Q 2525 4250 2034 4250 
z
M 2034 4750 
Q 2819 4750 3233 4129 
Q 3647 3509 3647 2328 
Q 3647 1150 3233 529 
Q 2819 -91 2034 -91 
Q 1250 -91 836 529 
Q 422 1150 422 2328 
Q 422 3509 836 4129 
Q 1250 4750 2034 4750 
z
" transform="scale(0.015625)"/>
       </defs>
       <use xlink:href="#DejaVuSans-30"/>
      </g>
     </g>
    </g>
    <g id="xtick_2">
     <g id="line2d_2">
      <g>
       <use xlink:href="#m557698ded9" x="157.682278" y="339.84" style="stroke: #000000; stroke-width: 0.8"/>
      </g>
     </g>
     <g id="text_2">
      <!-- 20 -->
      <g transform="translate(147.502278 358.9975) scale(0.16 -0.16)">
       <defs>
        <path id="DejaVuSans-32" d="M 1228 531 
L 3431 531 
L 3431 0 
L 469 0 
L 469 531 
Q 828 903 1448 1529 
Q 2069 2156 2228 2338 
Q 2531 2678 2651 2914 
Q 2772 3150 2772 3378 
Q 2772 3750 2511 3984 
Q 2250 4219 1831 4219 
Q 1534 4219 1204 4116 
Q 875 4013 500 3803 
L 500 4441 
Q 881 4594 1212 4672 
Q 1544 4750 1819 4750 
Q 2544 4750 2975 4387 
Q 3406 4025 3406 3419 
Q 3406 3131 3298 2873 
Q 3191 2616 2906 2266 
Q 2828 2175 2409 1742 
Q 1991 1309 1228 531 
z
" transform="scale(0.015625)"/>
       </defs>
       <use xlink:href="#DejaVuSans-32"/>
       <use xlink:href="#DejaVuSans-30" x="63.623047"/>
      </g>
     </g>
    </g>
    <g id="xtick_3">
     <g id="line2d_3">
      <g>
       <use xlink:href="#m557698ded9" x="218.823052" y="339.84" style="stroke: #000000; stroke-width: 0.8"/>
      </g>
     </g>
     <g id="text_3">
      <!-- 40 -->
      <g transform="translate(208.643052 358.9975) scale(0.16 -0.16)">
       <defs>
        <path id="DejaVuSans-34" d="M 2419 4116 
L 825 1625 
L 2419 1625 
L 2419 4116 
z
M 2253 4666 
L 3047 4666 
L 3047 1625 
L 3713 1625 
L 3713 1100 
L 3047 1100 
L 3047 0 
L 2419 0 
L 2419 1100 
L 313 1100 
L 313 1709 
L 2253 4666 
z
" transform="scale(0.015625)"/>
       </defs>
       <use xlink:href="#DejaVuSans-34"/>
       <use xlink:href="#DejaVuSans-30" x="63.623047"/>
      </g>
     </g>
    </g>
    <g id="xtick_4">
     <g id="line2d_4">
      <g>
       <use xlink:href="#m557698ded9" x="279.963827" y="339.84" style="stroke: #000000; stroke-width: 0.8"/>
      </g>
     </g>
     <g id="text_4">
      <!-- 60 -->
      <g transform="translate(269.783827 358.9975) scale(0.16 -0.16)">
       <defs>
        <path id="DejaVuSans-36" d="M 2113 2584 
Q 1688 2584 1439 2293 
Q 1191 2003 1191 1497 
Q 1191 994 1439 701 
Q 1688 409 2113 409 
Q 2538 409 2786 701 
Q 3034 994 3034 1497 
Q 3034 2003 2786 2293 
Q 2538 2584 2113 2584 
z
M 3366 4563 
L 3366 3988 
Q 3128 4100 2886 4159 
Q 2644 4219 2406 4219 
Q 1781 4219 1451 3797 
Q 1122 3375 1075 2522 
Q 1259 2794 1537 2939 
Q 1816 3084 2150 3084 
Q 2853 3084 3261 2657 
Q 3669 2231 3669 1497 
Q 3669 778 3244 343 
Q 2819 -91 2113 -91 
Q 1303 -91 875 529 
Q 447 1150 447 2328 
Q 447 3434 972 4092 
Q 1497 4750 2381 4750 
Q 2619 4750 2861 4703 
Q 3103 4656 3366 4563 
z
" transform="scale(0.015625)"/>
       </defs>
       <use xlink:href="#DejaVuSans-36"/>
       <use xlink:href="#DejaVuSans-30" x="63.623047"/>
      </g>
     </g>
    </g>
    <g id="xtick_5">
     <g id="line2d_5">
      <g>
       <use xlink:href="#m557698ded9" x="341.104601" y="339.84" style="stroke: #000000; stroke-width: 0.8"/>
      </g>
     </g>
     <g id="text_5">
      <!-- 80 -->
      <g transform="translate(330.924601 358.9975) scale(0.16 -0.16)">
       <defs>
        <path id="DejaVuSans-38" d="M 2034 2216 
Q 1584 2216 1326 1975 
Q 1069 1734 1069 1313 
Q 1069 891 1326 650 
Q 1584 409 2034 409 
Q 2484 409 2743 651 
Q 3003 894 3003 1313 
Q 3003 1734 2745 1975 
Q 2488 2216 2034 2216 
z
M 1403 2484 
Q 997 2584 770 2862 
Q 544 3141 544 3541 
Q 544 4100 942 4425 
Q 1341 4750 2034 4750 
Q 2731 4750 3128 4425 
Q 3525 4100 3525 3541 
Q 3525 3141 3298 2862 
Q 3072 2584 2669 2484 
Q 3125 2378 3379 2068 
Q 3634 1759 3634 1313 
Q 3634 634 3220 271 
Q 2806 -91 2034 -91 
Q 1263 -91 848 271 
Q 434 634 434 1313 
Q 434 1759 690 2068 
Q 947 2378 1403 2484 
z
M 1172 3481 
Q 1172 3119 1398 2916 
Q 1625 2713 2034 2713 
Q 2441 2713 2670 2916 
Q 2900 3119 2900 3481 
Q 2900 3844 2670 4047 
Q 2441 4250 2034 4250 
Q 1625 4250 1398 4047 
Q 1172 3844 1172 3481 
z
" transform="scale(0.015625)"/>
       </defs>
       <use xlink:href="#DejaVuSans-38"/>
       <use xlink:href="#DejaVuSans-30" x="63.623047"/>
      </g>
     </g>
    </g>
    <g id="xtick_6">
     <g id="line2d_6">
      <g>
       <use xlink:href="#m557698ded9" x="402.245376" y="339.84" style="stroke: #000000; stroke-width: 0.8"/>
      </g>
     </g>
     <g id="text_6">
      <!-- 100 -->
      <g transform="translate(386.975376 358.9975) scale(0.16 -0.16)">
       <defs>
        <path id="DejaVuSans-31" d="M 794 531 
L 1825 531 
L 1825 4091 
L 703 3866 
L 703 4441 
L 1819 4666 
L 2450 4666 
L 2450 531 
L 3481 531 
L 3481 0 
L 794 0 
L 794 531 
z
" transform="scale(0.015625)"/>
       </defs>
       <use xlink:href="#DejaVuSans-31"/>
       <use xlink:href="#DejaVuSans-30" x="63.623047"/>
       <use xlink:href="#DejaVuSans-30" x="127.246094"/>
      </g>
     </g>
    </g>
    <g id="xtick_7">
     <g id="line2d_7">
      <g>
       <use xlink:href="#m557698ded9" x="463.38615" y="339.84" style="stroke: #000000; stroke-width: 0.8"/>
      </g>
     </g>
     <g id="text_7">
      <!-- 120 -->
      <g transform="translate(448.11615 358.9975) scale(0.16 -0.16)">
       <use xlink:href="#DejaVuSans-31"/>
       <use xlink:href="#DejaVuSans-32" x="63.623047"/>
       <use xlink:href="#DejaVuSans-30" x="127.246094"/>
      </g>
     </g>
    </g>
    <g id="text_8">
     <!-- Sample depth [Å] -->
     <g transform="translate(209.91625 381.1775) scale(0.16 -0.16)">
      <defs>
       <path id="DejaVuSans-53" d="M 3425 4513 
L 3425 3897 
Q 3066 4069 2747 4153 
Q 2428 4238 2131 4238 
Q 1616 4238 1336 4038 
Q 1056 3838 1056 3469 
Q 1056 3159 1242 3001 
Q 1428 2844 1947 2747 
L 2328 2669 
Q 3034 2534 3370 2195 
Q 3706 1856 3706 1288 
Q 3706 609 3251 259 
Q 2797 -91 1919 -91 
Q 1588 -91 1214 -16 
Q 841 59 441 206 
L 441 856 
Q 825 641 1194 531 
Q 1563 422 1919 422 
Q 2459 422 2753 634 
Q 3047 847 3047 1241 
Q 3047 1584 2836 1778 
Q 2625 1972 2144 2069 
L 1759 2144 
Q 1053 2284 737 2584 
Q 422 2884 422 3419 
Q 422 4038 858 4394 
Q 1294 4750 2059 4750 
Q 2388 4750 2728 4690 
Q 3069 4631 3425 4513 
z
" transform="scale(0.015625)"/>
       <path id="DejaVuSans-61" d="M 2194 1759 
Q 1497 1759 1228 1600 
Q 959 1441 959 1056 
Q 959 750 1161 570 
Q 1363 391 1709 391 
Q 2188 391 2477 730 
Q 2766 1069 2766 1631 
L 2766 1759 
L 2194 1759 
z
M 3341 1997 
L 3341 0 
L 2766 0 
L 2766 531 
Q 2569 213 2275 61 
Q 1981 -91 1556 -91 
Q 1019 -91 701 211 
Q 384 513 384 1019 
Q 384 1609 779 1909 
Q 1175 2209 1959 2209 
L 2766 2209 
L 2766 2266 
Q 2766 2663 2505 2880 
Q 2244 3097 1772 3097 
Q 1472 3097 1187 3025 
Q 903 2953 641 2809 
L 641 3341 
Q 956 3463 1253 3523 
Q 1550 3584 1831 3584 
Q 2591 3584 2966 3190 
Q 3341 2797 3341 1997 
z
" transform="scale(0.015625)"/>
       <path id="DejaVuSans-6d" d="M 3328 2828 
Q 3544 3216 3844 3400 
Q 4144 3584 4550 3584 
Q 5097 3584 5394 3201 
Q 5691 2819 5691 2113 
L 5691 0 
L 5113 0 
L 5113 2094 
Q 5113 2597 4934 2840 
Q 4756 3084 4391 3084 
Q 3944 3084 3684 2787 
Q 3425 2491 3425 1978 
L 3425 0 
L 2847 0 
L 2847 2094 
Q 2847 2600 2669 2842 
Q 2491 3084 2119 3084 
Q 1678 3084 1418 2786 
Q 1159 2488 1159 1978 
L 1159 0 
L 581 0 
L 581 3500 
L 1159 3500 
L 1159 2956 
Q 1356 3278 1631 3431 
Q 1906 3584 2284 3584 
Q 2666 3584 2933 3390 
Q 3200 3197 3328 2828 
z
" transform="scale(0.015625)"/>
       <path id="DejaVuSans-70" d="M 1159 525 
L 1159 -1331 
L 581 -1331 
L 581 3500 
L 1159 3500 
L 1159 2969 
Q 1341 3281 1617 3432 
Q 1894 3584 2278 3584 
Q 2916 3584 3314 3078 
Q 3713 2572 3713 1747 
Q 3713 922 3314 415 
Q 2916 -91 2278 -91 
Q 1894 -91 1617 61 
Q 1341 213 1159 525 
z
M 3116 1747 
Q 3116 2381 2855 2742 
Q 2594 3103 2138 3103 
Q 1681 3103 1420 2742 
Q 1159 2381 1159 1747 
Q 1159 1113 1420 752 
Q 1681 391 2138 391 
Q 2594 391 2855 752 
Q 3116 1113 3116 1747 
z
" transform="scale(0.015625)"/>
       <path id="DejaVuSans-6c" d="M 603 4863 
L 1178 4863 
L 1178 0 
L 603 0 
L 603 4863 
z
" transform="scale(0.015625)"/>
       <path id="DejaVuSans-65" d="M 3597 1894 
L 3597 1613 
L 953 1613 
Q 991 1019 1311 708 
Q 1631 397 2203 397 
Q 2534 397 2845 478 
Q 3156 559 3463 722 
L 3463 178 
Q 3153 47 2828 -22 
Q 2503 -91 2169 -91 
Q 1331 -91 842 396 
Q 353 884 353 1716 
Q 353 2575 817 3079 
Q 1281 3584 2069 3584 
Q 2775 3584 3186 3129 
Q 3597 2675 3597 1894 
z
M 3022 2063 
Q 3016 2534 2758 2815 
Q 2500 3097 2075 3097 
Q 1594 3097 1305 2825 
Q 1016 2553 972 2059 
L 3022 2063 
z
" transform="scale(0.015625)"/>
       <path id="DejaVuSans-20" transform="scale(0.015625)"/>
       <path id="DejaVuSans-64" d="M 2906 2969 
L 2906 4863 
L 3481 4863 
L 3481 0 
L 2906 0 
L 2906 525 
Q 2725 213 2448 61 
Q 2172 -91 1784 -91 
Q 1150 -91 751 415 
Q 353 922 353 1747 
Q 353 2572 751 3078 
Q 1150 3584 1784 3584 
Q 2172 3584 2448 3432 
Q 2725 3281 2906 2969 
z
M 947 1747 
Q 947 1113 1208 752 
Q 1469 391 1925 391 
Q 2381 391 2643 752 
Q 2906 1113 2906 1747 
Q 2906 2381 2643 2742 
Q 2381 3103 1925 3103 
Q 1469 3103 1208 2742 
Q 947 2381 947 1747 
z
" transform="scale(0.015625)"/>
       <path id="DejaVuSans-74" d="M 1172 4494 
L 1172 3500 
L 2356 3500 
L 2356 3053 
L 1172 3053 
L 1172 1153 
Q 1172 725 1289 603 
Q 1406 481 1766 481 
L 2356 481 
L 2356 0 
L 1766 0 
Q 1100 0 847 248 
Q 594 497 594 1153 
L 594 3053 
L 172 3053 
L 172 3500 
L 594 3500 
L 594 4494 
L 1172 4494 
z
" transform="scale(0.015625)"/>
       <path id="DejaVuSans-68" d="M 3513 2113 
L 3513 0 
L 2938 0 
L 2938 2094 
Q 2938 2591 2744 2837 
Q 2550 3084 2163 3084 
Q 1697 3084 1428 2787 
Q 1159 2491 1159 1978 
L 1159 0 
L 581 0 
L 581 4863 
L 1159 4863 
L 1159 2956 
Q 1366 3272 1645 3428 
Q 1925 3584 2291 3584 
Q 2894 3584 3203 3211 
Q 3513 2838 3513 2113 
z
" transform="scale(0.015625)"/>
       <path id="DejaVuSans-5b" d="M 550 4863 
L 1875 4863 
L 1875 4416 
L 1125 4416 
L 1125 -397 
L 1875 -397 
L 1875 -844 
L 550 -844 
L 550 4863 
z
" transform="scale(0.015625)"/>
       <path id="DejaVuSans-c5" d="M 2663 5081 
Q 2663 5278 2523 5417 
Q 2384 5556 2188 5556 
Q 1988 5556 1852 5420 
Q 1716 5284 1716 5081 
Q 1716 4884 1853 4746 
Q 1991 4609 2188 4609 
Q 2384 4609 2523 4746 
Q 2663 4884 2663 5081 
z
M 2188 4044 
L 1338 1722 
L 3041 1722 
L 2188 4044 
z
M 1716 4366 
Q 1525 4494 1428 4673 
Q 1331 4853 1331 5081 
Q 1331 5441 1579 5691 
Q 1828 5941 2188 5941 
Q 2544 5941 2795 5689 
Q 3047 5438 3047 5081 
Q 3047 4863 2948 4678 
Q 2850 4494 2663 4366 
L 4325 0 
L 3669 0 
L 3244 1197 
L 1141 1197 
L 716 0 
L 50 0 
L 1716 4366 
z
" transform="scale(0.015625)"/>
       <path id="DejaVuSans-5d" d="M 1947 4863 
L 1947 -844 
L 622 -844 
L 622 -397 
L 1369 -397 
L 1369 4416 
L 622 4416 
L 622 4863 
L 1947 4863 
z
" transform="scale(0.015625)"/>
      </defs>
      <use xlink:href="#DejaVuSans-53"/>
      <use xlink:href="#DejaVuSans-61" x="63.476562"/>
      <use xlink:href="#DejaVuSans-6d" x="124.755859"/>
      <use xlink:href="#DejaVuSans-70" x="222.167969"/>
      <use xlink:href="#DejaVuSans-6c" x="285.644531"/>
      <use xlink:href="#DejaVuSans-65" x="313.427734"/>
      <use xlink:href="#DejaVuSans-20" x="374.951172"/>
      <use xlink:href="#DejaVuSans-64" x="406.738281"/>
      <use xlink:href="#DejaVuSans-65" x="470.214844"/>
      <use xlink:href="#DejaVuSans-70" x="531.738281"/>
      <use xlink:href="#DejaVuSans-74" x="595.214844"/>
      <use xlink:href="#DejaVuSans-68" x="634.423828"/>
      <use xlink:href="#DejaVuSans-20" x="697.802734"/>
      <use xlink:href="#DejaVuSans-5b" x="729.589844"/>
      <use xlink:href="#DejaVuSans-c5" x="768.603516"/>
      <use xlink:href="#DejaVuSans-5d" x="837.011719"/>
     </g>
    </g>
   </g>
   <g id="matplotlib.axis_2">
    <g id="ytick_1">
     <g id="line2d_8">
      <defs>
       <path id="m4a5528e250" d="M 0 0 
L -3.5 0 
" style="stroke: #000000; stroke-width: 0.8"/>
      </defs>
      <g>
       <use xlink:href="#m4a5528e250" x="56.8" y="303.931867" style="stroke: #000000; stroke-width: 0.8"/>
      </g>
     </g>
     <g id="text_9">
      <!-- 0 -->
      <g transform="translate(39.62 310.010617) scale(0.16 -0.16)">
       <use xlink:href="#DejaVuSans-30"/>
      </g>
     </g>
    </g>
    <g id="ytick_2">
     <g id="line2d_9">
      <g>
       <use xlink:href="#m4a5528e250" x="56.8" y="253.422684" style="stroke: #000000; stroke-width: 0.8"/>
      </g>
     </g>
     <g id="text_10">
      <!-- 2 -->
      <g transform="translate(39.62 259.501434) scale(0.16 -0.16)">
       <use xlink:href="#DejaVuSans-32"/>
      </g>
     </g>
    </g>
    <g id="ytick_3">
     <g id="line2d_10">
      <g>
       <use xlink:href="#m4a5528e250" x="56.8" y="202.913501" style="stroke: #000000; stroke-width: 0.8"/>
      </g>
     </g>
     <g id="text_11">
      <!-- 4 -->
      <g transform="translate(39.62 208.992251) scale(0.16 -0.16)">
       <use xlink:href="#DejaVuSans-34"/>
      </g>
     </g>
    </g>
    <g id="ytick_4">
     <g id="line2d_11">
      <g>
       <use xlink:href="#m4a5528e250" x="56.8" y="152.404317" style="stroke: #000000; stroke-width: 0.8"/>
      </g>
     </g>
     <g id="text_12">
      <!-- 6 -->
      <g transform="translate(39.62 158.483067) scale(0.16 -0.16)">
       <use xlink:href="#DejaVuSans-36"/>
      </g>
     </g>
    </g>
    <g id="ytick_5">
     <g id="line2d_12">
      <g>
       <use xlink:href="#m4a5528e250" x="56.8" y="101.895134" style="stroke: #000000; stroke-width: 0.8"/>
      </g>
     </g>
     <g id="text_13">
      <!-- 8 -->
      <g transform="translate(39.62 107.973884) scale(0.16 -0.16)">
       <use xlink:href="#DejaVuSans-38"/>
      </g>
     </g>
    </g>
    <g id="ytick_6">
     <g id="line2d_13">
      <g>
       <use xlink:href="#m4a5528e250" x="56.8" y="51.38595" style="stroke: #000000; stroke-width: 0.8"/>
      </g>
     </g>
     <g id="text_14">
      <!-- 10 -->
      <g transform="translate(29.44 57.4647) scale(0.16 -0.16)">
       <use xlink:href="#DejaVuSans-31"/>
       <use xlink:href="#DejaVuSans-30" x="63.623047"/>
      </g>
     </g>
    </g>
    <g id="text_15">
     <!-- SLD, $\rho\ [\times 10^{-6}\ \mathrm{\AA^{-2}}]$ -->
     <g transform="translate(22.08 250.32) rotate(-90) scale(0.16 -0.16)">
      <defs>
       <path id="DejaVuSans-4c" d="M 628 4666 
L 1259 4666 
L 1259 531 
L 3531 531 
L 3531 0 
L 628 0 
L 628 4666 
z
" transform="scale(0.015625)"/>
       <path id="DejaVuSans-44" d="M 1259 4147 
L 1259 519 
L 2022 519 
Q 2988 519 3436 956 
Q 3884 1394 3884 2338 
Q 3884 3275 3436 3711 
Q 2988 4147 2022 4147 
L 1259 4147 
z
M 628 4666 
L 1925 4666 
Q 3281 4666 3915 4102 
Q 4550 3538 4550 2338 
Q 4550 1131 3912 565 
Q 3275 0 1925 0 
L 628 0 
L 628 4666 
z
" transform="scale(0.015625)"/>
       <path id="DejaVuSans-2c" d="M 750 794 
L 1409 794 
L 1409 256 
L 897 -744 
L 494 -744 
L 750 256 
L 750 794 
z
" transform="scale(0.015625)"/>
       <path id="DejaVuSans-Oblique-3c1" d="M 1203 2875 
Q 1453 3194 1981 3475 
Q 2188 3584 2756 3584 
Q 3394 3584 3694 3078 
Q 3994 2572 3834 1747 
Q 3672 922 3175 415 
Q 2678 -91 2041 -91 
Q 1656 -91 1409 63 
Q 1163 213 1044 525 
L 681 -1331 
L 103 -1331 
L 697 1716 
Q 838 2438 1203 2875 
z
M 3238 1747 
Q 3359 2381 3169 2744 
Q 2978 3103 2522 3103 
Q 2066 3103 1734 2744 
Q 1403 2381 1281 1747 
Q 1156 1113 1347 750 
Q 1538 391 1994 391 
Q 2450 391 2781 750 
Q 3113 1113 3238 1747 
z
" transform="scale(0.015625)"/>
       <path id="DejaVuSans-d7" d="M 4488 3438 
L 3059 2003 
L 4488 575 
L 4116 197 
L 2681 1631 
L 1247 197 
L 878 575 
L 2303 2003 
L 878 3438 
L 1247 3816 
L 2681 2381 
L 4116 3816 
L 4488 3438 
z
" transform="scale(0.015625)"/>
       <path id="DejaVuSans-2212" d="M 678 2272 
L 4684 2272 
L 4684 1741 
L 678 1741 
L 678 2272 
z
" transform="scale(0.015625)"/>
      </defs>
      <use xlink:href="#DejaVuSans-53" transform="translate(0 0.171875)"/>
      <use xlink:href="#DejaVuSans-4c" transform="translate(63.476562 0.171875)"/>
      <use xlink:href="#DejaVuSans-44" transform="translate(119.189453 0.171875)"/>
      <use xlink:href="#DejaVuSans-2c" transform="translate(196.191406 0.171875)"/>
      <use xlink:href="#DejaVuSans-20" transform="translate(227.978516 0.171875)"/>
      <use xlink:href="#DejaVuSans-Oblique-3c1" transform="translate(259.765625 0.171875)"/>
      <use xlink:href="#DejaVuSans-5b" transform="translate(355.712566 0.171875)"/>
      <use xlink:href="#DejaVuSans-d7" transform="translate(394.726238 0.171875)"/>
      <use xlink:href="#DejaVuSans-31" transform="translate(478.5153 0.171875)"/>
      <use xlink:href="#DejaVuSans-30" transform="translate(542.138347 0.171875)"/>
      <use xlink:href="#DejaVuSans-2212" transform="translate(606.718425 38.453125) scale(0.7)"/>
      <use xlink:href="#DejaVuSans-36" transform="translate(665.370769 38.453125) scale(0.7)"/>
      <use xlink:href="#DejaVuSans-c5" transform="translate(745.111655 0.171875)"/>
      <use xlink:href="#DejaVuSans-2212" transform="translate(814.47689 38.453125) scale(0.7)"/>
      <use xlink:href="#DejaVuSans-32" transform="translate(873.129233 38.453125) scale(0.7)"/>
      <use xlink:href="#DejaVuSans-5d" transform="translate(920.399741 0.171875)"/>
     </g>
    </g>
   </g>
   <g id="line2d_14">
    <path d="M 56.8 251.553844 
L 79.164729 251.471624 
L 81.848497 251.255648 
L 83.637675 250.915171 
L 85.426854 250.286514 
L 86.321443 249.818201 
L 87.216032 249.220387 
L 88.110621 248.473398 
L 89.00521 247.559745 
L 89.8998 246.465872 
L 91.688978 243.713312 
L 93.478156 240.246859 
L 95.267335 236.237195 
L 99.740281 225.886237 
L 101.529459 222.469618 
L 103.318637 219.774035 
L 104.213226 218.70811 
L 105.107816 217.820676 
L 106.002405 217.097467 
L 107.791583 216.070073 
L 109.580762 215.468143 
L 111.36994 215.144232 
L 114.053707 214.94031 
L 119.421242 214.866973 
L 181.147896 214.872741 
L 185.620842 214.996137 
L 187.41002 215.199692 
L 189.199198 215.65133 
L 190.093788 216.03482 
L 190.988377 216.571707 
L 191.882966 217.307457 
L 192.777555 218.294409 
L 193.672144 219.590338 
L 194.566733 221.255993 
L 195.461323 223.351592 
L 196.355912 225.932365 
L 197.250501 229.043441 
L 198.14509 232.714491 
L 199.039679 236.954718 
L 200.828858 247.054524 
L 202.618036 258.897285 
L 207.090982 290.199718 
L 208.88016 300.78336 
L 210.669339 309.247316 
L 211.563928 312.629082 
L 212.458517 315.463298 
L 213.353106 317.787978 
L 214.247695 319.653777 
L 215.142285 321.118651 
L 216.036874 322.242982 
L 216.931463 323.085506 
L 217.826052 323.700222 
L 218.720641 324.134302 
L 220.50982 324.608684 
L 222.298998 324.72 
L 224.088176 324.547275 
L 225.877355 324.042116 
L 226.771944 323.614046 
L 227.666533 323.024384 
L 228.561122 322.228156 
L 229.455711 321.171226 
L 230.350301 319.791058 
L 231.24489 318.018355 
L 232.139479 315.779754 
L 233.034068 313.001645 
L 233.928657 309.615035 
L 234.823246 305.561208 
L 235.717836 300.797734 
L 236.612425 295.304257 
L 238.401603 282.183934 
L 240.190782 266.620502 
L 246.452906 207.665237 
L 248.242084 194.071858 
L 250.031263 183.122699 
L 250.925852 178.6619 
L 251.820441 174.851209 
L 252.71503 171.655923 
L 253.609619 169.034396 
L 254.504208 166.941755 
L 255.398798 165.332697 
L 256.293387 164.163345 
L 257.187976 163.392232 
L 258.082565 162.980598 
L 258.977154 162.892193 
L 259.871743 163.092819 
L 260.766333 163.549774 
L 261.660922 164.231347 
L 262.555511 165.10645 
L 264.344689 167.315086 
L 266.133868 169.93688 
L 271.501403 178.188859 
L 273.290581 180.547108 
L 275.07976 182.561328 
L 276.868938 184.210561 
L 278.658116 185.510216 
L 280.447295 186.502533 
L 282.236473 187.247408 
L 284.92024 188.056774 
L 289.393186 189.258993 
L 291.182365 189.95826 
L 292.971543 190.946006 
L 294.760721 192.348383 
L 296.5499 194.299097 
L 298.339078 196.929331 
L 300.128257 200.352639 
L 301.917435 204.64651 
L 303.706613 209.83376 
L 305.495792 215.867828 
L 307.28497 222.626007 
L 309.968737 233.678939 
L 314.441683 252.319486 
L 316.230862 259.062265 
L 318.02004 265.076943 
L 319.809218 270.242405 
L 321.598397 274.513402 
L 323.387575 277.913352 
L 325.176754 280.51914 
L 326.965932 282.441916 
L 328.75511 283.807886 
L 330.544289 284.742165 
L 332.333467 285.357392 
L 334.122645 285.747439 
L 336.806413 286.065064 
L 340.38477 286.229503 
L 348.436072 286.289884 
L 376.168337 286.221027 
L 379.746693 286.03766 
L 382.430461 285.687646 
L 384.219639 285.261477 
L 386.008818 284.594052 
L 387.797996 283.587708 
L 389.587174 282.126833 
L 390.481764 281.186579 
L 391.376353 280.085081 
L 393.165531 277.337719 
L 394.954709 273.778522 
L 396.743888 269.339256 
L 398.533066 264.008441 
L 400.322244 257.845339 
L 403.006012 247.355746 
L 410.162725 217.906531 
L 411.951904 211.629794 
L 413.741082 206.1698 
L 415.530261 201.596614 
L 417.319439 197.907783 
L 419.108617 195.040978 
L 420.897796 192.891836 
L 422.686974 191.332843 
L 424.476152 190.229733 
L 426.265331 189.453216 
L 428.949098 188.646317 
L 433.422044 187.435921 
L 435.211222 186.749302 
L 437.000401 185.83132 
L 438.789579 184.61373 
L 440.578758 183.04026 
L 442.367936 181.0736 
L 444.157114 178.702874 
L 445.946293 175.949633 
L 448.63006 171.235376 
L 456.681363 156.33479 
L 458.470541 153.616122 
L 460.259719 151.28438 
L 462.048898 149.358948 
L 463.838076 147.828217 
L 465.627255 146.65658 
L 467.416433 145.793184 
L 469.205611 145.180621 
L 470.99479 144.7622 
L 473.678557 144.389576 
L 477.256914 144.171154 
L 483.519038 144.07986 
L 503.2 144.070302 
L 503.2 144.070302 
" clip-path="url(#pca5c27ff50)" style="fill: none; stroke: #1f77b4; stroke-width: 1.5; stroke-linecap: square"/>
   </g>
   <g id="line2d_15">
    <path d="M 56.8 251.553844 
L 79.164729 251.471624 
L 81.848497 251.255648 
L 83.637675 250.915171 
L 85.426854 250.286514 
L 86.321443 249.818201 
L 87.216032 249.220387 
L 88.110621 248.473398 
L 89.00521 247.559745 
L 89.8998 246.465872 
L 91.688978 243.713312 
L 93.478156 240.246859 
L 95.267335 236.237195 
L 99.740281 225.886237 
L 101.529459 222.469618 
L 103.318637 219.774035 
L 104.213226 218.70811 
L 105.107816 217.820676 
L 106.002405 217.097467 
L 107.791583 216.070073 
L 109.580762 215.468143 
L 111.36994 215.144232 
L 114.053707 214.94031 
L 119.421242 214.866973 
L 184.726253 214.722554 
L 186.515431 214.491345 
L 188.304609 213.956065 
L 189.199198 213.487711 
L 190.093788 212.817853 
L 190.988377 211.880051 
L 191.882966 210.594887 
L 192.777555 208.870938 
L 193.672144 206.607286 
L 194.566733 203.697819 
L 195.461323 200.037353 
L 196.355912 195.529412 
L 197.250501 190.095169 
L 198.14509 183.682794 
L 199.039679 176.276214 
L 200.828858 158.634458 
L 202.618036 137.948178 
L 207.090982 83.270146 
L 208.88016 64.781999 
L 209.774749 56.895082 
L 210.669339 49.994767 
L 211.563928 44.085127 
L 212.458517 39.130711 
L 213.353106 35.064606 
L 214.247695 31.79763 
L 215.142285 29.227586 
L 216.036874 27.247708 
L 216.931463 25.753673 
L 217.826052 24.648877 
L 218.720641 23.847937 
L 219.61523 23.278598 
L 220.50982 22.882383 
L 222.298998 22.442615 
L 224.088176 22.32 
L 225.877355 22.493866 
L 226.771944 22.736141 
L 227.666533 23.129966 
L 228.561122 23.727468 
L 229.455711 24.593677 
L 230.350301 25.805519 
L 231.24489 27.449517 
L 232.139479 29.617932 
L 233.034068 32.40321 
L 233.928657 35.890894 
L 234.823246 40.151365 
L 235.717836 45.231127 
L 236.612425 51.144549 
L 238.401603 65.331199 
L 240.190782 81.997618 
L 243.769138 117.09809 
L 245.558317 132.264028 
L 246.452906 138.679157 
L 247.347495 144.203352 
L 248.242084 148.812177 
L 249.136673 152.526581 
L 250.031263 155.406809 
L 250.925852 157.543937 
L 251.820441 159.050151 
L 252.71503 160.048871 
L 253.609619 160.665654 
L 254.504208 161.020534 
L 258.977154 162.105588 
L 259.871743 162.597469 
L 260.766333 163.243969 
L 262.555511 164.996683 
L 264.344689 167.278733 
L 267.028457 171.32593 
L 270.606814 176.898782 
L 272.395992 179.407933 
L 274.18517 181.599469 
L 275.974349 183.431345 
L 277.763527 184.90196 
L 279.552705 186.041366 
L 281.341884 186.901681 
L 283.131062 187.548797 
L 286.709419 188.505525 
L 289.393186 189.258993 
L 291.182365 189.95826 
L 292.971543 190.946006 
L 294.760721 192.348383 
L 296.5499 194.299097 
L 298.339078 196.929331 
L 300.128257 200.352639 
L 301.917435 204.64651 
L 303.706613 209.83376 
L 305.495792 215.867828 
L 307.28497 222.626007 
L 309.968737 233.678939 
L 314.441683 252.319486 
L 316.230862 259.062265 
L 318.02004 265.076943 
L 319.809218 270.242405 
L 321.598397 274.513402 
L 323.387575 277.913352 
L 325.176754 280.51914 
L 326.965932 282.441916 
L 328.75511 283.807886 
L 330.544289 284.742165 
L 332.333467 285.357392 
L 334.122645 285.747439 
L 336.806413 286.065064 
L 340.38477 286.229503 
L 348.436072 286.289884 
L 376.168337 286.221027 
L 379.746693 286.03766 
L 382.430461 285.687646 
L 384.219639 285.261477 
L 386.008818 284.594052 
L 387.797996 283.587708 
L 389.587174 282.126833 
L 390.481764 281.186579 
L 391.376353 280.085081 
L 393.165531 277.337719 
L 394.954709 273.778522 
L 396.743888 269.339256 
L 398.533066 264.008441 
L 400.322244 257.845339 
L 403.006012 247.355746 
L 410.162725 217.906531 
L 411.951904 211.629794 
L 413.741082 206.1698 
L 415.530261 201.596614 
L 417.319439 197.907783 
L 419.108617 195.040978 
L 420.897796 192.891836 
L 422.686974 191.332843 
L 424.476152 190.229733 
L 426.265331 189.453216 
L 428.949098 188.646317 
L 433.422044 187.435921 
L 435.211222 186.749302 
L 437.000401 185.83132 
L 438.789579 184.61373 
L 440.578758 183.04026 
L 442.367936 181.0736 
L 444.157114 178.702874 
L 445.946293 175.949633 
L 448.63006 171.235376 
L 456.681363 156.33479 
L 458.470541 153.616122 
L 460.259719 151.28438 
L 462.048898 149.358948 
L 463.838076 147.828217 
L 465.627255 146.65658 
L 467.416433 145.793184 
L 469.205611 145.180621 
L 470.99479 144.7622 
L 473.678557 144.389576 
L 477.256914 144.171154 
L 483.519038 144.07986 
L 503.2 144.070302 
L 503.2 144.070302 
" clip-path="url(#pca5c27ff50)" style="fill: none; stroke: #ff7f0e; stroke-width: 1.5; stroke-linecap: square"/>
   </g>
   <g id="patch_3">
    <path d="M 56.8 339.84 
L 56.8 7.2 
" style="fill: none; stroke: #000000; stroke-width: 0.8; stroke-linejoin: miter; stroke-linecap: square"/>
   </g>
   <g id="patch_4">
    <path d="M 503.2 339.84 
L 503.2 7.2 
" style="fill: none; stroke: #000000; stroke-width: 0.8; stroke-linejoin: miter; stroke-linecap: square"/>
   </g>
   <g id="patch_5">
    <path d="M 56.8 339.84 
L 503.2 339.84 
" style="fill: none; stroke: #000000; stroke-width: 0.8; stroke-linejoin: miter; stroke-linecap: square"/>
   </g>
   <g id="patch_6">
    <path d="M 56.8 7.2 
L 503.2 7.2 
" style="fill: none; stroke: #000000; stroke-width: 0.8; stroke-linejoin: miter; stroke-linecap: square"/>
   </g>
   <g id="legend_1">
    <g id="patch_7">
     <path d="M 331.66864 57.04672 
L 493.8704 57.04672 
Q 496.536 57.04672 496.536 54.38112 
L 496.536 16.5296 
Q 496.536 13.864 493.8704 13.864 
L 331.66864 13.864 
Q 329.00304 13.864 329.00304 16.5296 
L 329.00304 54.38112 
Q 329.00304 57.04672 331.66864 57.04672 
z
" style="fill: #ffffff; opacity: 0.8; stroke: #cccccc; stroke-linejoin: miter"/>
    </g>
    <g id="line2d_16">
     <path d="M 334.33424 24.65968 
L 347.66224 24.65968 
L 360.99024 24.65968 
" style="fill: none; stroke: #ff7f0e; stroke-width: 1.5; stroke-linecap: square"/>
    </g>
    <g id="text_16">
     <!-- Lipids TRIS D$_2$O ↑ -->
     <g transform="translate(371.65264 29.32448) scale(0.13328 -0.13328)">
      <defs>
       <path id="DejaVuSans-69" d="M 603 3500 
L 1178 3500 
L 1178 0 
L 603 0 
L 603 3500 
z
M 603 4863 
L 1178 4863 
L 1178 4134 
L 603 4134 
L 603 4863 
z
" transform="scale(0.015625)"/>
       <path id="DejaVuSans-73" d="M 2834 3397 
L 2834 2853 
Q 2591 2978 2328 3040 
Q 2066 3103 1784 3103 
Q 1356 3103 1142 2972 
Q 928 2841 928 2578 
Q 928 2378 1081 2264 
Q 1234 2150 1697 2047 
L 1894 2003 
Q 2506 1872 2764 1633 
Q 3022 1394 3022 966 
Q 3022 478 2636 193 
Q 2250 -91 1575 -91 
Q 1294 -91 989 -36 
Q 684 19 347 128 
L 347 722 
Q 666 556 975 473 
Q 1284 391 1588 391 
Q 1994 391 2212 530 
Q 2431 669 2431 922 
Q 2431 1156 2273 1281 
Q 2116 1406 1581 1522 
L 1381 1569 
Q 847 1681 609 1914 
Q 372 2147 372 2553 
Q 372 3047 722 3315 
Q 1072 3584 1716 3584 
Q 2034 3584 2315 3537 
Q 2597 3491 2834 3397 
z
" transform="scale(0.015625)"/>
       <path id="DejaVuSans-54" d="M -19 4666 
L 3928 4666 
L 3928 4134 
L 2272 4134 
L 2272 0 
L 1638 0 
L 1638 4134 
L -19 4134 
L -19 4666 
z
" transform="scale(0.015625)"/>
       <path id="DejaVuSans-52" d="M 2841 2188 
Q 3044 2119 3236 1894 
Q 3428 1669 3622 1275 
L 4263 0 
L 3584 0 
L 2988 1197 
Q 2756 1666 2539 1819 
Q 2322 1972 1947 1972 
L 1259 1972 
L 1259 0 
L 628 0 
L 628 4666 
L 2053 4666 
Q 2853 4666 3247 4331 
Q 3641 3997 3641 3322 
Q 3641 2881 3436 2590 
Q 3231 2300 2841 2188 
z
M 1259 4147 
L 1259 2491 
L 2053 2491 
Q 2509 2491 2742 2702 
Q 2975 2913 2975 3322 
Q 2975 3731 2742 3939 
Q 2509 4147 2053 4147 
L 1259 4147 
z
" transform="scale(0.015625)"/>
       <path id="DejaVuSans-49" d="M 628 4666 
L 1259 4666 
L 1259 0 
L 628 0 
L 628 4666 
z
" transform="scale(0.015625)"/>
       <path id="DejaVuSans-4f" d="M 2522 4238 
Q 1834 4238 1429 3725 
Q 1025 3213 1025 2328 
Q 1025 1447 1429 934 
Q 1834 422 2522 422 
Q 3209 422 3611 934 
Q 4013 1447 4013 2328 
Q 4013 3213 3611 3725 
Q 3209 4238 2522 4238 
z
M 2522 4750 
Q 3503 4750 4090 4092 
Q 4678 3434 4678 2328 
Q 4678 1225 4090 567 
Q 3503 -91 2522 -91 
Q 1538 -91 948 565 
Q 359 1222 359 2328 
Q 359 3434 948 4092 
Q 1538 4750 2522 4750 
z
" transform="scale(0.015625)"/>
       <path id="DejaVuSans-2191" d="M 2541 4688 
L 2822 4688 
L 4047 3456 
L 3672 3081 
L 2947 3813 
L 2947 0 
L 2416 0 
L 2416 3813 
L 1684 3081 
L 1309 3456 
L 2541 4688 
z
" transform="scale(0.015625)"/>
      </defs>
      <use xlink:href="#DejaVuSans-4c" transform="translate(0 0.015625)"/>
      <use xlink:href="#DejaVuSans-69" transform="translate(55.712891 0.015625)"/>
      <use xlink:href="#DejaVuSans-70" transform="translate(83.496094 0.015625)"/>
      <use xlink:href="#DejaVuSans-69" transform="translate(146.972656 0.015625)"/>
      <use xlink:href="#DejaVuSans-64" transform="translate(174.755859 0.015625)"/>
      <use xlink:href="#DejaVuSans-73" transform="translate(238.232422 0.015625)"/>
      <use xlink:href="#DejaVuSans-20" transform="translate(290.332031 0.015625)"/>
      <use xlink:href="#DejaVuSans-54" transform="translate(322.119141 0.015625)"/>
      <use xlink:href="#DejaVuSans-52" transform="translate(383.203125 0.015625)"/>
      <use xlink:href="#DejaVuSans-49" transform="translate(452.685547 0.015625)"/>
      <use xlink:href="#DejaVuSans-53" transform="translate(482.177734 0.015625)"/>
      <use xlink:href="#DejaVuSans-20" transform="translate(545.654297 0.015625)"/>
      <use xlink:href="#DejaVuSans-44" transform="translate(577.441406 0.015625)"/>
      <use xlink:href="#DejaVuSans-32" transform="translate(655.400391 -16.390625) scale(0.7)"/>
      <use xlink:href="#DejaVuSans-4f" transform="translate(702.670898 0.015625)"/>
      <use xlink:href="#DejaVuSans-20" transform="translate(781.381836 0.015625)"/>
      <use xlink:href="#DejaVuSans-2191" transform="translate(813.168945 0.015625)"/>
     </g>
    </g>
    <g id="line2d_17">
     <path d="M 334.33424 44.25184 
L 347.66224 44.25184 
L 360.99024 44.25184 
" style="fill: none; stroke: #1f77b4; stroke-width: 1.5; stroke-linecap: square"/>
    </g>
    <g id="text_17">
     <!-- Lipids TRIS D$_2$O ↓ -->
     <g transform="translate(371.65264 48.91664) scale(0.13328 -0.13328)">
      <defs>
       <path id="DejaVuSans-2193" d="M 2822 -22 
L 2541 -22 
L 1309 1209 
L 1684 1584 
L 2416 853 
L 2416 4666 
L 2947 4666 
L 2947 853 
L 3672 1584 
L 4047 1209 
L 2822 -22 
z
" transform="scale(0.015625)"/>
      </defs>
      <use xlink:href="#DejaVuSans-4c" transform="translate(0 0.015625)"/>
      <use xlink:href="#DejaVuSans-69" transform="translate(55.712891 0.015625)"/>
      <use xlink:href="#DejaVuSans-70" transform="translate(83.496094 0.015625)"/>
      <use xlink:href="#DejaVuSans-69" transform="translate(146.972656 0.015625)"/>
      <use xlink:href="#DejaVuSans-64" transform="translate(174.755859 0.015625)"/>
      <use xlink:href="#DejaVuSans-73" transform="translate(238.232422 0.015625)"/>
      <use xlink:href="#DejaVuSans-20" transform="translate(290.332031 0.015625)"/>
      <use xlink:href="#DejaVuSans-54" transform="translate(322.119141 0.015625)"/>
      <use xlink:href="#DejaVuSans-52" transform="translate(383.203125 0.015625)"/>
      <use xlink:href="#DejaVuSans-49" transform="translate(452.685547 0.015625)"/>
      <use xlink:href="#DejaVuSans-53" transform="translate(482.177734 0.015625)"/>
      <use xlink:href="#DejaVuSans-20" transform="translate(545.654297 0.015625)"/>
      <use xlink:href="#DejaVuSans-44" transform="translate(577.441406 0.015625)"/>
      <use xlink:href="#DejaVuSans-32" transform="translate(655.400391 -16.390625) scale(0.7)"/>
      <use xlink:href="#DejaVuSans-4f" transform="translate(702.670898 0.015625)"/>
      <use xlink:href="#DejaVuSans-20" transform="translate(781.381836 0.015625)"/>
      <use xlink:href="#DejaVuSans-2193" transform="translate(813.168945 0.015625)"/>
     </g>
    </g>
   </g>
  </g>
 </g>
 <defs>
  <clipPath id="pca5c27ff50">
   <rect x="56.8" y="7.2" width="446.4" height="332.64"/>
  </clipPath>
 </defs>
</svg>
